<?xml version="1.0" encoding="UTF-8" standalone="no"?>
<!-- Created with Inkscape (http://www.inkscape.org/) -->

<svg
   width="320"
   height="64"
   viewBox="0 0 320 64"
   version="1.1"
   id="SVGRoot"
   sodipodi:docname="blocks.svg"
   inkscape:version="1.2.2 (b0a8486541, 2022-12-01)"
   inkscape:export-filename="blocks.png"
   inkscape:export-xdpi="96"
   inkscape:export-ydpi="96"
   xmlns:inkscape="http://www.inkscape.org/namespaces/inkscape"
   xmlns:sodipodi="http://sodipodi.sourceforge.net/DTD/sodipodi-0.dtd"
   xmlns:xlink="http://www.w3.org/1999/xlink"
   xmlns="http://www.w3.org/2000/svg"
   xmlns:svg="http://www.w3.org/2000/svg">
  <sodipodi:namedview
     id="namedview1780"
     pagecolor="#ffffff"
     bordercolor="#666666"
     borderopacity="1.0"
     inkscape:showpageshadow="2"
     inkscape:pageopacity="0.0"
     inkscape:pagecheckerboard="0"
     inkscape:deskcolor="#d1d1d1"
     inkscape:document-units="px"
     showgrid="true"
     inkscape:zoom="2.3786088"
     inkscape:cx="115.19339"
     inkscape:cy="62.641658"
     inkscape:window-width="1920"
     inkscape:window-height="1055"
     inkscape:window-x="0"
     inkscape:window-y="25"
     inkscape:window-maximized="0"
     inkscape:current-layer="layer1">
    <inkscape:grid
       type="xygrid"
       id="grid2270"
       empspacing="8"
       originx="0"
       originy="0" />
  </sodipodi:namedview>
  <defs
     id="defs1775">
    <linearGradient
       inkscape:collect="always"
       id="linearGradient1325">
      <stop
         style="stop-color:#ff8000;stop-opacity:0.44936708;"
         offset="0"
         id="stop1321" />
      <stop
         style="stop-color:#ff8000;stop-opacity:0.89240509;"
         offset="1"
         id="stop1323" />
    </linearGradient>
    <linearGradient
       inkscape:collect="always"
       id="linearGradient1297">
      <stop
         style="stop-color:#ff0000;stop-opacity:0.44936708;"
         offset="0"
         id="stop1293" />
      <stop
         style="stop-color:#ff0000;stop-opacity:0.89240509;"
         offset="1"
         id="stop1295" />
    </linearGradient>
    <linearGradient
       inkscape:collect="always"
       id="linearGradient1269">
      <stop
         style="stop-color:#ffff00;stop-opacity:0.44936708;"
         offset="0"
         id="stop1265" />
      <stop
         style="stop-color:#ffff00;stop-opacity:0.89240509;"
         offset="1"
         id="stop1267" />
    </linearGradient>
    <linearGradient
       inkscape:collect="always"
       id="linearGradient2505">
      <stop
         style="stop-color:#00ff00;stop-opacity:0.44936708;"
         offset="0"
         id="stop2501" />
      <stop
         style="stop-color:#00ff00;stop-opacity:0.89240509;"
         offset="1"
         id="stop2503" />
    </linearGradient>
    <radialGradient
       inkscape:collect="always"
       xlink:href="#linearGradient2505"
       id="radialGradient2507"
       cx="32"
       cy="32"
       fx="32"
       fy="32"
       r="24.188976"
       gradientUnits="userSpaceOnUse"
       gradientTransform="matrix(1.2815755,-5.7877605e-8,6.0864109e-8,1.3229167,-9.0104188,-10.333331)" />
    <radialGradient
       inkscape:collect="always"
       xlink:href="#linearGradient1269"
       id="radialGradient2507-3"
       cx="32"
       cy="32"
       fx="32"
       fy="32"
       r="24.188976"
       gradientUnits="userSpaceOnUse"
       gradientTransform="matrix(1.2815755,-5.7877605e-8,6.0864109e-8,1.3229167,54.989581,-10.333331)" />
    <radialGradient
       inkscape:collect="always"
       xlink:href="#linearGradient1297"
       id="radialGradient2507-35"
       cx="32"
       cy="32"
       fx="32"
       fy="32"
       r="24.188976"
       gradientUnits="userSpaceOnUse"
       gradientTransform="matrix(1.2815755,-5.7877605e-8,6.0864109e-8,1.3229167,118.98958,-10.333331)" />
    <radialGradient
       inkscape:collect="always"
       xlink:href="#linearGradient1325"
       id="radialGradient2507-1"
       cx="32"
       cy="32"
       fx="32"
       fy="32"
       r="24.188976"
       gradientUnits="userSpaceOnUse"
       gradientTransform="matrix(1.2815755,-5.7877605e-8,6.0864109e-8,1.3229167,182.98958,-10.333331)" />
  </defs>
  <g
     inkscape:label="Lager 1"
     inkscape:groupmode="layer"
     id="layer1">
    <path
       style="opacity:0.998363;fill:url(#radialGradient2507);fill-opacity:1;fill-rule:evenodd;stroke:#000000;stroke-width:2;stroke-linejoin:bevel;stroke-dasharray:none"
       d="M 1,16 C 1,1 1,1 16,1 h 32 c 14.825244,0.1794229 15,0 15,15 v 32 c 0,15 0,15 -15,15 H 16 C 1,63 1,63 1,48 Z"
       id="path2326"
       sodipodi:nodetypes="ccccccccc" />
    <path
       style="opacity:0.998363;fill:url(#radialGradient2507-3);fill-opacity:1;fill-rule:evenodd;stroke:#000000;stroke-width:2;stroke-linejoin:bevel;stroke-dasharray:none"
       d="M 65,16 C 65,1 65,1 80,1 h 32 c 14.82524,0.179423 15,0 15,15 v 32 c 0,15 0,15 -15,15 H 80 C 65,63 65,63 65,48 Z"
       id="path2326-5"
       sodipodi:nodetypes="ccccccccc" />
    <path
       style="opacity:0.998363;fill:url(#radialGradient2507-35);fill-opacity:1;fill-rule:evenodd;stroke:#000000;stroke-width:2;stroke-linejoin:bevel;stroke-dasharray:none"
       d="M 129,16 C 129,0.9999998 129,0.9999998 144,0.9999998 h 32 c 14.82524,0.1794229 15,0 15,15.0000002 v 32 c 0,15 0,15 -15,15 h -32 c -15,0 -15,0 -15,-15 z"
       id="path2326-9"
       sodipodi:nodetypes="ccccccccc" />
    <path
       style="opacity:0.998363;fill:url(#radialGradient2507-1);fill-opacity:1;fill-rule:evenodd;stroke:#000000;stroke-width:2;stroke-linejoin:bevel;stroke-dasharray:none"
       d="M 193,16 C 193,0.9999998 193,0.9999998 208,0.9999998 h 32 c 14.82524,0.1794229 15,0 15,15.0000002 v 32 c 0,15 0,15 -15,15 h -32 c -15,0 -15,0 -15,-15 z"
       id="path2326-0"
       sodipodi:nodetypes="ccccccccc" />
    <path
       id="path937"
       style="fill:#ff0000;fill-rule:evenodd;stroke:#000000;stroke-width:2;stroke-linecap:butt;stroke-linejoin:miter;stroke-opacity:1;stroke-dasharray:none"
       d="M 287.12109 8.015625 A 24 24 0 0 0 277.36328 10.486328 A 24 24 0 0 0 266.26172 42.171875 L 267.21484 44 A 24 24 0 0 0 299.55078 53.037109 A 24 24 0 0 0 309.28125 20.904297 A 24 24 0 0 0 287.12109 8.015625 z M 287.41406 16.009766 A 16 16 0 0 1 302.1875 24.601562 A 16 16 0 0 1 295.70117 46.025391 A 16 16 0 0 1 274.14453 40 L 273.50781 38.78125 A 16 16 0 0 1 280.9082 17.65625 A 16 16 0 0 1 287.41406 16.009766 z " />
    <rect
       style="opacity:0.998363;fill:#ff0000;fill-opacity:1;fill-rule:evenodd;stroke:#000000;stroke-width:2;stroke-linejoin:bevel"
       id="rect1090"
       width="8"
       height="16"
       x="284"
       y="4" />
    <rect
       style="opacity:0.998363;fill:#ff0000;fill-opacity:1;fill-rule:evenodd;stroke:#000000;stroke-width:2;stroke-linejoin:bevel"
       id="rect1092"
       width="8"
       height="16"
       x="284"
       y="44" />
    <rect
       style="opacity:0.998363;fill:#ff0000;fill-opacity:1;fill-rule:evenodd;stroke:#000000;stroke-width:2;stroke-linejoin:bevel"
       id="rect1094"
       width="8"
       height="16"
       x="28"
       y="-316"
       transform="rotate(90)" />
    <rect
       style="opacity:0.998363;fill:#ff0000;fill-opacity:1;fill-rule:evenodd;stroke:#000000;stroke-width:2;stroke-linejoin:bevel"
       id="rect1096"
       width="8"
       height="16"
       x="28"
       y="-276"
       transform="rotate(90)" />
  </g>
</svg>
