<?xml version="1.0" encoding="UTF-8" standalone="no"?>
<!-- Created with Inkscape (http://www.inkscape.org/) -->

<svg
   width="384"
   height="64"
   viewBox="0 0 384 64"
   version="1.1"
   id="SVGRoot"
   sodipodi:docname="blocks.svg"
   inkscape:version="1.2.2 (b0a8486541, 2022-12-01)"
   inkscape:export-filename="blocks.png"
   inkscape:export-xdpi="96"
   inkscape:export-ydpi="96"
   xmlns:inkscape="http://www.inkscape.org/namespaces/inkscape"
   xmlns:sodipodi="http://sodipodi.sourceforge.net/DTD/sodipodi-0.dtd"
   xmlns:xlink="http://www.w3.org/1999/xlink"
   xmlns="http://www.w3.org/2000/svg"
   xmlns:svg="http://www.w3.org/2000/svg">
  <sodipodi:namedview
     id="namedview1780"
     pagecolor="#ffffff"
     bordercolor="#666666"
     borderopacity="1.0"
     inkscape:showpageshadow="2"
     inkscape:pageopacity="0.0"
     inkscape:pagecheckerboard="0"
     inkscape:deskcolor="#d1d1d1"
     inkscape:document-units="px"
     showgrid="true"
     inkscape:zoom="8"
     inkscape:cx="369.75"
     inkscape:cy="18.75"
     inkscape:window-width="1920"
     inkscape:window-height="1055"
     inkscape:window-x="0"
     inkscape:window-y="25"
     inkscape:window-maximized="0"
     inkscape:current-layer="layer1">
    <inkscape:grid
       type="xygrid"
       id="grid2270"
       empspacing="8"
       originx="0"
       originy="0" />
  </sodipodi:namedview>
  <defs
     id="defs1775">
    <linearGradient
       inkscape:collect="always"
       id="linearGradient5778">
      <stop
         style="stop-color:#c8c8c8;stop-opacity:1;"
         offset="0"
         id="stop5774" />
      <stop
         style="stop-color:#333333;stop-opacity:1;"
         offset="1"
         id="stop5776" />
    </linearGradient>
    <linearGradient
       inkscape:collect="always"
       id="linearGradient1325">
      <stop
         style="stop-color:#ff8000;stop-opacity:0.44936708;"
         offset="0"
         id="stop1321" />
      <stop
         style="stop-color:#ff8000;stop-opacity:0.89240509;"
         offset="1"
         id="stop1323" />
    </linearGradient>
    <linearGradient
       inkscape:collect="always"
       id="linearGradient1297">
      <stop
         style="stop-color:#ff0000;stop-opacity:0.44936708;"
         offset="0"
         id="stop1293" />
      <stop
         style="stop-color:#ff0000;stop-opacity:0.89240509;"
         offset="1"
         id="stop1295" />
    </linearGradient>
    <linearGradient
       inkscape:collect="always"
       id="linearGradient1269">
      <stop
         style="stop-color:#ffff00;stop-opacity:0.44936708;"
         offset="0"
         id="stop1265" />
      <stop
         style="stop-color:#ffff00;stop-opacity:0.89240509;"
         offset="1"
         id="stop1267" />
    </linearGradient>
    <linearGradient
       inkscape:collect="always"
       id="linearGradient2505">
      <stop
         style="stop-color:#00ff00;stop-opacity:0.44936708;"
         offset="0"
         id="stop2501" />
      <stop
         style="stop-color:#00ff00;stop-opacity:0.89240509;"
         offset="1"
         id="stop2503" />
    </linearGradient>
    <radialGradient
       inkscape:collect="always"
       xlink:href="#linearGradient2505"
       id="radialGradient2507"
       cx="32"
       cy="32"
       fx="32"
       fy="32"
       r="24.188976"
       gradientUnits="userSpaceOnUse"
       gradientTransform="matrix(1.2815755,-5.7877605e-8,6.0864109e-8,1.3229167,-9.0104188,-10.333331)" />
    <radialGradient
       inkscape:collect="always"
       xlink:href="#linearGradient1269"
       id="radialGradient2507-3"
       cx="32"
       cy="32"
       fx="32"
       fy="32"
       r="24.188976"
       gradientUnits="userSpaceOnUse"
       gradientTransform="matrix(1.2815755,-5.7877605e-8,6.0864109e-8,1.3229167,54.989581,-10.333331)" />
    <radialGradient
       inkscape:collect="always"
       xlink:href="#linearGradient1297"
       id="radialGradient2507-35"
       cx="32"
       cy="32"
       fx="32"
       fy="32"
       r="24.188976"
       gradientUnits="userSpaceOnUse"
       gradientTransform="matrix(1.2815755,-5.7877605e-8,6.0864109e-8,1.3229167,118.98958,-10.333331)" />
    <radialGradient
       inkscape:collect="always"
       xlink:href="#linearGradient1325"
       id="radialGradient2507-1"
       cx="32"
       cy="32"
       fx="32"
       fy="32"
       r="24.188976"
       gradientUnits="userSpaceOnUse"
       gradientTransform="matrix(1.2815755,-5.7877605e-8,6.0864109e-8,1.3229167,182.98958,-10.333331)" />
    <linearGradient
       inkscape:collect="always"
       xlink:href="#linearGradient5778"
       id="linearGradient5780"
       x1="358"
       y1="2"
       x2="363"
       y2="5"
       gradientUnits="userSpaceOnUse"
       gradientTransform="translate(-0.3218,-1.763142)" />
  </defs>
  <g
     inkscape:label="Lager 1"
     inkscape:groupmode="layer"
     id="layer1">
    <path
       style="opacity:1;fill:url(#radialGradient2507);fill-opacity:1;fill-rule:evenodd;stroke:#000000;stroke-width:2;stroke-linejoin:bevel;stroke-dasharray:none"
       d="M 1,16 C 1,1 1,1 16,1 h 32 c 14.825244,0.1794229 15,0 15,15 v 32 c 0,15 0,15 -15,15 H 16 C 1,63 1,63 1,48 Z"
       id="path2326"
       sodipodi:nodetypes="ccccccccc" />
    <path
       style="opacity:1;fill:url(#radialGradient2507-3);fill-opacity:1;fill-rule:evenodd;stroke:#000000;stroke-width:2;stroke-linejoin:bevel;stroke-dasharray:none"
       d="M 65,16 C 65,1 65,1 80,1 h 32 c 14.82524,0.179423 15,0 15,15 v 32 c 0,15 0,15 -15,15 H 80 C 65,63 65,63 65,48 Z"
       id="path2326-5"
       sodipodi:nodetypes="ccccccccc" />
    <path
       style="opacity:1;fill:url(#radialGradient2507-35);fill-opacity:1;fill-rule:evenodd;stroke:#000000;stroke-width:2;stroke-linejoin:bevel;stroke-dasharray:none"
       d="M 129,16 C 129,0.9999998 129,0.9999998 144,0.9999998 h 32 c 14.82524,0.1794229 15,0 15,15.0000002 v 32 c 0,15 0,15 -15,15 h -32 c -15,0 -15,0 -15,-15 z"
       id="path2326-9"
       sodipodi:nodetypes="ccccccccc" />
    <path
       style="opacity:1;fill:url(#radialGradient2507-1);fill-opacity:1;fill-rule:evenodd;stroke:#000000;stroke-width:2;stroke-linejoin:bevel;stroke-dasharray:none"
       d="M 193,16 C 193,0.9999998 193,0.9999998 208,0.9999998 h 32 c 14.82524,0.1794229 15,0 15,15.0000002 v 32 c 0,15 0,15 -15,15 h -32 c -15,0 -15,0 -15,-15 z"
       id="path2326-0"
       sodipodi:nodetypes="ccccccccc" />
    <path
       id="path937"
       style="fill:#ff0000;fill-rule:evenodd;stroke:#000000;stroke-width:1.9993701;stroke-linecap:butt;stroke-linejoin:miter;stroke-dasharray:none;stroke-opacity:1;opacity:1"
       d="m 287.12109,8.015625 a 24,24 0 0 0 -9.75781,2.470703 24,24 0 0 0 -11.10156,31.685547 L 267.21484,44 a 24,24 0 0 0 32.33594,9.037109 24,24 0 0 0 9.73047,-32.132812 24,24 0 0 0 -22.16016,-12.888672 z m 0.29297,7.994141 A 16,16 0 0 1 302.1875,24.601562 16,16 0 0 1 295.70117,46.025391 16,16 0 0 1 274.14453,40 l -0.63672,-1.21875 a 16,16 0 0 1 7.40039,-21.125 16,16 0 0 1 6.50586,-1.646484 z" />
    <rect
       style="opacity:1;fill:#ff0000;fill-opacity:1;fill-rule:evenodd;stroke:#000000;stroke-width:2;stroke-linejoin:round"
       id="rect1090"
       width="8"
       height="16"
       x="284"
       y="4" />
    <rect
       style="opacity:1;fill:#ff0000;fill-opacity:1;fill-rule:evenodd;stroke:#000000;stroke-width:2;stroke-linejoin:round"
       id="rect1092"
       width="8"
       height="16"
       x="284"
       y="44" />
    <rect
       style="opacity:1;fill:#ff0000;fill-opacity:1;fill-rule:evenodd;stroke:#000000;stroke-width:2;stroke-linejoin:round"
       id="rect1094"
       width="8"
       height="16"
       x="28"
       y="-316"
       transform="rotate(90)" />
    <rect
       style="opacity:1;fill:#ff0000;fill-opacity:1;fill-rule:evenodd;stroke:#000000;stroke-width:2;stroke-linejoin:round"
       id="rect1096"
       width="8"
       height="16"
       x="28"
       y="-276"
       transform="rotate(90)" />
    <circle
       style="fill:#505050;fill-rule:evenodd;stroke:#000000;stroke-width:1.9993701;stroke-linecap:butt;stroke-linejoin:miter;stroke-opacity:1;fill-opacity:1;stroke-dasharray:none"
       id="path394"
       cx="352"
       cy="32"
       r="24" />
    <path
       style="fill:#505050;fill-opacity:1;fill-rule:evenodd;stroke:#ffffff;stroke-width:3.33333;stroke-linecap:round;stroke-linejoin:miter;stroke-dasharray:none;stroke-opacity:1"
       id="path394-7"
       sodipodi:type="arc"
       sodipodi:cx="352"
       sodipodi:cy="32"
       sodipodi:rx="18.240231"
       sodipodi:ry="18.240231"
       sodipodi:start="3.403392"
       sodipodi:end="4.1887902"
       sodipodi:arc-type="arc"
       d="m 334.38129,27.279082 a 18.240231,18.240231 0 0 1 8.49859,-11.075585"
       sodipodi:open="true" />
    <path
       id="ellipse1671"
       style="fill:url(#linearGradient5780);fill-opacity:1;fill-rule:evenodd;stroke:#000000;stroke-width:2;stroke-linecap:butt;stroke-linejoin:miter;stroke-dasharray:none;stroke-opacity:1"
       d="m 358.5718,3.2057695 -3.5,6.0621795 C 354.51951,10.224532 357.17365,12.790858 361,15 c 3.82635,2.209138 7.37592,3.224534 7.9282,2.267947 l 3.5,-6.062178 z"
       sodipodi:nodetypes="cssscc" />
    <ellipse
       style="fill:#333333;fill-opacity:1;fill-rule:evenodd;stroke:#000000;stroke-width:2;stroke-linecap:butt;stroke-linejoin:miter;stroke-dasharray:none;stroke-opacity:1"
       id="path3075"
       cx="320.13516"
       cy="-177.50963"
       rx="8"
       ry="2"
       transform="rotate(30)" />
    <path
       style="fill:#505050;fill-opacity:1;fill-rule:evenodd;stroke:#ffffff;stroke-width:3.33333333;stroke-linecap:round;stroke-linejoin:miter;stroke-dasharray:none;stroke-opacity:1"
       id="path1728"
       sodipodi:type="arc"
       sodipodi:cx="352"
       sodipodi:cy="32"
       sodipodi:rx="18.240231"
       sodipodi:ry="18.240231"
       sodipodi:start="4.4505896"
       sodipodi:end="4.712389"
       sodipodi:arc-type="arc"
       d="M 347.27908,14.38129 A 18.240231,18.240231 0 0 1 352,13.759769"
       sodipodi:open="true" />
    <path
       id="path2284"
       style="fill:#d19e30;fill-opacity:1;fill-rule:evenodd;stroke:#000000;stroke-width:0.26666667;stroke-linecap:round;stroke-linejoin:round;stroke-dasharray:none;stroke-opacity:1"
       d="M 372.77539 1.2734375 C 372.37778 1.2619636 371.94922 1.3395441 371.65234 1.515625 C 371.63934 1.529965 371.62723 1.5440338 371.61523 1.5585938 C 371.60223 1.5731436 371.59012 1.5868225 371.57812 1.6015625 C 371.56614 1.6164525 371.55592 1.6315144 371.54492 1.6464844 C 371.53392 1.6614244 371.52272 1.6781894 371.51172 1.6933594 C 371.50172 1.7086094 371.49242 1.7229614 371.48242 1.7382812 C 371.47342 1.7535712 371.46408 1.7696164 371.45508 1.7851562 C 371.44608 1.8007462 371.43769 1.8163114 371.42969 1.8320312 C 371.42169 1.8476012 371.4113 1.8630564 371.4043 1.8789062 C 371.3963 1.8947562 371.38981 1.9116944 371.38281 1.9277344 C 371.37481 1.9438444 371.36833 1.9584094 371.36133 1.9746094 C 371.35533 1.9907094 371.34975 2.0071175 371.34375 2.0234375 C 371.33775 2.0397875 371.33117 2.0558056 371.32617 2.0722656 C 371.32017 2.0888556 371.31555 2.1064569 371.31055 2.1230469 C 371.30555 2.1394569 371.29992 2.155135 371.29492 2.171875 C 371.28592 2.205335 371.27753 2.2395275 371.26953 2.2734375 C 371.26253 2.3072975 371.256 2.3426633 371.25 2.3769531 C 371.244 2.4112231 371.23936 2.4457888 371.23438 2.4804688 C 371.23038 2.5150186 371.22566 2.5490044 371.22266 2.5839844 C 371.21866 2.6190242 371.21589 2.6542033 371.21289 2.6894531 C 371.20989 2.7246531 371.20708 2.7595219 371.20508 2.7949219 C 371.20208 2.8304317 371.20122 2.8648308 371.19922 2.9003906 C 371.19622 2.9714806 371.19341 3.0438944 371.19141 3.1152344 C 371.18941 3.1865542 371.18659 3.2589783 371.18359 3.3300781 C 371.18059 3.3658081 371.17973 3.4001369 371.17773 3.4355469 C 371.17573 3.4710567 371.17292 3.5057658 371.16992 3.5410156 C 371.16792 3.5762156 371.20608 3.6015488 371.20508 3.6367188 C 371.20408 3.6719686 371.20512 3.7072175 371.20312 3.7421875 C 371.20312 3.7769575 371.20027 3.8129164 371.19727 3.8476562 C 371.19427 3.8822862 371.18955 3.9167219 371.18555 3.9511719 C 371.18155 3.9855417 371.17592 4.0205375 371.16992 4.0546875 C 371.16692 4.0716175 371.16416 4.0884888 371.16016 4.1054688 C 371.15816 4.1221886 371.15244 4.13938 371.14844 4.15625 C 371.14444 4.17332 371.13977 4.1902414 371.13477 4.2070312 C 371.13077 4.2238812 371.12609 4.2391894 371.12109 4.2558594 C 371.11609 4.2724694 371.11047 4.2900506 371.10547 4.3066406 C 371.09947 4.3233706 371.09489 4.3409019 371.08789 4.3574219 C 371.08189 4.3738919 371.07536 4.38988 371.06836 4.40625 C 371.06236 4.42246 371.05486 4.4387881 371.04688 4.4550781 C 371.03888 4.4714281 371.02948 4.4877664 371.02148 4.5039062 C 371.01348 4.5199662 371.00509 4.5348014 370.99609 4.5507812 C 370.98709 4.5669312 370.97875 4.5837394 370.96875 4.5996094 C 370.95975 4.6154494 370.94945 4.6326675 370.93945 4.6484375 C 370.92845 4.6643675 370.91725 4.6797025 370.90625 4.6953125 C 370.89525 4.7109425 370.88505 4.7247544 370.87305 4.7402344 C 371.34905 4.7287544 371.68094 4.775163 372.21094 4.4335938 C 372.22394 4.4192738 372.23605 4.405195 372.24805 4.390625 C 372.26105 4.376075 372.14716 4.3827806 372.16016 4.3691406 C 372.17316 4.3554406 372.18527 4.3400919 372.19727 4.3261719 C 372.20927 4.3122719 372.22142 4.2973731 372.23242 4.2832031 C 372.24442 4.2689931 372.25564 4.2546344 372.26562 4.2402344 C 372.27662 4.2258544 372.28783 4.2119256 372.29883 4.1972656 C 372.30883 4.1825756 372.31814 4.1691869 372.32812 4.1542969 C 372.33712 4.1394769 372.34842 4.124475 372.35742 4.109375 C 372.36642 4.094275 372.37381 4.07782 372.38281 4.0625 C 372.39181 4.04714 372.4002 4.031155 372.4082 4.015625 C 372.4162 4.000135 372.42464 3.9864131 372.43164 3.9707031 C 372.43964 3.9549731 372.44614 3.937765 372.45312 3.921875 C 372.46112 3.905915 372.46861 3.8891169 372.47461 3.8730469 C 372.48061 3.8570669 372.48619 3.8424119 372.49219 3.8261719 C 372.50419 3.7936819 372.51634 3.7596625 372.52734 3.7265625 C 372.53734 3.6934925 372.54764 3.6605831 372.55664 3.6269531 C 372.56564 3.5933433 372.57403 3.5595106 372.58203 3.5253906 C 372.58903 3.4913508 372.59652 3.456385 372.60352 3.421875 C 372.61052 3.387335 372.61705 3.3532092 372.62305 3.3183594 C 372.62805 3.2835494 372.63367 3.2479806 372.63867 3.2128906 C 372.64467 3.1777608 372.6493 3.144635 372.6543 3.109375 C 372.6643 3.0388352 372.67264 2.9673142 372.68164 2.8964844 C 372.68964 2.8256644 372.69898 2.7541436 372.70898 2.6835938 C 372.71498 2.6482338 372.71961 2.613205 372.72461 2.578125 C 372.73061 2.542985 372.73423 2.5074862 372.74023 2.4726562 C 372.74523 2.4378364 372.75277 2.4036606 372.75977 2.3691406 C 372.76677 2.3346008 372.77325 2.3016981 372.78125 2.2675781 C 372.78825 2.2335383 372.85909 2.1947992 372.87109 2.1621094 C 372.88309 2.1294394 372.89616 2.0964631 372.91016 2.0644531 C 372.92316 2.0324533 372.93814 2.0019431 372.95312 1.9707031 C 372.96012 1.9550731 372.96956 1.9392481 372.97656 1.9238281 C 372.98356 1.9084281 372.99295 1.8921531 373.00195 1.8769531 C 373.01095 1.8617631 373.01834 1.8469912 373.02734 1.8320312 C 373.03634 1.8170614 373.04569 1.8018394 373.05469 1.7871094 C 373.06369 1.7723894 373.07398 1.7586206 373.08398 1.7441406 C 373.09398 1.7296606 373.10228 1.7153919 373.11328 1.7011719 C 373.12328 1.6869719 373.13548 1.6721431 373.14648 1.6582031 C 373.15748 1.6442631 373.16869 1.6308475 373.17969 1.6171875 C 373.19169 1.6035275 373.2048 1.5895319 373.2168 1.5761719 C 373.2288 1.5628119 373.24091 1.5501594 373.25391 1.5371094 C 373.26791 1.5240494 373.27997 1.5107869 373.29297 1.4980469 C 373.30697 1.4853069 373.31998 1.4713944 373.33398 1.4589844 C 373.34898 1.4465744 373.36391 1.433935 373.37891 1.421875 C 373.39391 1.409805 373.40883 1.4003819 373.42383 1.3886719 C 373.24083 1.3198069 373.01395 1.2803218 372.77539 1.2734375 z M 374.2832 1.2910156 C 374.04127 1.2856469 373.80716 1.3149326 373.61328 1.3867188 C 373.59728 1.3984486 373.58141 1.409815 373.56641 1.421875 C 373.55141 1.433945 373.53744 1.4465944 373.52344 1.4589844 C 373.50844 1.4713944 373.49542 1.4833538 373.48242 1.4960938 C 373.46842 1.5088336 373.45441 1.5221064 373.44141 1.5351562 C 373.42741 1.5482162 373.4163 1.5608588 373.4043 1.5742188 C 373.3923 1.5875686 373.38014 1.6015844 373.36914 1.6152344 C 373.35714 1.6289044 373.34694 1.64231 373.33594 1.65625 C 373.32494 1.67018 373.31373 1.6850088 373.30273 1.6992188 C 373.29273 1.7134286 373.28148 1.7277075 373.27148 1.7421875 C 373.26148 1.7566575 373.25219 1.7723794 373.24219 1.7871094 C 373.23319 1.8018294 373.2258 1.8151081 373.2168 1.8300781 C 373.2078 1.8450381 373.19745 1.8598 373.18945 1.875 C 373.18045 1.89021 373.17206 1.906465 373.16406 1.921875 C 373.15706 1.937285 373.14862 1.95312 373.14062 1.96875 C 373.12564 1.99999 373.11261 2.0305 373.09961 2.0625 C 373.08661 2.0945 373.07255 2.1274864 373.06055 2.1601562 C 373.04955 2.1928462 373.03639 2.2265158 373.02539 2.2597656 C 373.01439 2.2930156 373.00414 2.325625 372.99414 2.359375 C 372.98414 2.393125 372.9758 2.4267875 372.9668 2.4609375 C 372.9578 2.4950875 372.94845 2.5300033 372.93945 2.5644531 C 372.93045 2.5989231 372.92206 2.6332788 372.91406 2.6679688 C 372.89906 2.7373386 372.87814 2.8061233 372.86914 2.8769531 C 372.86014 2.9477731 372.8508 3.0193138 372.8418 3.0898438 C 372.8358 3.1252036 372.83217 3.1602325 372.82617 3.1953125 C 372.82117 3.2304425 372.81655 3.2659414 372.81055 3.3007812 C 372.80455 3.3356012 372.79606 3.3697869 372.78906 3.4042969 C 372.78206 3.4388367 372.77753 3.4717494 372.76953 3.5058594 C 372.76253 3.5399092 372.75219 3.5737819 372.74219 3.6074219 C 372.73419 3.6410317 372.72584 3.6758844 372.71484 3.7089844 C 372.70484 3.7420542 372.69169 3.7741508 372.67969 3.8066406 C 372.67469 3.8228306 372.66716 3.8393988 372.66016 3.8554688 C 372.65516 3.8714486 372.64762 3.8884069 372.64062 3.9042969 C 372.63364 3.9202569 372.62614 3.9354619 372.61914 3.9511719 C 372.61114 3.9669019 372.6027 3.9825369 372.5957 3.9980469 C 372.5877 4.0135369 372.57831 4.0276588 372.57031 4.0429688 C 372.56131 4.0583286 372.55392 4.0747238 372.54492 4.0898438 C 372.53592 4.1049336 372.52562 4.1198856 372.51562 4.1347656 C 372.50664 4.1495856 372.49733 4.1650275 372.48633 4.1796875 C 372.47633 4.1943775 372.46412 4.2082464 372.45312 4.2226562 C 372.44214 4.2370362 372.43286 4.251475 372.42188 4.265625 C 372.40988 4.279845 372.39677 4.2946838 372.38477 4.3085938 C 372.37177 4.3224836 372.36066 4.3359594 372.34766 4.3496094 C 372.33466 4.3633094 372.31964 4.377255 372.30664 4.390625 C 372.29264 4.404005 372.27867 4.4165975 372.26367 4.4296875 C 372.73467 4.5039073 373.04981 4.5975813 373.63281 4.3574219 C 373.64881 4.3457119 373.66469 4.3343356 373.67969 4.3222656 C 373.69469 4.3101956 373.70866 4.2975562 373.72266 4.2851562 C 373.73766 4.2727464 373.75067 4.2607869 373.76367 4.2480469 C 373.77767 4.2353169 373.66569 4.2188312 373.67969 4.2070312 C 373.69369 4.1952614 373.7077 4.1821019 373.7207 4.1699219 C 373.7337 4.1577219 373.74677 4.1453325 373.75977 4.1328125 C 373.77277 4.1203125 373.78583 4.1085631 373.79883 4.0957031 C 373.80983 4.0827931 373.82198 4.0698406 373.83398 4.0566406 C 373.84498 4.0434506 373.85619 4.029115 373.86719 4.015625 C 373.87819 4.002165 373.88939 3.9883994 373.90039 3.9746094 C 373.91039 3.9607794 373.92164 3.9476736 373.93164 3.9335938 C 373.94164 3.9195238 373.95389 3.904985 373.96289 3.890625 C 373.97389 3.876325 373.98219 3.8622662 373.99219 3.8476562 C 374.00019 3.8329664 374.01053 3.8175844 374.01953 3.8027344 C 374.03753 3.7730244 374.05431 3.7435006 374.07031 3.7128906 C 374.08631 3.6822508 374.10219 3.6505606 374.11719 3.6191406 C 374.13119 3.5877008 374.14616 3.5555375 374.16016 3.5234375 C 374.17416 3.4912775 374.18817 3.4604142 374.20117 3.4277344 C 374.21417 3.3950844 374.22628 3.361275 374.23828 3.328125 C 374.25028 3.294955 374.26339 3.2620356 374.27539 3.2285156 C 374.28739 3.1950158 374.29759 3.1607531 374.30859 3.1269531 C 374.33059 3.0593633 374.353 2.9918381 374.375 2.9238281 C 374.396 2.8558083 374.41841 2.7882831 374.44141 2.7207031 C 374.45341 2.6869833 374.46261 2.6526806 374.47461 2.6191406 C 374.48661 2.5856508 374.49777 2.5526812 374.50977 2.5195312 C 374.52177 2.4863514 374.53583 2.4525917 374.54883 2.4199219 C 374.56283 2.3872619 374.57389 2.3563186 374.58789 2.3242188 C 374.60089 2.2920688 374.61781 2.2599256 374.63281 2.2285156 C 374.64781 2.1970758 374.66369 2.1653956 374.67969 2.1347656 C 374.69569 2.1041258 374.79445 2.0864536 374.81445 2.0585938 C 374.82445 2.0445538 374.83666 2.0312381 374.84766 2.0175781 C 374.85766 2.0037581 374.86986 1.9899125 374.88086 1.9765625 C 374.89286 1.9633225 374.90206 1.95055 374.91406 1.9375 C 374.92506 1.92448 374.93722 1.9111875 374.94922 1.8984375 C 374.96122 1.8856675 374.97433 1.8737181 374.98633 1.8613281 C 374.99933 1.8490481 375.01044 1.8362086 375.02344 1.8242188 C 375.03644 1.8121988 375.0495 1.8007025 375.0625 1.7890625 C 375.0755 1.7773125 375.08952 1.7670894 375.10352 1.7558594 C 375.11852 1.7446594 375.13248 1.7315531 375.14648 1.7207031 C 375.16148 1.7098031 375.17641 1.6998631 375.19141 1.6894531 C 375.20741 1.6791231 375.22228 1.6681931 375.23828 1.6582031 C 375.25328 1.6481831 375.26916 1.6384362 375.28516 1.6289062 C 375.30216 1.6194964 375.31894 1.6106325 375.33594 1.6015625 C 375.35294 1.5924925 375.36872 1.5847419 375.38672 1.5761719 C 375.10859 1.4063659 374.68643 1.2999635 374.2832 1.2910156 z M 371.06445 1.5273438 C 370.64877 1.5472439 370.2083 1.6950329 369.87305 1.9375 C 369.86105 1.95297 369.85084 1.9667919 369.83984 1.9824219 C 369.82884 1.9980319 369.81664 2.0135669 369.80664 2.0292969 C 369.79564 2.0452269 369.66816 2.1024406 369.66016 2.1191406 C 369.65216 2.1357706 369.64372 2.1531319 369.63672 2.1699219 C 369.62872 2.1868419 369.62223 2.2039231 369.61523 2.2207031 C 369.60923 2.2374031 369.60366 2.2545744 369.59766 2.2714844 C 369.59166 2.2884744 369.58508 2.3053056 369.58008 2.3222656 C 369.57508 2.3389556 369.56845 2.3560769 369.56445 2.3730469 C 369.55945 2.3899969 369.55673 2.4067681 369.55273 2.4238281 C 369.54773 2.4410381 369.54306 2.4594425 369.53906 2.4765625 C 369.53606 2.4935325 369.5323 2.5082606 369.5293 2.5253906 C 369.5263 2.5425806 369.52348 2.560965 369.52148 2.578125 C 369.51848 2.595545 369.51762 2.6136494 369.51562 2.6308594 C 369.51464 2.6477494 369.51177 2.6643306 369.50977 2.6816406 C 369.50677 2.7162106 369.50491 2.7504464 369.50391 2.7851562 C 369.50291 2.8197462 369.50095 2.855835 369.50195 2.890625 C 369.50195 2.925345 369.50291 2.9591708 369.50391 2.9941406 C 369.50691 3.0288606 369.50872 3.0645394 369.51172 3.0996094 C 369.51472 3.1347892 369.51653 3.1698883 369.51953 3.2050781 C 369.52353 3.2401681 369.5282 3.2753469 369.5332 3.3105469 C 369.5372 3.3459267 369.54188 3.3807558 369.54688 3.4160156 C 369.55686 3.4865056 369.56517 3.5582964 369.57617 3.6289062 C 369.58617 3.6994762 369.59742 3.7693538 369.60742 3.8398438 C 369.61142 3.8754336 369.61514 3.9101125 369.61914 3.9453125 C 369.62314 3.9806925 369.62881 4.0155814 369.63281 4.0507812 C 369.63681 4.0858612 369.63958 4.12118 369.64258 4.15625 C 369.64458 4.19143 369.64644 4.2267488 369.64844 4.2617188 C 369.65044 4.2964386 369.65039 4.3303644 369.65039 4.3652344 C 369.65139 4.3999442 369.65139 4.4359933 369.65039 4.4707031 C 369.64939 4.5053031 369.64753 4.5396488 369.64453 4.5742188 C 369.64353 4.5913086 369.71875 4.5744669 369.71875 4.5917969 C 369.71975 4.6087169 369.7178 4.6272214 369.7168 4.6445312 C 369.7148 4.6621512 369.71489 4.6779925 369.71289 4.6953125 C 369.71189 4.7127325 369.70903 4.7307569 369.70703 4.7480469 C 369.70503 4.7652469 369.70122 4.7814981 369.69922 4.7988281 C 369.69622 4.8163781 369.69441 4.8341525 369.69141 4.8515625 C 369.68841 4.8688725 369.68464 4.8869569 369.68164 4.9042969 C 369.67764 4.9213569 369.67392 4.9376881 369.66992 4.9550781 C 369.66492 4.9725681 369.6603 4.9904625 369.6543 5.0078125 C 369.6503 5.0250225 369.64467 5.0432469 369.63867 5.0605469 C 369.63267 5.0781169 369.62514 5.0959614 369.61914 5.1132812 C 369.61214 5.1305612 369.60661 5.1466825 369.59961 5.1640625 C 369.59161 5.1817225 369.58417 5.1994469 369.57617 5.2167969 C 369.56817 5.2341869 369.55978 5.2521414 369.55078 5.2695312 C 370.01678 5.1721914 370.19441 5.180908 370.69141 4.7929688 C 370.70341 4.7775188 370.71556 4.7617236 370.72656 4.7460938 C 370.73756 4.7304838 370.74877 4.7149586 370.75977 4.6992188 C 370.77077 4.6832788 370.77711 4.6682736 370.78711 4.6523438 C 370.79711 4.6365038 370.80741 4.6195256 370.81641 4.6035156 C 370.82541 4.5873656 370.8338 4.5708075 370.8418 4.5546875 C 370.8498 4.5386375 370.85723 4.5221494 370.86523 4.5058594 C 370.87323 4.4895094 370.87972 4.4734312 370.88672 4.4570312 C 370.89272 4.4408214 370.90025 4.4246731 370.90625 4.4082031 C 370.91225 4.3917331 370.91783 4.3740419 370.92383 4.3574219 C 370.92983 4.3407019 370.93445 4.3253136 370.93945 4.3085938 C 370.94445 4.2919838 370.94914 4.2765556 370.95312 4.2597656 C 370.95812 4.2429156 370.9638 4.2258544 370.9668 4.2089844 C 370.9718 4.1919144 370.97552 4.17323 370.97852 4.15625 C 370.98152 4.13953 370.98528 4.1225286 370.98828 4.1054688 C 370.99428 4.0713088 371.00086 4.0383562 371.00586 4.0039062 C 371.00986 3.9695464 371.01264 3.9331175 371.01562 3.8984375 C 371.01762 3.8638075 371.02144 3.8298917 371.02344 3.7949219 C 371.02344 3.7601519 371.02539 3.7246231 371.02539 3.6894531 C 371.02639 3.6541933 371.02539 3.6193542 371.02539 3.5839844 C 371.02439 3.5487044 371.02444 3.5120325 371.02344 3.4765625 C 371.02244 3.4409725 371.02153 3.4066436 371.01953 3.3710938 C 371.01653 3.2999838 371.01181 3.2294731 371.00781 3.1582031 C 371.00381 3.0869733 370.99909 3.0144992 370.99609 2.9433594 C 370.99509 2.9075494 370.99319 2.8733406 370.99219 2.8378906 C 370.99119 2.8023008 371.02434 2.7598392 371.02734 2.7246094 C 371.02934 2.6894094 371.03311 2.6541406 371.03711 2.6191406 C 371.04111 2.5841008 371.04383 2.550305 371.04883 2.515625 C 371.05283 2.481075 371.05845 2.4464492 371.06445 2.4121094 C 371.07045 2.3778494 371.07894 2.3425136 371.08594 2.3085938 C 371.09394 2.2747438 371.10038 2.2404912 371.10938 2.2070312 C 371.11336 2.1904014 371.12 2.1747931 371.125 2.1582031 C 371.129 2.1417831 371.13464 2.1238819 371.14062 2.1074219 C 371.14662 2.0908419 371.1522 2.0749036 371.1582 2.0585938 C 371.1642 2.0422338 371.17173 2.0259156 371.17773 2.0097656 C 371.18473 1.9936456 371.19027 1.9789206 371.19727 1.9628906 C 371.20527 1.9467806 371.2127 1.9299525 371.2207 1.9140625 C 371.2277 1.8982225 371.23514 1.8828875 371.24414 1.8671875 C 371.25114 1.8516075 371.26053 1.8358525 371.26953 1.8203125 C 371.27853 1.8047225 371.28883 1.7887775 371.29883 1.7734375 C 371.30783 1.7581575 371.31617 1.7436856 371.32617 1.7285156 C 371.33717 1.7132656 371.34838 1.6966106 371.35938 1.6816406 C 371.37036 1.6667106 371.38058 1.6514986 371.39258 1.6367188 C 371.40458 1.6218388 371.41669 1.60829 371.42969 1.59375 C 371.44169 1.57918 371.45575 1.5651212 371.46875 1.5507812 C 371.3405 1.5276689 371.20302 1.5207103 371.06445 1.5273438 z M 375.78711 1.5917969 C 375.71251 1.59245 375.64027 1.5979613 375.57227 1.609375 C 375.55527 1.617975 375.53848 1.6257156 375.52148 1.6347656 C 375.50448 1.6438456 375.4867 1.6525794 375.4707 1.6621094 C 375.4537 1.6715294 375.43983 1.6833694 375.42383 1.6933594 C 375.40883 1.7033794 375.39295 1.7141994 375.37695 1.7246094 C 375.36195 1.7349394 375.34603 1.7449894 375.33203 1.7558594 C 375.31803 1.7667594 375.30306 1.7778325 375.28906 1.7890625 C 375.27406 1.8002625 375.26105 1.8106456 375.24805 1.8222656 C 375.23505 1.8340156 375.22198 1.8453919 375.20898 1.8574219 C 375.19598 1.8694419 375.18486 1.8841344 375.17188 1.8964844 C 375.15888 1.9087744 375.14677 1.9208938 375.13477 1.9335938 C 375.12377 1.9463636 375.11061 1.9576531 375.09961 1.9707031 C 375.08761 1.9837231 375.07545 1.9963956 375.06445 2.0097656 C 375.05345 2.0230156 375.04225 2.0371314 375.03125 2.0507812 C 375.02125 2.0646112 375.01195 2.07982 375.00195 2.09375 C 374.98095 2.12162 374.96041 2.1488144 374.94141 2.1777344 C 374.92241 2.2067042 374.90277 2.235765 374.88477 2.265625 C 374.86677 2.295525 374.84903 2.3268019 374.83203 2.3574219 C 374.81603 2.3881717 374.7992 2.4179188 374.7832 2.4492188 C 374.7672 2.4804586 374.75133 2.5130919 374.73633 2.5449219 C 374.72133 2.5768017 374.70641 2.608345 374.69141 2.640625 C 374.67641 2.672815 374.63991 2.7025283 374.62891 2.7363281 C 374.60691 2.8039281 374.5845 2.8714433 374.5625 2.9394531 C 374.5415 3.0074731 374.51909 3.0769314 374.49609 3.1445312 C 374.48409 3.1782512 374.47489 3.2106008 374.46289 3.2441406 C 374.45089 3.2776306 374.43973 3.31061 374.42773 3.34375 C 374.41573 3.37693 374.40167 3.4106794 374.38867 3.4433594 C 374.37467 3.4760192 374.36361 3.5089258 374.34961 3.5410156 C 374.33561 3.5731756 374.31969 3.6033558 374.30469 3.6347656 C 374.28969 3.6662056 374.27381 3.6978958 374.25781 3.7285156 C 374.24181 3.7591556 374.22403 3.7886494 374.20703 3.8183594 C 374.19803 3.8332594 374.18869 3.8486614 374.17969 3.8632812 C 374.17169 3.8779712 374.15939 3.8938431 374.15039 3.9082031 C 374.13939 3.9225031 374.13014 3.9351288 374.11914 3.9492188 C 374.10914 3.9632886 374.09889 3.9764244 374.08789 3.9902344 C 374.07789 4.0040644 374.06669 4.01775 374.05469 4.03125 C 374.04369 4.04471 374.03348 4.0590956 374.02148 4.0722656 C 374.01048 4.0854556 373.99833 4.0984681 373.98633 4.1113281 C 373.97433 4.1242381 373.96027 4.1359275 373.94727 4.1484375 C 373.93427 4.1609375 373.9212 4.17533 373.9082 4.1875 C 373.8952 4.1997 373.88019 4.2108464 373.86719 4.2226562 C 373.85219 4.2344262 373.83922 4.2463825 373.82422 4.2578125 C 373.81022 4.2692625 373.7943 4.2799856 373.7793 4.2910156 C 373.7633 4.3019956 373.74842 4.3135788 373.73242 4.3242188 C 373.71642 4.3348486 373.69959 4.3452588 373.68359 4.3554688 C 374.13259 4.5145484 374.41911 4.6580898 375.03711 4.53125 C 375.05511 4.52266 375.07284 4.5149194 375.08984 4.5058594 C 375.10684 4.4967794 375.12267 4.4861025 375.13867 4.4765625 C 375.15567 4.4671525 375.16955 4.4572356 375.18555 4.4472656 C 375.20155 4.4372456 375.08752 4.3956186 375.10352 4.3867188 C 375.11952 4.3779588 375.13439 4.368775 375.15039 4.359375 C 375.16539 4.349935 375.18227 4.3418312 375.19727 4.3320312 C 375.21227 4.3222914 375.22523 4.3110212 375.24023 4.3007812 C 375.25423 4.2903414 375.2692 4.2802312 375.2832 4.2695312 C 375.2972 4.2588314 375.31022 4.2473981 375.32422 4.2363281 C 375.33822 4.2253781 375.35223 4.214585 375.36523 4.203125 C 375.37823 4.191555 375.3913 4.1798286 375.4043 4.1679688 C 375.4173 4.1561688 375.42841 4.1450325 375.44141 4.1328125 C 375.45441 4.1207925 375.46652 4.1082531 375.47852 4.0957031 C 375.48952 4.0829131 375.50267 4.0695006 375.51367 4.0566406 C 375.53767 4.0309508 375.56003 4.0053956 375.58203 3.9785156 C 375.60403 3.9515558 375.62548 3.9244442 375.64648 3.8964844 C 375.66648 3.8684744 375.68703 3.8393467 375.70703 3.8105469 C 375.72603 3.7815469 375.74664 3.7522162 375.76562 3.7226562 C 375.78462 3.6931764 375.80427 3.6649156 375.82227 3.6347656 C 375.84027 3.6045258 375.85895 3.5736186 375.87695 3.5429688 C 375.89495 3.5124288 375.91269 3.4821817 375.92969 3.4511719 C 375.96469 3.3891619 375.9992 3.3262317 376.0332 3.2636719 C 376.0672 3.2010819 376.10172 3.1381617 376.13672 3.0761719 C 376.15472 3.0454219 376.17145 3.015055 376.18945 2.984375 C 376.20745 2.953835 376.22514 2.9227581 376.24414 2.8925781 C 376.26214 2.8623483 376.28178 2.8322642 376.30078 2.8027344 C 376.31978 2.7732544 376.33742 2.7436436 376.35742 2.7148438 C 376.37642 2.6858438 376.39892 2.6587692 376.41992 2.6308594 C 376.44092 2.6028494 376.46238 2.573765 376.48438 2.546875 C 376.50536 2.519905 376.61267 2.5251131 376.63867 2.5019531 C 376.65067 2.4901631 376.66473 2.48 376.67773 2.46875 C 376.69073 2.45716 376.70575 2.4464069 376.71875 2.4355469 C 376.73275 2.4249269 376.74577 2.4128336 376.75977 2.4023438 C 376.77377 2.3919338 376.78678 2.3831669 376.80078 2.3730469 C 376.81478 2.3628569 376.8307 2.3534 376.8457 2.34375 C 376.8607 2.33429 376.87367 2.3235931 376.88867 2.3144531 C 376.90367 2.3052431 376.91955 2.2958394 376.93555 2.2871094 C 376.95055 2.2781494 376.96642 2.2718619 376.98242 2.2636719 C 376.99842 2.2555419 377.01525 2.2460112 377.03125 2.2382812 C 377.04725 2.2304414 377.06308 2.2239669 377.08008 2.2167969 C 377.09708 2.2097769 377.11581 2.2019625 377.13281 2.1953125 C 377.14981 2.1885925 377.16659 2.1818612 377.18359 2.1757812 C 377.20259 2.1699414 377.22028 2.1637131 377.23828 2.1582031 C 377.25628 2.1527131 377.27592 2.1474581 377.29492 2.1425781 C 376.96067 1.8317 376.30932 1.5872247 375.78711 1.5917969 z M 369.56836 2.0390625 C 369.04736 2.0403625 368.44255 2.292677 368.06055 2.6914062 C 368.05255 2.7087562 368.04316 2.7247975 368.03516 2.7421875 C 368.02616 2.7595375 368.01872 2.7775919 368.01172 2.7949219 C 368.00372 2.8125819 367.99819 2.8302864 367.99219 2.8476562 C 367.98519 2.8649362 367.97866 2.8830006 367.97266 2.9003906 C 367.96666 2.9179606 367.96203 2.9338719 367.95703 2.9511719 C 367.95203 2.9683919 367.94736 2.9865064 367.94336 3.0039062 C 367.93836 3.0213962 367.93369 3.0392606 367.92969 3.0566406 C 367.92669 3.0737006 367.92292 3.0901119 367.91992 3.1074219 C 367.91592 3.1247319 367.82131 3.1953606 367.82031 3.2128906 C 367.81931 3.2306406 367.81936 3.248135 367.81836 3.265625 C 367.81836 3.282895 367.81736 3.2990364 367.81836 3.3164062 C 367.81836 3.3338862 367.81931 3.3518306 367.82031 3.3691406 C 367.82031 3.3868306 367.82127 3.404595 367.82227 3.421875 C 367.82427 3.438675 367.82417 3.4553464 367.82617 3.4726562 C 367.82917 3.5072062 367.83484 3.5418219 367.83984 3.5761719 C 367.84584 3.6103717 367.85042 3.6455475 367.85742 3.6796875 C 367.86442 3.7137175 367.87091 3.74714 367.87891 3.78125 C 367.88691 3.81498 367.8953 3.8488125 367.9043 3.8828125 C 367.9133 3.9169625 367.92264 3.9523583 367.93164 3.9863281 C 367.94264 4.0201381 367.95384 4.0540808 367.96484 4.0878906 C 367.97484 4.1219806 367.98509 4.1537 367.99609 4.1875 C 368.01909 4.2550298 368.04145 4.3231052 368.06445 4.390625 C 368.08745 4.4580948 368.11177 4.5262202 368.13477 4.59375 C 368.14477 4.62802 368.15502 4.6615025 368.16602 4.6953125 C 368.17602 4.7294025 368.18827 4.762915 368.19727 4.796875 C 368.20727 4.830685 368.21561 4.8644475 368.22461 4.8984375 C 368.23361 4.9325975 368.24395 4.9659 368.25195 5 C 368.26095 5.03373 368.26644 5.0692758 368.27344 5.1035156 C 368.28044 5.1375456 368.28502 5.1726714 368.29102 5.2070312 C 368.29602 5.2412212 368.29973 5.2740338 368.30273 5.3085938 C 368.30473 5.3255736 368.30659 5.3440381 368.30859 5.3613281 C 368.31059 5.3781281 368.30955 5.3967525 368.31055 5.4140625 L 368.31055 5.4667969 L 368.31055 5.5175781 C 368.31055 5.5348581 368.30859 5.5528325 368.30859 5.5703125 C 368.30659 5.5880625 368.30669 5.6054069 368.30469 5.6230469 C 368.30369 5.6405669 368.30278 5.6581814 368.30078 5.6757812 C 368.29878 5.6930712 368.29597 5.7107856 368.29297 5.7285156 C 368.28997 5.7463656 368.28525 5.7635 368.28125 5.78125 C 368.27825 5.79883 368.377 5.747575 368.375 5.765625 C 368.372 5.784045 368.36823 5.8040456 368.36523 5.8222656 C 368.36223 5.8404156 368.35947 5.8585131 368.35547 5.8769531 C 368.35047 5.8957631 368.3468 5.9131106 368.3418 5.9316406 C 368.3378 5.9502406 368.33117 5.9695514 368.32617 5.9882812 C 368.76617 5.8068816 368.96186 5.8230015 369.38086 5.3515625 C 369.38986 5.3342325 369.39825 5.3181712 369.40625 5.3007812 C 369.41425 5.2834314 369.42364 5.2653869 369.43164 5.2480469 C 369.43964 5.2303969 369.44417 5.2146756 369.45117 5.1972656 C 369.45717 5.1799856 369.4647 5.1599181 369.4707 5.1425781 C 369.4767 5.1250081 369.48133 5.1090969 369.48633 5.0917969 C 369.49033 5.0745869 369.496 5.0564525 369.5 5.0390625 C 369.505 5.0215725 369.50967 5.0056612 369.51367 4.9882812 C 369.51667 4.9712114 369.52044 4.9528669 369.52344 4.9355469 C 369.52644 4.9182369 369.52925 4.9001825 369.53125 4.8828125 C 369.53425 4.8652625 369.53511 4.8474581 369.53711 4.8300781 C 369.53911 4.8128781 369.54292 4.7966269 369.54492 4.7792969 C 369.54592 4.7618869 369.54588 4.7458156 369.54688 4.7285156 C 369.54886 4.7108956 369.54978 4.6931012 369.55078 4.6757812 C 369.54978 4.6588614 369.55078 4.6403769 369.55078 4.6230469 C 369.55078 4.5883369 369.54886 4.5542112 369.54688 4.5195312 C 369.54488 4.4849914 369.54206 4.4486725 369.53906 4.4140625 C 369.53506 4.3795425 369.53134 4.3452367 369.52734 4.3105469 C 369.52134 4.2761769 369.51577 4.2417112 369.50977 4.2070312 C 369.50477 4.1722114 369.46103 4.1543306 369.45703 4.1191406 C 369.45403 4.0840508 369.44931 4.0489117 369.44531 4.0136719 C 369.44131 3.9782919 369.43564 3.9434631 369.43164 3.9082031 C 369.42164 3.8376733 369.41039 3.7659223 369.40039 3.6953125 C 369.39039 3.6247427 369.38009 3.5549448 369.37109 3.484375 C 369.36709 3.448785 369.36242 3.4141062 369.35742 3.3789062 C 369.35342 3.3435264 369.3487 3.3085975 369.3457 3.2734375 C 369.3417 3.2383475 369.33794 3.2030786 369.33594 3.1679688 C 369.33294 3.1327888 369.32912 3.09748 369.32812 3.0625 C 369.32614 3.02779 369.32617 2.9938642 369.32617 2.9589844 C 369.32617 2.9242744 369.32614 2.8882256 369.32812 2.8535156 C 369.32912 2.8189158 369.33098 2.78457 369.33398 2.75 C 369.33498 2.73291 369.33784 2.7144856 369.33984 2.6972656 C 369.34084 2.6803856 369.3437 2.6636744 369.3457 2.6464844 C 369.3487 2.6290744 369.35247 2.61088 369.35547 2.59375 C 369.35847 2.57656 369.36123 2.5600186 369.36523 2.5429688 C 369.36823 2.5259988 369.37295 2.5092175 369.37695 2.4921875 C 369.38195 2.4749775 369.38367 2.4584462 369.38867 2.4414062 C 369.39367 2.4244464 369.3993 2.407545 369.4043 2.390625 C 369.4093 2.373925 369.41588 2.3567536 369.42188 2.3398438 C 369.42886 2.3228538 369.43441 2.3058725 369.44141 2.2890625 C 369.44741 2.2723525 369.45394 2.2550612 369.46094 2.2382812 C 369.46894 2.2213514 369.47638 2.2042 369.48438 2.1875 C 369.49236 2.17087 369.50077 2.1533686 369.50977 2.1367188 C 369.51877 2.1198588 369.52711 2.1044306 369.53711 2.0878906 C 369.54611 2.0713106 369.55836 2.0555525 369.56836 2.0390625 z M 377.4707 2.2128906 C 377.4517 2.2178306 377.43206 2.2230356 377.41406 2.2285156 C 377.39506 2.2340356 377.37736 2.2399938 377.35938 2.2460938 C 377.34138 2.2519336 377.32364 2.258975 377.30664 2.265625 C 377.28964 2.272355 377.27286 2.2799394 377.25586 2.2871094 C 377.23886 2.2941294 377.22108 2.3008338 377.20508 2.3085938 C 377.18908 2.3164336 377.17225 2.3257844 377.15625 2.3339844 C 377.14025 2.3421044 377.12436 2.3487319 377.10938 2.3574219 C 377.09438 2.3663619 377.07945 2.3755556 377.06445 2.3847656 C 377.04945 2.3939756 377.03453 2.4044525 377.01953 2.4140625 C 377.00453 2.4235225 376.99056 2.4333194 376.97656 2.4433594 C 376.96256 2.4535394 376.94759 2.4621764 376.93359 2.4726562 C 376.91959 2.4830762 376.90558 2.4949594 376.89258 2.5058594 C 376.87858 2.5164894 376.86456 2.5278125 376.85156 2.5390625 C 376.83856 2.5506525 376.8255 2.5606956 376.8125 2.5722656 C 376.7865 2.5954156 376.76133 2.6200514 376.73633 2.6445312 C 376.71233 2.6691212 376.68706 2.6950233 376.66406 2.7207031 C 376.64006 2.7464631 376.6187 2.7722183 376.5957 2.7988281 C 376.5737 2.8256981 376.54934 2.8514664 376.52734 2.8789062 C 376.50534 2.9062462 376.48489 2.9348008 376.46289 2.9628906 C 376.44189 2.9910906 376.42139 3.0201483 376.40039 3.0488281 C 376.37939 3.0773281 376.33536 3.0959433 376.31836 3.1269531 C 376.28336 3.1889931 376.24884 3.2518933 376.21484 3.3144531 C 376.18084 3.3770431 376.14436 3.4399033 376.10938 3.5019531 C 376.09138 3.5327031 376.07464 3.56307 376.05664 3.59375 C 376.03864 3.62429 376.02191 3.6553969 376.00391 3.6855469 C 375.98591 3.7157767 375.96531 3.7458308 375.94531 3.7753906 C 375.92631 3.8048706 375.90867 3.8344814 375.88867 3.8632812 C 375.86867 3.8922812 375.84717 3.9193658 375.82617 3.9472656 C 375.80617 3.9752756 375.78567 4.00437 375.76367 4.03125 C 375.74167 4.05822 375.71931 4.083685 375.69531 4.109375 C 375.68431 4.122385 375.67216 4.1339344 375.66016 4.1464844 C 375.64916 4.1592744 375.63505 4.1733269 375.62305 4.1855469 C 375.61005 4.1975769 375.59794 4.2088431 375.58594 4.2207031 C 375.57294 4.2325031 375.55986 4.2443494 375.54688 4.2558594 C 375.53388 4.2674394 375.51986 4.2779625 375.50586 4.2890625 C 375.49186 4.3000125 375.47884 4.3116156 375.46484 4.3222656 C 375.45084 4.3329656 375.43686 4.3432456 375.42188 4.3535156 C 375.40788 4.3639456 375.39391 4.3730225 375.37891 4.3828125 C 375.36391 4.3925525 375.34703 4.4027494 375.33203 4.4121094 C 375.31603 4.4215594 375.30116 4.4305231 375.28516 4.4394531 C 375.26916 4.4482131 375.25233 4.4583769 375.23633 4.4667969 C 375.21933 4.4752469 375.20355 4.4823644 375.18555 4.4902344 C 375.16855 4.4979344 375.15081 4.5063019 375.13281 4.5136719 C 375.11481 4.5210219 375.09612 4.5283464 375.07812 4.5351562 C 375.48812 4.7777758 375.72938 4.96931 376.35938 4.96875 C 376.37836 4.96383 376.39802 4.9605581 376.41602 4.9550781 C 376.43502 4.9495481 376.4527 4.94361 376.4707 4.9375 C 376.4887 4.93167 376.37067 4.8601586 376.38867 4.8554688 C 376.40667 4.8506388 376.42341 4.8451936 376.44141 4.8398438 C 376.45941 4.8347238 376.47519 4.8282256 376.49219 4.8222656 C 376.50919 4.8161956 376.52892 4.8111175 376.54492 4.8046875 C 376.56192 4.7983575 376.57675 4.7921262 376.59375 4.7851562 C 376.60975 4.7778664 376.62658 4.7712119 376.64258 4.7636719 C 376.65858 4.7561319 376.67345 4.7462512 376.68945 4.7382812 C 376.70545 4.7305014 376.72133 4.7232836 376.73633 4.7148438 C 376.75133 4.7062138 376.76625 4.6983931 376.78125 4.6894531 C 376.79625 4.6806131 376.81022 4.6714894 376.82422 4.6621094 C 376.84022 4.6530594 376.85414 4.6425825 376.86914 4.6328125 C 376.88214 4.6226125 376.89811 4.6136556 376.91211 4.6035156 C 376.94111 4.5832756 376.96714 4.5626956 376.99414 4.5410156 C 377.02114 4.5191956 377.04822 4.4956662 377.07422 4.4726562 C 377.10022 4.4495664 377.12634 4.4263436 377.15234 4.4023438 C 377.17734 4.3780138 377.20352 4.3549981 377.22852 4.3300781 C 377.25352 4.3053081 377.27773 4.2795162 377.30273 4.2539062 C 377.32673 4.2281464 377.34905 4.2020112 377.37305 4.1757812 C 377.39705 4.1497514 377.42131 4.1223731 377.44531 4.0957031 C 377.49231 4.0423733 377.53994 3.9895267 377.58594 3.9355469 C 377.63294 3.8815169 377.67956 3.8267173 377.72656 3.7734375 C 377.75156 3.7472075 377.77288 3.7215825 377.79688 3.6953125 C 377.82186 3.6692825 377.84514 3.6428475 377.86914 3.6171875 C 377.89314 3.5914375 377.91836 3.5658856 377.94336 3.5410156 C 377.96836 3.5162456 377.99258 3.4907969 378.01758 3.4667969 C 378.04258 3.4424669 378.13506 3.4611862 378.16406 3.4414062 C 378.19206 3.4213964 378.22295 3.4012925 378.25195 3.3828125 C 378.28095 3.3641725 378.30984 3.3469881 378.33984 3.3300781 C 378.35484 3.3213081 378.37172 3.3127675 378.38672 3.3046875 C 378.40172 3.2960875 378.41859 3.28886 378.43359 3.28125 C 378.44959 3.27399 378.46447 3.2669556 378.48047 3.2597656 C 378.49647 3.2526956 378.51134 3.2469944 378.52734 3.2402344 C 378.54334 3.2333644 378.55917 3.2269131 378.57617 3.2207031 C 378.59317 3.2147931 378.60995 3.2067519 378.62695 3.2011719 C 378.64295 3.1954819 378.66073 3.1906669 378.67773 3.1855469 C 378.69473 3.1800769 378.71052 3.176355 378.72852 3.171875 C 378.74552 3.167505 378.76425 3.1621431 378.78125 3.1582031 C 378.79925 3.1540831 378.81598 3.1517275 378.83398 3.1484375 C 378.85298 3.1453775 378.87164 3.1413519 378.89062 3.1386719 C 378.90862 3.1358819 378.92631 3.1328594 378.94531 3.1308594 C 378.96431 3.1292094 378.98295 3.1283131 379.00195 3.1269531 C 379.02095 3.1256431 379.04055 3.1236469 379.06055 3.1230469 C 378.76655 2.6925877 378.0217 2.2323306 377.4707 2.2128906 z M 367.89258 2.7753906 C 367.37258 2.8241906 366.69067 3.2665266 366.38867 3.7285156 C 366.38367 3.7472056 366.37805 3.7646131 366.37305 3.7832031 C 366.36905 3.8017431 366.36336 3.8214638 366.35938 3.8398438 C 366.35438 3.8586436 366.35261 3.8762414 366.34961 3.8945312 C 366.34561 3.9126912 366.3448 3.9310488 366.3418 3.9492188 C 366.3388 3.9676386 366.33694 3.9859764 366.33594 4.0039062 C 366.33394 4.0217162 366.33108 4.0406638 366.33008 4.0585938 C 366.32908 4.0766436 366.32717 4.0935381 366.32617 4.1113281 L 366.32617 4.1640625 C 366.32717 4.1816425 366.32813 4.1992469 366.32812 4.2167969 C 366.32912 4.2345969 366.32908 4.2520814 366.33008 4.2695312 C 366.33108 4.2867412 366.33394 4.3030325 366.33594 4.3203125 C 366.33794 4.3377125 366.3398 4.3558769 366.3418 4.3730469 C 366.3438 4.3906369 366.34661 4.4086914 366.34961 4.4257812 C 366.35261 4.4423312 366.35342 4.4594825 366.35742 4.4765625 C 366.36342 4.5106625 366.37286 4.544385 366.38086 4.578125 C 366.38886 4.611675 366.39625 4.6463175 366.40625 4.6796875 C 366.41625 4.7129275 366.4265 4.7460769 366.4375 4.7792969 C 366.4495 4.8120967 366.46066 4.8439433 366.47266 4.8769531 C 366.48466 4.9101431 366.46642 4.9704033 366.48242 5.0019531 C 366.49842 5.0333131 366.51425 5.0644633 366.53125 5.0957031 C 366.54725 5.1272931 366.56503 5.1583133 366.58203 5.1894531 C 366.61703 5.2516531 366.6525 5.3148833 366.6875 5.3769531 C 366.7235 5.4389531 366.75897 5.5002902 366.79297 5.5625 C 366.80997 5.59425 366.82675 5.62501 366.84375 5.65625 C 366.85975 5.68784 366.87758 5.71845 366.89258 5.75 C 366.90958 5.78135 366.92445 5.8139733 366.93945 5.8457031 C 366.95445 5.8776431 366.96842 5.9093664 366.98242 5.9414062 C 366.99742 5.9729762 367.01144 6.0046694 367.02344 6.0371094 C 367.03744 6.0692692 367.04955 6.1038988 367.06055 6.1367188 C 367.07155 6.1693286 367.0828 6.201025 367.0918 6.234375 C 367.0978 6.250665 367.10147 6.2683964 367.10547 6.2851562 C 367.11047 6.3012962 367.11319 6.3190675 367.11719 6.3359375 C 367.12019 6.3532775 367.12591 6.3696888 367.12891 6.3867188 C 367.13291 6.4038886 367.13372 6.42037 367.13672 6.4375 C 367.14072 6.45449 367.14253 6.4728844 367.14453 6.4902344 C 367.14653 6.5079244 367.15034 6.5253288 367.15234 6.5429688 C 367.15434 6.5604586 367.15525 6.5780031 367.15625 6.5957031 C 367.15825 6.6129831 367.1582 6.6304775 367.1582 6.6484375 L 367.1582 6.703125 C 367.1582 6.721005 367.15725 6.7396125 367.15625 6.7578125 C 367.15525 6.7764225 367.1563 6.79406 367.1543 6.8125 C 367.1533 6.83087 367.15044 6.8504006 367.14844 6.8691406 C 367.14544 6.8882806 367.14362 6.9068914 367.14062 6.9257812 C 367.13764 6.9447412 367.13486 6.9632519 367.13086 6.9824219 C 367.55286 6.7607023 367.85078 6.6420115 368.17578 6.1015625 C 368.18178 6.0828925 368.18641 6.0635119 368.19141 6.0449219 C 368.19641 6.0263919 368.20108 6.0086144 368.20508 5.9902344 C 368.21008 5.9714344 368.2128 5.9538869 368.2168 5.9355469 C 368.2198 5.9173869 368.22261 5.8970162 368.22461 5.8789062 C 368.22761 5.8604964 368.22847 5.8441019 368.23047 5.8261719 C 368.23147 5.8083619 368.23338 5.7894044 368.23438 5.7714844 C 368.23636 5.7534244 368.23828 5.73655 368.23828 5.71875 L 368.23828 5.6660156 C 368.23828 5.6484356 368.23733 5.6308412 368.23633 5.6132812 C 368.23633 5.5954914 368.23636 5.5780069 368.23438 5.5605469 C 368.23338 5.5433369 368.15039 5.5818331 368.15039 5.5644531 C 368.15039 5.5469731 368.15139 5.5309819 368.15039 5.5136719 C 368.15039 5.4959919 368.14848 5.4762744 368.14648 5.4589844 C 368.14448 5.4421844 368.14458 5.4254531 368.14258 5.4082031 C 368.13958 5.3736533 368.13586 5.3390375 368.13086 5.3046875 C 368.12586 5.2704875 368.11928 5.2353017 368.11328 5.2011719 C 368.10628 5.1671419 368.0998 5.1337092 368.0918 5.0996094 C 368.0828 5.0658794 368.07345 5.0320467 368.06445 4.9980469 C 368.05645 4.9638969 368.04711 4.9304542 368.03711 4.8964844 C 368.02711 4.8626744 368.01586 4.8287917 368.00586 4.7949219 C 367.99486 4.7608419 367.98466 4.7271492 367.97266 4.6933594 C 367.95066 4.6257694 367.9273 4.5577542 367.9043 4.4902344 C 367.8813 4.4227644 367.85794 4.3547492 367.83594 4.2871094 C 367.82594 4.2528394 367.81469 4.2193567 367.80469 4.1855469 C 367.79369 4.1514669 367.78148 4.1179042 367.77148 4.0839844 C 367.76148 4.0501744 367.75314 4.0164717 367.74414 3.9824219 C 367.73514 3.9482719 367.72675 3.9149692 367.71875 3.8808594 C 367.71075 3.8471294 367.70327 3.8115936 367.69727 3.7773438 C 367.69027 3.7433238 367.68469 3.7101412 367.67969 3.6757812 C 367.67469 3.6415914 367.67002 3.6068156 367.66602 3.5722656 C 367.66402 3.5552756 367.66311 3.5368212 367.66211 3.5195312 C 367.66011 3.5027314 367.6592 3.4841569 367.6582 3.4667969 C 367.6582 3.4491169 367.6592 3.4314325 367.6582 3.4140625 L 367.6582 3.3632812 C 367.6582 3.3460114 367.65916 3.3280369 367.66016 3.3105469 C 367.66116 3.2927969 367.66306 3.2754425 367.66406 3.2578125 C 367.66606 3.2402925 367.66792 3.2226881 367.66992 3.2050781 C 367.67092 3.1877981 367.67473 3.1700836 367.67773 3.1523438 C 367.68073 3.1344938 367.6845 3.1173494 367.6875 3.0996094 C 367.6905 3.0820194 367.69327 3.064725 367.69727 3.046875 C 367.70227 3.028805 367.81527 2.9490106 367.82227 2.9316406 C 367.82827 2.9143506 367.83675 2.8962962 367.84375 2.8789062 C 367.85175 2.8612564 367.85919 2.8435119 367.86719 2.8261719 C 367.87519 2.8087719 367.88358 2.7927706 367.89258 2.7753906 z M 379.21484 3.2304688 C 379.19484 3.2311386 379.17525 3.2311219 379.15625 3.2324219 C 379.13725 3.2337919 379.11861 3.2362414 379.09961 3.2382812 C 379.08061 3.2399312 379.06292 3.2434138 379.04492 3.2460938 C 379.02692 3.2488836 379.00628 3.2506164 378.98828 3.2539062 C 378.97028 3.2569562 378.95355 3.261625 378.93555 3.265625 C 378.91855 3.269735 378.90177 3.2748169 378.88477 3.2792969 C 378.86677 3.2836669 378.84903 3.2879088 378.83203 3.2929688 C 378.81603 3.2984286 378.79725 3.3028938 378.78125 3.3085938 C 378.76425 3.3142836 378.74842 3.321975 378.73242 3.328125 C 378.71542 3.334035 378.69959 3.3390531 378.68359 3.3457031 C 378.66759 3.3525631 378.65172 3.3599975 378.63672 3.3671875 C 378.62072 3.3742575 378.60389 3.3810019 378.58789 3.3886719 C 378.57189 3.3959419 378.55602 3.4040294 378.54102 3.4121094 C 378.52602 3.4207094 378.50914 3.42907 378.49414 3.4375 C 378.46414 3.45441 378.43525 3.4717744 378.40625 3.4902344 C 378.37725 3.5088744 378.34636 3.526985 378.31836 3.546875 C 378.28936 3.566895 378.26042 3.588425 378.23242 3.609375 C 378.20542 3.630735 378.17739 3.6518881 378.15039 3.6738281 C 378.12239 3.6955881 378.09536 3.7175544 378.06836 3.7402344 C 378.04136 3.7630844 378.01528 3.7871469 377.98828 3.8105469 C 377.96128 3.8336669 377.9342 3.8550864 377.9082 3.8789062 C 377.8552 3.9266062 377.80395 3.9750975 377.75195 4.0234375 C 377.69895 4.0718375 377.65833 4.1321769 377.61133 4.1855469 C 377.58633 4.2117867 377.56206 4.2374019 377.53906 4.2636719 C 377.51406 4.2897117 377.49275 4.3161869 377.46875 4.3417969 C 377.44475 4.3675567 377.41953 4.3930588 377.39453 4.4179688 C 377.36953 4.4427386 377.34336 4.4681875 377.31836 4.4921875 C 377.29336 4.5165175 377.26623 4.5396 377.24023 4.5625 C 377.21423 4.5856 377.18716 4.6072264 377.16016 4.6289062 C 377.13316 4.6507362 377.10612 4.6711664 377.07812 4.6914062 C 377.06514 4.7017862 377.04916 4.7109331 377.03516 4.7207031 C 377.02116 4.7309031 377.00523 4.74062 376.99023 4.75 C 376.97523 4.75905 376.96227 4.7684138 376.94727 4.7773438 C 376.93227 4.7861836 376.91734 4.7942044 376.90234 4.8027344 C 376.88734 4.8113644 376.87047 4.820105 376.85547 4.828125 C 376.83947 4.835905 376.82459 4.8441125 376.80859 4.8515625 C 376.79259 4.8591125 376.77577 4.8660369 376.75977 4.8730469 C 376.74377 4.8803469 376.72694 4.8861581 376.71094 4.8925781 C 376.69394 4.8989081 376.6752 4.9061894 376.6582 4.9121094 C 376.6422 4.9181694 376.62442 4.9223344 376.60742 4.9277344 C 376.58942 4.9328544 376.57269 4.9385694 376.55469 4.9433594 C 376.53669 4.9481894 376.518 4.9529314 376.5 4.9570312 C 376.481 4.9608512 376.46236 4.96523 376.44336 4.96875 C 376.42436 4.97222 376.40572 4.9756956 376.38672 4.9785156 C 376.73672 5.301515 376.91134 5.5357985 377.52734 5.6738281 C 377.54634 5.6731681 377.42827 5.5654264 377.44727 5.5664062 C 377.46627 5.5673262 377.48786 5.5681694 377.50586 5.5683594 C 377.52586 5.5690294 377.54255 5.5687594 377.56055 5.5683594 C 377.57955 5.5677694 377.59919 5.5656331 377.61719 5.5644531 C 377.63619 5.5636131 377.65388 5.5624269 377.67188 5.5605469 C 377.68986 5.5585269 377.70661 5.5551144 377.72461 5.5527344 C 377.74261 5.5504944 377.75934 5.549875 377.77734 5.546875 C 377.79434 5.543415 377.81308 5.5388262 377.83008 5.5351562 C 377.84708 5.5314864 377.86581 5.5275875 377.88281 5.5234375 C 377.89981 5.5195775 377.91659 5.5144356 377.93359 5.5097656 C 377.94959 5.5048256 377.96542 5.5013536 377.98242 5.4960938 C 377.99942 5.4909738 378.01425 5.4862286 378.03125 5.4804688 C 378.04725 5.4751788 378.06408 5.4690806 378.08008 5.4628906 C 378.09608 5.4560906 378.11486 5.4499794 378.13086 5.4433594 C 378.16286 5.4301794 378.19261 5.4152206 378.22461 5.4003906 C 378.25561 5.3853606 378.28836 5.3698656 378.31836 5.3535156 C 378.34936 5.3370356 378.38016 5.3202044 378.41016 5.3027344 C 378.44016 5.2848044 378.47 5.2685 378.5 5.25 C 378.53 5.23169 378.56084 5.2126494 378.58984 5.1933594 C 378.61984 5.1738794 378.64873 5.1528025 378.67773 5.1328125 C 378.70773 5.1130825 378.73564 5.0927656 378.76562 5.0722656 C 378.82362 5.0312658 378.88145 4.9909586 378.93945 4.9492188 C 378.99745 4.9074088 379.05528 4.8651486 379.11328 4.8242188 C 379.14328 4.8043288 379.17022 4.7837319 379.19922 4.7636719 C 379.22922 4.7439519 379.28541 4.750745 379.31641 4.734375 C 379.34741 4.717855 379.37816 4.7009769 379.41016 4.6855469 C 379.44116 4.6702669 379.47386 4.655045 379.50586 4.640625 C 379.53786 4.625685 379.56856 4.6127494 379.60156 4.5996094 C 379.63356 4.5861894 379.66622 4.5742 379.69922 4.5625 C 379.73122 4.55058 379.76583 4.5392769 379.79883 4.5292969 C 379.81483 4.5238869 379.83066 4.520215 379.84766 4.515625 C 379.86366 4.510375 379.88144 4.5060131 379.89844 4.5019531 C 379.91644 4.4983331 379.93222 4.4938444 379.94922 4.4902344 C 379.96722 4.4867744 379.98495 4.4836186 380.00195 4.4804688 C 380.01895 4.4771788 380.03473 4.4751862 380.05273 4.4726562 C 380.06973 4.4705064 380.08847 4.4686169 380.10547 4.4667969 C 380.12347 4.4648269 380.1412 4.4622775 380.1582 4.4609375 C 380.1762 4.4591575 380.25153 4.5266738 380.26953 4.5273438 C 380.28753 4.5281636 380.30427 4.53 380.32227 4.53125 C 380.34027 4.53227 380.35895 4.5331564 380.37695 4.5351562 C 380.39495 4.5374762 380.41459 4.5402988 380.43359 4.5429688 C 380.45159 4.5454886 380.46928 4.5473414 380.48828 4.5507812 C 380.50728 4.5546912 380.52592 4.55836 380.54492 4.5625 C 380.56392 4.56671 380.58061 4.5711719 380.59961 4.5761719 C 380.44061 4.0794629 379.74784 3.3705384 379.21484 3.2304688 z M 366.23828 3.8417969 C 365.73628 3.9852265 365.24723 4.4259535 364.99023 4.9140625 C 364.98723 4.9331825 364.98347 4.9517431 364.98047 4.9707031 C 364.97747 4.9895931 364.9737 5.0086838 364.9707 5.0273438 C 364.9687 5.0464836 364.9688 5.0635214 364.9668 5.0820312 C 364.9658 5.1004012 364.96389 5.1203419 364.96289 5.1386719 C 364.96189 5.1572819 364.96289 5.1733864 364.96289 5.1914062 L 364.96289 5.2460938 C 364.96289 5.2642036 364.96384 5.2830114 364.96484 5.3007812 C 364.96684 5.3180712 364.96775 5.3360156 364.96875 5.3535156 C 364.97075 5.3710056 364.97261 5.38884 364.97461 5.40625 C 364.97661 5.42394 364.97942 5.4397714 364.98242 5.4570312 C 364.98542 5.4740212 364.98819 5.4907825 364.99219 5.5078125 C 364.99519 5.5249825 364.99795 5.5417238 365.00195 5.5585938 C 365.00595 5.5759436 365.01064 5.5945781 365.01562 5.6113281 C 365.02062 5.6274681 365.0243 5.6434464 365.0293 5.6601562 C 365.0383 5.6935062 365.04955 5.7269458 365.06055 5.7597656 C 365.07255 5.7923756 365.08466 5.8251319 365.09766 5.8574219 C 365.11066 5.8895917 365.12272 5.9230283 365.13672 5.9550781 C 365.13796 5.9576856 365.13941 5.9602792 365.14062 5.9628906 L 366.98633 7.1171875 C 366.98766 7.1144544 366.98891 7.1121241 366.99023 7.109375 C 366.99323 7.090275 366.99895 7.0716944 367.00195 7.0527344 C 367.00495 7.0338444 367.00677 7.0147636 367.00977 6.9960938 C 367.01177 6.9769438 367.01364 6.9580231 367.01562 6.9394531 C 367.01662 6.9210831 367.01658 6.9030256 367.01758 6.8847656 C 367.01858 6.8661556 367.01953 6.8480881 367.01953 6.8300781 L 367.01953 6.7753906 C 367.01953 6.7572906 367.01858 6.7404162 367.01758 6.7226562 C 367.01558 6.7053664 367.01467 6.6874219 367.01367 6.6699219 C 367.01167 6.6524319 367.00786 6.6346075 367.00586 6.6171875 C 367.00386 6.5994975 367.00105 6.5817131 366.99805 6.5644531 C 366.99505 6.5474531 366.99228 6.5307119 366.98828 6.5136719 C 366.98528 6.4965019 366.98252 6.4797606 366.97852 6.4628906 C 366.97452 6.4455506 366.9718 6.4288594 366.9668 6.4121094 C 366.9618 6.3959694 366.95617 6.3779581 366.95117 6.3613281 C 366.94217 6.3279783 366.93286 6.2945386 366.92188 6.2617188 C 366.90988 6.2291088 366.89777 6.1963525 366.88477 6.1640625 C 366.87177 6.1319025 366.85775 6.1004092 366.84375 6.0683594 C 366.82875 6.0367894 366.81578 6.0043862 366.80078 5.9726562 C 366.78578 5.9407164 366.76991 5.9085131 366.75391 5.8769531 C 366.73791 5.8456033 366.71912 5.8145131 366.70312 5.7832031 C 366.68614 5.7516233 366.66934 5.7205931 366.65234 5.6894531 C 366.61834 5.6271833 366.58383 5.5659762 366.54883 5.5039062 C 366.51383 5.4419064 366.47736 5.3787462 366.44336 5.3164062 C 366.42636 5.2846564 366.40958 5.2538962 366.39258 5.2226562 C 366.37658 5.1910664 366.35975 5.1603962 366.34375 5.1289062 C 366.32775 5.0975564 366.31186 5.0669562 366.29688 5.0351562 C 366.28188 5.0032164 366.26595 4.9715031 366.25195 4.9394531 C 366.23695 4.9078833 366.22589 4.8742267 366.21289 4.8417969 C 366.19989 4.8096369 366.18778 4.7769706 366.17578 4.7441406 C 366.16478 4.7115308 366.15353 4.6778712 366.14453 4.6445312 C 366.13953 4.6282314 366.13486 4.6124631 366.13086 4.5957031 C 366.12586 4.5795731 366.19341 4.5035481 366.19141 4.4863281 C 366.18941 4.4687381 366.18755 4.4508736 366.18555 4.4335938 C 366.18355 4.4161938 366.18264 4.4001525 366.18164 4.3828125 C 366.17964 4.3656025 366.17873 4.3475781 366.17773 4.3300781 C 366.17673 4.3122881 366.17578 4.2950536 366.17578 4.2773438 C 366.17578 4.2597638 366.17673 4.2423394 366.17773 4.2246094 C 366.17773 4.2072494 366.17769 4.189795 366.17969 4.171875 C 366.18069 4.153815 366.18159 4.1351775 366.18359 4.1171875 C 366.18559 4.0993775 366.18745 4.08068 366.18945 4.0625 C 366.19245 4.04409 366.19622 4.0260925 366.19922 4.0078125 C 366.20222 3.9896425 366.20498 3.971565 366.20898 3.953125 C 366.21398 3.934315 366.21766 3.9150144 366.22266 3.8964844 C 366.22766 3.8778944 366.23228 3.8605269 366.23828 3.8417969 z M 379.92578 4.6679688 C 379.89278 4.6779486 379.86012 4.6875288 379.82812 4.6992188 C 379.79514 4.7111386 379.76247 4.7250014 379.73047 4.7382812 C 379.69847 4.7517112 379.66577 4.7648769 379.63477 4.7792969 C 379.60277 4.7942369 379.57006 4.8087088 379.53906 4.8242188 C 379.50706 4.8394986 379.47536 4.8547938 379.44336 4.8710938 C 379.41236 4.8876236 379.38256 4.904765 379.35156 4.921875 C 379.31956 4.938625 379.28881 4.9550964 379.25781 4.9726562 C 379.19581 5.0078562 379.13427 5.0441783 379.07227 5.0800781 C 379.01127 5.1160481 378.94772 5.1523 378.88672 5.1875 C 378.85472 5.2044 378.82592 5.2211714 378.79492 5.2382812 C 378.76292 5.2550212 378.73122 5.2727625 378.69922 5.2890625 C 378.66822 5.3055925 378.67062 5.3545369 378.64062 5.3730469 C 378.61064 5.3913569 378.58078 5.4102744 378.55078 5.4277344 C 378.52078 5.4456644 378.48998 5.4622956 378.45898 5.4785156 C 378.42898 5.4949956 378.39623 5.5105606 378.36523 5.5253906 C 378.33323 5.5404206 378.30348 5.5551794 378.27148 5.5683594 C 378.25548 5.5753194 378.23966 5.5797375 378.22266 5.5859375 C 378.20766 5.5927375 378.18983 5.5996988 378.17383 5.6054688 C 378.15683 5.6107586 378.13905 5.6158438 378.12305 5.6210938 C 378.10605 5.6262136 378.09022 5.6299656 378.07422 5.6347656 C 378.05722 5.6397056 378.04044 5.6442275 378.02344 5.6484375 C 378.00544 5.6522975 377.9887 5.6566164 377.9707 5.6601562 C 377.9537 5.6638262 377.93792 5.6668619 377.91992 5.6699219 C 377.90292 5.6733819 377.88323 5.6753644 377.86523 5.6777344 C 377.84723 5.6799844 377.8305 5.6837369 377.8125 5.6855469 C 377.7955 5.6875569 377.77681 5.6882131 377.75781 5.6894531 C 377.73981 5.6902931 377.72017 5.6908664 377.70117 5.6914062 C 377.68317 5.6920062 377.66548 5.6936194 377.64648 5.6933594 C 377.62748 5.6926994 377.60984 5.6923262 377.58984 5.6914062 C 377.57084 5.6904264 377.55025 5.6872769 377.53125 5.6855469 C 377.79725 6.0805961 377.80894 6.16003 378.33594 6.5058594 C 378.35494 6.5120794 378.37264 6.5179175 378.39062 6.5234375 C 378.40962 6.5288675 378.42731 6.5344125 378.44531 6.5390625 C 378.46431 6.5443025 378.48395 6.5467314 378.50195 6.5507812 C 378.51995 6.5545712 378.53864 6.5593 378.55664 6.5625 C 378.57464 6.56611 378.59138 6.5678825 378.60938 6.5703125 C 378.62736 6.5725825 378.64511 6.5742419 378.66211 6.5761719 C 378.68011 6.5782619 378.6998 6.5807714 378.7168 6.5820312 C 378.7348 6.5827112 378.75253 6.5834544 378.76953 6.5839844 C 378.78753 6.5845044 378.7623 6.5202544 378.7793 6.5214844 C 378.7973 6.5230744 378.81403 6.5227675 378.83203 6.5234375 C 378.84903 6.5237575 378.86581 6.5253706 378.88281 6.5253906 C 378.90081 6.5255906 378.91855 6.5259206 378.93555 6.5253906 C 378.95355 6.5254706 378.97128 6.5244375 378.98828 6.5234375 C 379.00528 6.5216575 379.02206 6.5209812 379.03906 6.5195312 C 379.07406 6.5167114 379.10858 6.5124225 379.14258 6.5078125 C 379.17758 6.5029425 379.21209 6.4984475 379.24609 6.4921875 C 379.28009 6.4857475 379.31461 6.4781431 379.34961 6.4707031 C 379.38361 6.4626531 379.41717 6.4558256 379.45117 6.4472656 C 379.48517 6.4389556 379.52069 6.4293119 379.55469 6.4199219 C 379.58869 6.4102819 379.62225 6.400785 379.65625 6.390625 C 379.69025 6.380815 379.72381 6.370085 379.75781 6.359375 C 379.82581 6.337955 379.88998 6.3126119 379.95898 6.2949219 C 380.02798 6.2771419 380.09897 6.2589975 380.16797 6.2421875 C 380.20297 6.2345575 380.23553 6.22673 380.26953 6.21875 C 380.30453 6.21122 380.33805 6.2025125 380.37305 6.1953125 C 380.40805 6.1879325 380.44352 6.1819912 380.47852 6.1757812 C 380.51352 6.1697614 380.54608 6.1633731 380.58008 6.1582031 C 380.61508 6.1524131 380.65155 6.1483412 380.68555 6.1445312 C 380.72055 6.1403514 380.75406 6.1370956 380.78906 6.1347656 C 380.82306 6.1321656 380.85858 6.1313894 380.89258 6.1308594 C 380.90958 6.1300894 380.92831 6.1287664 380.94531 6.1289062 C 380.96231 6.1282464 380.98105 6.1301594 380.99805 6.1308594 C 381.01605 6.1320994 381.06014 6.1930525 381.07812 6.1953125 C 381.09512 6.1977625 381.11191 6.200395 381.12891 6.203125 C 381.14591 6.205675 381.16464 6.2075475 381.18164 6.2109375 C 381.19864 6.2148075 381.21542 6.2185064 381.23242 6.2226562 C 381.24942 6.2266262 381.26716 6.2316981 381.28516 6.2363281 C 381.30116 6.2404081 381.31894 6.2446 381.33594 6.25 C 381.35394 6.25559 381.36972 6.2615881 381.38672 6.2675781 C 381.40372 6.2732781 381.4205 6.2803494 381.4375 6.2871094 C 381.4545 6.2942494 381.47323 6.3011438 381.49023 6.3085938 C 381.50723 6.3158536 381.52402 6.3218381 381.54102 6.3300781 C 381.55802 6.3388681 381.5748 6.3484919 381.5918 6.3574219 C 381.6088 6.3664519 381.67345 6.4984656 381.68945 6.5097656 C 381.71345 5.9888666 381.22734 5.1294363 380.77734 4.8105469 C 380.75834 4.8043369 380.74066 4.7984886 380.72266 4.7929688 C 380.70366 4.7875288 380.62447 4.7006356 380.60547 4.6972656 C 380.58647 4.6933456 380.56878 4.6921231 380.55078 4.6894531 C 380.53278 4.6869331 380.51214 4.6836506 380.49414 4.6816406 C 380.47614 4.6793306 380.45941 4.6789044 380.44141 4.6777344 C 380.42341 4.6767144 380.40472 4.6764512 380.38672 4.6757812 C 380.36872 4.6749614 380.35098 4.6738381 380.33398 4.6738281 C 380.31598 4.6743581 380.2973 4.6750714 380.2793 4.6757812 C 380.2623 4.6764912 380.24456 4.6765344 380.22656 4.6777344 C 380.20956 4.6786144 380.19278 4.6798906 380.17578 4.6816406 C 380.15878 4.6837106 380.14005 4.6870731 380.12305 4.6894531 C 380.10605 4.6916731 380.08927 4.6923825 380.07227 4.6953125 C 380.05527 4.6976825 380.03653 4.7016981 380.01953 4.7050781 C 380.00353 4.7091581 379.94278 4.6630088 379.92578 4.6679688 z M 380.66797 6.3242188 C 380.63397 6.3300186 380.59845 6.3355069 380.56445 6.3417969 C 380.52945 6.3478269 380.49494 6.3561614 380.46094 6.3632812 C 380.42594 6.3706612 380.39047 6.3767856 380.35547 6.3847656 C 380.32047 6.3922956 380.28791 6.4017064 380.25391 6.4101562 C 380.18491 6.4271362 380.11392 6.4452006 380.04492 6.4628906 C 379.97592 6.4806706 379.90689 6.4966919 379.83789 6.5136719 C 379.80289 6.5213019 379.76836 6.5310825 379.73438 6.5390625 C 379.69938 6.5465925 379.66486 6.55539 379.63086 6.5625 C 379.59586 6.56989 379.56039 6.5757414 379.52539 6.5820312 C 379.49039 6.5880612 379.45686 6.5944494 379.42188 6.5996094 C 379.38788 6.6054094 379.35236 6.6094714 379.31836 6.6132812 C 379.28336 6.6174612 379.27423 6.6653119 379.24023 6.6699219 C 379.20623 6.6747919 379.17072 6.6768775 379.13672 6.6796875 C 379.11972 6.6815775 379.10294 6.6825938 379.08594 6.6835938 C 379.06894 6.6853736 379.04825 6.6850169 379.03125 6.6855469 C 379.01325 6.6854669 378.99747 6.6855669 378.98047 6.6855469 C 378.96247 6.6853569 378.94573 6.6860369 378.92773 6.6855469 C 378.91073 6.6852269 378.89395 6.6827906 378.87695 6.6816406 C 378.85895 6.6800506 378.84027 6.6796244 378.82227 6.6777344 C 378.80427 6.6760144 378.78753 6.674255 378.76953 6.671875 C 378.75253 6.670005 378.73575 6.6672125 378.71875 6.6640625 C 378.70075 6.6607525 378.68206 6.6560736 378.66406 6.6523438 C 378.64706 6.6488738 378.62933 6.644955 378.61133 6.640625 C 378.59333 6.635775 378.57464 6.6320631 378.55664 6.6269531 C 378.53864 6.6219331 378.57269 6.6980894 378.55469 6.6933594 C 378.53569 6.6881194 378.51605 6.6831644 378.49805 6.6777344 C 378.47905 6.6722144 378.46136 6.6664662 378.44336 6.6601562 C 378.60736 7.1072854 378.51973 7.1399546 378.92773 7.6210938 C 378.94373 7.6322936 378.96056 7.6437869 378.97656 7.6542969 C 378.99256 7.6647069 379.00744 7.6759269 379.02344 7.6855469 C 379.03944 7.6958569 379.05527 7.7038506 379.07227 7.7128906 C 379.08827 7.7216406 379.10509 7.7301114 379.12109 7.7382812 C 379.13809 7.7469312 379.15588 7.7543288 379.17188 7.7617188 C 379.18886 7.7689286 379.2047 7.7762931 379.2207 7.7832031 C 379.2377 7.7903131 379.25448 7.7964844 379.27148 7.8027344 C 379.28748 7.8083144 379.30331 7.8148225 379.32031 7.8203125 C 379.33631 7.8257925 379.35409 7.8309175 379.37109 7.8359375 C 379.38809 7.8413375 379.40488 7.8451494 379.42188 7.8496094 C 379.43886 7.8536794 379.45566 7.8594814 379.47266 7.8632812 C 379.48966 7.8672712 379.50644 7.8698069 379.52344 7.8730469 C 379.54044 7.8769669 379.55722 7.8800225 379.57422 7.8828125 C 379.59122 7.8847425 379.60895 7.888285 379.62695 7.890625 C 379.66095 7.895395 379.69547 7.8993538 379.73047 7.9023438 C 379.76447 7.9050536 379.79898 7.9088164 379.83398 7.9101562 C 379.86898 7.9112962 379.90445 7.9119294 379.93945 7.9121094 C 379.97445 7.9116194 379.99234 7.8525188 380.02734 7.8554688 C 380.06234 7.8587186 380.09681 7.8611114 380.13281 7.8632812 C 380.16781 7.8651512 380.20328 7.8677206 380.23828 7.8691406 C 380.27428 7.8709406 380.3097 7.8702238 380.3457 7.8710938 C 380.4167 7.8728236 380.48759 7.87403 380.55859 7.875 C 380.63059 7.87586 380.70144 7.8770764 380.77344 7.8789062 C 380.80844 7.8806762 380.84486 7.8815025 380.88086 7.8828125 C 380.91586 7.8846225 380.95133 7.8846388 380.98633 7.8867188 C 381.02133 7.8885886 381.0568 7.8914814 381.0918 7.8945312 C 381.1268 7.8977812 381.16031 7.9022 381.19531 7.90625 C 381.22931 7.9096 381.26483 7.9145619 381.29883 7.9199219 C 381.33383 7.9248919 381.36834 7.93071 381.40234 7.9375 C 381.43634 7.944 381.46991 7.9523975 381.50391 7.9609375 C 381.52091 7.9646575 381.53769 7.9699494 381.55469 7.9746094 C 381.57169 7.9783794 381.58847 7.9830714 381.60547 7.9882812 C 381.62147 7.9940812 381.6383 8.0002194 381.6543 8.0058594 C 381.6713 8.0117094 381.68517 8.0173375 381.70117 8.0234375 C 381.71817 8.0293375 381.73595 8.0362188 381.75195 8.0429688 C 381.76795 8.0502086 381.78478 8.0569631 381.80078 8.0644531 C 381.81678 8.0717531 381.83166 8.0799406 381.84766 8.0878906 C 381.86366 8.0952406 381.87853 8.1026181 381.89453 8.1113281 C 381.91053 8.1202281 381.92541 8.1294019 381.94141 8.1386719 C 381.95641 8.1476319 381.97328 8.1579488 381.98828 8.1679688 C 382.00328 8.1783986 382.02016 8.1885288 382.03516 8.1992188 C 382.05016 8.2097086 382.06508 8.2209719 382.08008 8.2324219 C 382.09508 8.2444719 382.13053 8.3966164 382.14453 8.4101562 C 382.15753 8.4237962 382.17155 8.438745 382.18555 8.453125 C 382.31855 7.948836 382.08905 7.1228023 381.74805 6.6894531 C 381.73205 6.6782631 381.71522 6.66676 381.69922 6.65625 C 381.68322 6.64584 381.66834 6.63463 381.65234 6.625 C 381.63634 6.61469 381.61952 6.6065962 381.60352 6.5976562 C 381.58752 6.5889064 381.56973 6.5805256 381.55273 6.5722656 C 381.53673 6.5636156 381.47989 6.4472962 381.46289 6.4414062 C 381.44589 6.4356964 381.42816 6.4292281 381.41016 6.4238281 C 381.39316 6.4182381 381.37636 6.4129331 381.35938 6.4082031 C 381.34238 6.4041231 381.32559 6.3985012 381.30859 6.3945312 C 381.29159 6.3905614 381.27286 6.3882456 381.25586 6.3847656 C 381.23886 6.3808956 381.22112 6.37792 381.20312 6.375 C 381.18614 6.37245 381.17034 6.3694475 381.15234 6.3671875 C 381.13534 6.3647375 381.11856 6.3630281 381.10156 6.3613281 C 381.08356 6.3589781 381.06583 6.3567186 381.04883 6.3554688 C 381.03183 6.3550588 381.01309 6.3543956 380.99609 6.3535156 C 380.96109 6.3518356 380.92758 6.3494794 380.89258 6.3496094 C 380.85858 6.3500094 380.82211 6.3517256 380.78711 6.3535156 C 380.75311 6.3554956 380.70297 6.3190588 380.66797 6.3242188 z M 378.98633 7.8007812 C 379.01733 8.2760104 378.95395 8.4069618 379.25195 8.9628906 C 379.26495 8.9771706 379.27897 8.9902664 379.29297 9.0039062 C 379.30597 9.0174462 379.31903 9.0321319 379.33203 9.0449219 C 379.34603 9.0584219 379.35905 9.0697814 379.37305 9.0820312 C 379.38705 9.0939812 379.40297 9.1057775 379.41797 9.1171875 C 379.43197 9.1291075 379.44594 9.1397206 379.46094 9.1503906 C 379.47494 9.1608606 379.49086 9.1714106 379.50586 9.1816406 C 379.52086 9.1920806 379.53383 9.2013375 379.54883 9.2109375 C 379.56383 9.2198375 379.57875 9.2294214 379.59375 9.2382812 C 379.60975 9.2471412 379.62464 9.257195 379.64062 9.265625 C 379.65562 9.274455 379.6725 9.2811625 379.6875 9.2890625 C 379.7035 9.2965625 379.71838 9.30523 379.73438 9.3125 C 379.74936 9.31996 379.76525 9.3272544 379.78125 9.3339844 C 379.79725 9.3414344 379.81408 9.3472056 379.83008 9.3535156 C 379.84608 9.3589156 379.86191 9.3652138 379.87891 9.3710938 C 379.91091 9.3829636 379.94356 9.3941269 379.97656 9.4042969 C 380.00956 9.4141669 380.04414 9.4250138 380.07812 9.4335938 C 380.11212 9.4419736 380.14278 9.3917638 380.17578 9.4023438 C 380.20878 9.4122136 380.24139 9.4220806 380.27539 9.4316406 C 380.30839 9.4415106 380.34391 9.4501444 380.37891 9.4589844 C 380.41291 9.4675244 380.44647 9.476255 380.48047 9.484375 C 380.51547 9.492905 380.55094 9.5001925 380.58594 9.5078125 C 380.65494 9.5230425 380.72492 9.5382244 380.79492 9.5527344 C 380.86492 9.5671444 380.93391 9.5803631 381.00391 9.5957031 C 381.03891 9.6042231 381.07342 9.6130638 381.10742 9.6210938 C 381.14242 9.6296236 381.17594 9.6357914 381.21094 9.6445312 C 381.24494 9.6530712 381.2785 9.662205 381.3125 9.671875 C 381.3465 9.681735 381.37911 9.692545 381.41211 9.703125 C 381.44611 9.712995 381.48067 9.7245081 381.51367 9.7363281 C 381.54567 9.7477281 381.57738 9.7602975 381.60938 9.7734375 C 381.64236 9.7862775 381.67308 9.7996731 381.70508 9.8144531 C 381.72008 9.8212831 381.73695 9.8301406 381.75195 9.8378906 C 381.76795 9.8447206 381.78383 9.8550214 381.79883 9.8632812 C 381.81383 9.8721512 381.8307 9.8799919 381.8457 9.8886719 C 381.8607 9.8975419 381.87367 9.9049825 381.88867 9.9140625 C 381.90267 9.9229425 381.91859 9.9336694 381.93359 9.9433594 C 381.94759 9.9535594 381.96156 9.9622464 381.97656 9.9726562 C 381.99056 9.9828662 382.00553 9.9931066 382.01953 10.003906 C 382.03353 10.014106 382.04655 10.027564 382.06055 10.039062 C 382.07355 10.050862 382.08756 10.062219 382.10156 10.074219 C 382.11456 10.086019 382.12858 10.098528 382.14258 10.111328 C 382.15558 10.124528 382.16964 10.136991 382.18164 10.150391 C 382.19464 10.163591 382.2077 10.177306 382.2207 10.191406 C 382.2327 10.206106 382.24291 10.339769 382.25391 10.355469 C 382.26491 10.371269 382.2732 10.385844 382.2832 10.402344 C 382.5022 9.9286744 382.44808 9.135854 382.20508 8.640625 C 382.19208 8.626345 382.17806 8.6112962 382.16406 8.5976562 C 382.15106 8.5841164 382.13705 8.5713936 382.12305 8.5585938 C 382.11005 8.5450938 382.09603 8.5336344 382.08203 8.5214844 C 382.06703 8.5095244 382.05406 8.4978381 382.03906 8.4863281 C 382.02506 8.4744081 382.01109 8.463795 381.99609 8.453125 C 381.98209 8.442655 381.96617 8.432115 381.95117 8.421875 C 381.93617 8.411445 381.90272 8.2795344 381.88672 8.2714844 C 381.87072 8.2641244 381.85584 8.2553369 381.83984 8.2480469 C 381.82384 8.2407469 381.80506 8.2353656 381.78906 8.2285156 C 381.77306 8.2212756 381.75723 8.2133212 381.74023 8.2070312 C 381.72423 8.2011314 381.71036 8.1951031 381.69336 8.1894531 C 381.67736 8.1836031 381.66053 8.1789381 381.64453 8.1738281 C 381.62753 8.1680281 381.61075 8.1628631 381.59375 8.1582031 C 381.57775 8.1544331 381.55997 8.1488512 381.54297 8.1445312 C 381.50897 8.1359914 381.47541 8.1278936 381.44141 8.1210938 C 381.40741 8.1146038 381.37289 8.1086756 381.33789 8.1035156 C 381.30389 8.0985556 381.26836 8.0938936 381.23438 8.0898438 C 381.19938 8.0864938 381.16586 8.0830281 381.13086 8.0800781 C 381.09586 8.0768281 381.06039 8.0744456 381.02539 8.0722656 C 380.99039 8.0703956 380.95492 8.0677162 380.91992 8.0664062 C 380.88392 8.0645964 380.8475 8.06337 380.8125 8.0625 C 380.7405 8.06087 380.66966 8.0615069 380.59766 8.0605469 C 380.52666 8.0596769 380.45577 8.0582706 380.38477 8.0566406 C 380.34877 8.0548806 380.31234 8.0540544 380.27734 8.0527344 C 380.24134 8.0509344 380.20686 8.049045 380.17188 8.046875 C 380.13588 8.044995 380.10141 8.0420125 380.06641 8.0390625 C 380.03141 8.0358125 379.99789 8.0333369 379.96289 8.0292969 C 379.92789 8.0259369 379.89242 8.020985 379.85742 8.015625 C 379.82342 8.010655 379.78986 8.0048369 379.75586 7.9980469 C 379.72186 7.9915469 379.6873 7.9831494 379.6543 7.9746094 C 379.6373 7.9708894 379.62052 7.9655975 379.60352 7.9609375 C 379.58752 7.9571675 379.56873 7.9504125 379.55273 7.9453125 C 379.53573 7.9395125 379.54825 8.0448156 379.53125 8.0410156 C 379.51425 8.0370256 379.49747 8.0335569 379.48047 8.0292969 C 379.46347 8.0252269 379.44864 8.020545 379.43164 8.015625 C 379.41464 8.010225 379.39786 8.00568 379.38086 8 C 379.36386 7.99451 379.34608 7.9885819 379.33008 7.9824219 C 379.31308 7.9768519 379.2963 7.9698006 379.2793 7.9628906 C 379.2633 7.9557806 379.24747 7.9488962 379.23047 7.9414062 C 379.21447 7.9341964 379.19764 7.9260386 379.18164 7.9179688 C 379.16464 7.9093188 379.14881 7.899475 379.13281 7.890625 C 379.11681 7.881875 379.09803 7.8730012 379.08203 7.8632812 C 379.06603 7.8529814 379.05116 7.8443944 379.03516 7.8339844 C 379.01916 7.8234844 379.00233 7.8120712 378.98633 7.8007812 z M 379.27148 9.1503906 C 379.20248 9.6216398 379.10964 9.797236 379.30664 10.396484 C 379.31764 10.412884 379.32884 10.429514 379.33984 10.445312 C 379.35084 10.460912 379.36009 10.475234 379.37109 10.490234 C 379.38309 10.505934 379.39525 10.520656 379.40625 10.535156 C 379.41825 10.549356 379.43136 10.564425 379.44336 10.578125 C 379.45536 10.592325 379.46847 10.604088 379.48047 10.617188 C 379.49347 10.629986 379.50653 10.64355 379.51953 10.65625 C 379.53153 10.66905 379.54364 10.681259 379.55664 10.693359 C 379.56964 10.704659 379.58366 10.717116 379.59766 10.728516 C 379.61066 10.739816 379.62467 10.750719 379.63867 10.761719 C 379.65267 10.773119 379.66569 10.782569 379.67969 10.792969 C 379.69369 10.803069 379.7067 10.814319 379.7207 10.824219 C 379.7357 10.834319 379.74967 10.844116 379.76367 10.853516 C 379.77867 10.863716 379.79359 10.873814 379.80859 10.882812 C 379.82359 10.890912 379.83852 10.899503 379.85352 10.908203 C 379.88352 10.925503 379.91431 10.941231 379.94531 10.957031 C 379.97631 10.972531 380.00806 10.989606 380.03906 11.003906 C 380.07106 11.018006 380.10372 11.031622 380.13672 11.044922 C 380.16872 11.057522 380.19942 11.069631 380.23242 11.082031 C 380.26542 11.094631 380.30198 11.073691 380.33398 11.087891 C 380.36698 11.101791 380.40059 11.115406 380.43359 11.128906 C 380.46559 11.142806 380.49825 11.154969 380.53125 11.167969 C 380.59725 11.194169 380.66347 11.220694 380.73047 11.246094 C 380.79747 11.271494 380.86564 11.296066 380.93164 11.322266 C 380.96464 11.336266 380.9963 11.349881 381.0293 11.363281 C 381.0623 11.377181 381.09495 11.388244 381.12695 11.402344 C 381.15995 11.416244 381.19261 11.432366 381.22461 11.447266 C 381.25661 11.462366 381.28736 11.476388 381.31836 11.492188 C 381.35036 11.507186 381.37916 11.524116 381.41016 11.541016 C 381.44016 11.557516 381.47195 11.57565 381.50195 11.59375 C 381.53095 11.61155 381.56084 11.630791 381.58984 11.650391 C 381.60384 11.659691 381.61686 11.669588 381.63086 11.679688 C 381.64586 11.688986 381.65983 11.700338 381.67383 11.710938 C 381.68683 11.722036 381.70184 11.733141 381.71484 11.744141 C 381.72884 11.755241 381.73991 11.766044 381.75391 11.777344 C 381.76691 11.788444 381.77997 11.8006 381.79297 11.8125 C 381.80497 11.8249 381.81808 11.837109 381.83008 11.849609 C 381.84308 11.862009 381.85519 11.873719 381.86719 11.886719 C 381.88019 11.899019 381.8923 11.914134 381.9043 11.927734 C 381.9153 11.941534 381.92745 11.95475 381.93945 11.96875 C 381.95045 11.98255 381.96166 11.997019 381.97266 12.011719 C 381.98366 12.026819 381.99586 12.041441 382.00586 12.056641 C 382.01686 12.071741 382.02711 12.087616 382.03711 12.103516 C 382.04711 12.120016 382.05741 12.135844 382.06641 12.152344 C 382.07641 12.168844 382.08475 12.185925 382.09375 12.203125 C 382.34875 11.747725 382.42448 11.121695 382.27148 10.591797 C 382.26048 10.575397 382.25123 10.558769 382.24023 10.542969 C 382.22923 10.527269 382.21803 10.510994 382.20703 10.496094 C 382.19603 10.480394 382.18386 10.467525 382.17188 10.453125 C 382.15988 10.438925 382.14872 10.423956 382.13672 10.410156 C 382.12372 10.395856 382.11161 10.382141 382.09961 10.369141 C 382.08661 10.356341 382.07355 10.344631 382.06055 10.332031 C 382.04755 10.319131 382.03744 10.204259 382.02344 10.193359 C 382.00944 10.183159 381.99447 10.172309 381.98047 10.162109 C 381.96647 10.151909 381.94955 10.140659 381.93555 10.130859 C 381.92055 10.120659 381.90758 10.112816 381.89258 10.103516 C 381.87758 10.094616 381.86266 10.084772 381.84766 10.076172 C 381.83266 10.067272 381.81873 10.058881 381.80273 10.050781 C 381.78773 10.041881 381.77086 10.033091 381.75586 10.025391 C 381.73986 10.018591 381.72498 10.011306 381.70898 10.003906 C 381.67698 9.9890766 381.64528 9.9740875 381.61328 9.9609375 C 381.58128 9.9481075 381.54862 9.9354381 381.51562 9.9238281 C 381.48264 9.9124181 381.45097 9.901215 381.41797 9.890625 C 381.38397 9.880755 381.35041 9.8708881 381.31641 9.8613281 C 381.28241 9.8514581 381.24884 9.8428244 381.21484 9.8339844 C 381.18084 9.8254444 381.14533 9.8166236 381.11133 9.8085938 C 381.07633 9.8000638 381.04281 9.7927662 381.00781 9.7851562 C 380.93881 9.7700264 380.86686 9.7547544 380.79688 9.7402344 C 380.72788 9.7258244 380.65689 9.7104425 380.58789 9.6953125 C 380.55289 9.6867825 380.51936 9.679905 380.48438 9.671875 C 380.45038 9.663345 380.41486 9.6553344 380.38086 9.6464844 C 380.34686 9.6379544 380.3133 9.6287106 380.2793 9.6191406 C 380.2453 9.6092806 380.21173 9.6004336 380.17773 9.5898438 C 380.14473 9.5799738 380.11112 9.5684506 380.07812 9.5566406 C 380.04514 9.5452306 380.01247 9.5326712 379.98047 9.5195312 C 379.94847 9.5066914 379.91872 9.4913425 379.88672 9.4765625 C 379.87072 9.4697325 379.85584 9.4628281 379.83984 9.4550781 C 379.82484 9.4482481 379.80897 9.4378475 379.79297 9.4296875 C 379.77797 9.4208175 379.76109 9.4129669 379.74609 9.4042969 C 379.73109 9.3954169 379.72203 9.4842625 379.70703 9.4765625 C 379.69103 9.4690725 379.67616 9.4595019 379.66016 9.4511719 C 379.64516 9.4423419 379.63023 9.4348512 379.61523 9.4257812 C 379.60023 9.4169214 379.58336 9.4079275 379.56836 9.3984375 C 379.55336 9.3895375 379.54039 9.3793706 379.52539 9.3691406 C 379.51139 9.3587006 379.49547 9.3486606 379.48047 9.3378906 C 379.46647 9.3274206 379.4515 9.3159975 379.4375 9.3046875 C 379.4235 9.2927775 379.40853 9.2815912 379.39453 9.2695312 C 379.38053 9.2575814 379.36752 9.2453119 379.35352 9.2324219 C 379.33952 9.2189119 379.3255 9.2049362 379.3125 9.1914062 C 379.2985 9.1777664 379.28548 9.1647806 379.27148 9.1503906 z M 379.29492 10.583984 C 379.14492 11.036184 379.02877 11.237577 379.13477 11.859375 C 379.14277 11.877175 379.1502 11.894809 379.1582 11.912109 C 379.1672 11.929209 379.17655 11.946391 379.18555 11.962891 C 379.19355 11.980091 379.20289 11.995719 379.21289 12.011719 C 379.22189 12.027519 379.23219 12.045147 379.24219 12.060547 C 379.25219 12.076347 379.26244 12.088816 379.27344 12.103516 C 379.28344 12.118016 379.29369 12.134038 379.30469 12.148438 C 379.31469 12.163036 379.32689 12.177606 379.33789 12.191406 C 379.34889 12.204606 379.36009 12.217269 379.37109 12.230469 C 379.38309 12.243669 379.39425 12.256631 379.40625 12.269531 C 379.41825 12.282831 379.43136 12.296194 379.44336 12.308594 C 379.45636 12.320694 379.46847 12.33185 379.48047 12.34375 C 379.49347 12.35585 379.50458 12.369459 379.51758 12.380859 C 379.53058 12.393059 379.54559 12.402964 379.55859 12.414062 C 379.57259 12.424262 379.58561 12.436566 379.59961 12.447266 C 379.62661 12.468866 379.65264 12.489566 379.68164 12.509766 C 379.70964 12.529666 379.73858 12.549459 379.76758 12.568359 C 379.79758 12.586959 379.82742 12.607 379.85742 12.625 C 379.88742 12.6423 379.91727 12.658681 379.94727 12.675781 C 379.97827 12.693181 380.01002 12.710064 380.04102 12.726562 C 380.07302 12.742762 380.10572 12.759491 380.13672 12.775391 C 380.16872 12.791591 380.19847 12.806866 380.23047 12.822266 C 380.29547 12.853066 380.36178 12.883864 380.42578 12.914062 C 380.49078 12.944162 380.55128 12.982378 380.61328 13.017578 C 380.64428 13.035978 380.67408 13.052514 380.70508 13.070312 C 380.73508 13.088712 380.76688 13.1065 380.79688 13.125 C 380.82786 13.1433 380.85672 13.162341 380.88672 13.181641 C 380.91572 13.201041 380.94366 13.220234 380.97266 13.240234 C 381.00166 13.259534 381.03059 13.279881 381.05859 13.300781 C 381.08659 13.321381 381.11464 13.343134 381.14062 13.365234 C 381.16762 13.386934 381.19275 13.410194 381.21875 13.433594 C 381.23175 13.444794 381.24481 13.45685 381.25781 13.46875 C 381.27081 13.47995 381.28292 13.493359 381.29492 13.505859 C 381.30692 13.518859 381.31808 13.532222 381.33008 13.544922 C 381.34208 13.557922 381.35228 13.570884 381.36328 13.583984 C 381.37528 13.596884 381.38744 13.609447 381.39844 13.623047 C 381.40944 13.637147 381.42164 13.649864 381.43164 13.664062 C 381.44264 13.678062 381.45189 13.692531 381.46289 13.707031 C 381.47289 13.720931 381.48219 13.736853 381.49219 13.751953 C 381.50219 13.767253 381.51248 13.783328 381.52148 13.798828 C 381.53048 13.814028 381.53983 13.829603 381.54883 13.845703 C 381.55783 13.862203 381.56522 13.877931 381.57422 13.894531 C 381.58222 13.910931 381.59161 13.928114 381.59961 13.945312 C 381.60761 13.963012 381.61309 13.980347 381.62109 13.998047 C 381.62809 14.015747 381.63658 14.032481 381.64258 14.050781 C 381.95858 13.635283 382.11111 13.038986 382.03711 12.492188 C 382.02911 12.474388 382.02267 12.456753 382.01367 12.439453 C 382.00567 12.422353 381.99533 12.405172 381.98633 12.388672 C 381.97733 12.371472 381.96798 12.355844 381.95898 12.339844 C 381.94998 12.324044 381.95631 12.211966 381.94531 12.197266 C 381.93531 12.182166 381.92311 12.17015 381.91211 12.15625 C 381.90111 12.14245 381.88895 12.126881 381.87695 12.113281 C 381.86495 12.099481 381.8538 12.087219 381.8418 12.074219 C 381.8288 12.061919 381.81669 12.047456 381.80469 12.035156 C 381.79169 12.022756 381.77862 12.012 381.76562 12 C 381.75264 11.9876 381.73956 11.976344 381.72656 11.964844 C 381.71356 11.953744 381.7005 11.942541 381.6875 11.931641 C 381.6735 11.920441 381.66048 11.908936 381.64648 11.898438 C 381.63248 11.887238 381.61947 11.877286 381.60547 11.867188 C 381.59047 11.857888 381.5765 11.845736 381.5625 11.835938 C 381.5335 11.816338 381.50361 11.797297 381.47461 11.779297 C 381.44461 11.761497 381.41577 11.745116 381.38477 11.728516 C 381.35477 11.712016 381.32397 11.693434 381.29297 11.677734 C 381.26097 11.662634 381.22927 11.647612 381.19727 11.632812 C 381.16527 11.617714 381.13356 11.603944 381.10156 11.589844 C 381.06856 11.575944 381.03495 11.562228 381.00195 11.548828 C 380.96995 11.534928 380.9373 11.522866 380.9043 11.509766 C 380.8383 11.483766 380.77012 11.457041 380.70312 11.431641 C 380.63614 11.406241 380.56991 11.379516 380.50391 11.353516 C 380.47091 11.339516 380.43925 11.327853 380.40625 11.314453 C 380.37325 11.300553 380.34059 11.287536 380.30859 11.273438 C 380.27559 11.259538 380.24294 11.245269 380.21094 11.230469 C 380.17994 11.215369 380.14819 11.199394 380.11719 11.183594 C 380.08519 11.168594 380.05444 11.151666 380.02344 11.134766 C 379.99344 11.118366 379.96259 11.100131 379.93359 11.082031 C 379.90359 11.064231 379.8747 11.046944 379.8457 11.027344 C 379.8317 11.018044 379.81869 11.006194 379.80469 10.996094 C 379.79069 10.986794 379.76695 11.050416 379.75195 11.041016 C 379.73795 11.030916 379.72298 11.021619 379.70898 11.011719 C 379.69498 11.001619 379.68197 10.992622 379.66797 10.982422 C 379.65397 10.972322 379.64095 10.960119 379.62695 10.949219 C 379.61295 10.937919 379.59798 10.927516 379.58398 10.916016 C 379.57098 10.904616 379.55792 10.892859 379.54492 10.880859 C 379.53092 10.869559 379.51886 10.85635 379.50586 10.84375 C 379.49286 10.83095 379.48175 10.817786 379.46875 10.804688 C 379.45675 10.791788 379.44464 10.779225 379.43164 10.765625 C 379.41964 10.751425 379.40653 10.736956 379.39453 10.722656 C 379.38253 10.708456 379.37036 10.694786 379.35938 10.679688 C 379.34838 10.663988 379.33717 10.648512 379.32617 10.632812 C 379.31517 10.617014 379.30592 10.600484 379.29492 10.583984 z M 379.09375 12.044922 C 378.87875 12.46982 378.74458 12.680049 378.76758 13.310547 C 378.77258 13.329147 378.7762 13.348988 378.7832 13.367188 C 378.7892 13.385286 378.79573 13.402322 378.80273 13.419922 C 378.80873 13.438122 378.81722 13.455456 378.82422 13.472656 C 378.83122 13.489556 378.83966 13.506838 378.84766 13.523438 C 378.85566 13.540436 378.86309 13.556366 378.87109 13.572266 C 378.88009 13.588066 378.88748 13.603441 378.89648 13.619141 C 378.90548 13.635041 378.91483 13.650816 378.92383 13.666016 C 378.93383 13.680516 378.94117 13.696238 378.95117 13.710938 C 378.96117 13.725536 378.97242 13.739506 378.98242 13.753906 C 378.99242 13.768606 379.00367 13.782875 379.01367 13.796875 C 379.02467 13.810475 379.03392 13.824391 379.04492 13.837891 C 379.05592 13.851591 379.06714 13.863853 379.07812 13.876953 C 379.08912 13.890653 379.10128 13.905169 379.11328 13.917969 C 379.12528 13.929869 379.13644 13.942678 379.14844 13.955078 C 379.17244 13.980178 379.19766 14.005497 379.22266 14.029297 C 379.24866 14.052797 379.27478 14.075056 379.30078 14.097656 C 379.32778 14.120056 379.35386 14.144216 379.38086 14.166016 C 379.40886 14.187216 379.43684 14.207416 379.46484 14.228516 C 379.49384 14.249816 379.52178 14.270516 379.55078 14.291016 C 379.57978 14.311216 379.60867 14.331664 379.63867 14.351562 C 379.66767 14.371962 379.69656 14.390656 379.72656 14.410156 C 379.78556 14.449256 379.84625 14.488744 379.90625 14.527344 C 379.96625 14.565744 380.02594 14.605331 380.08594 14.644531 C 380.11494 14.664931 380.14383 14.683225 380.17383 14.703125 C 380.20283 14.723425 380.23372 14.743272 380.26172 14.763672 C 380.29072 14.783972 380.31966 14.804972 380.34766 14.826172 C 380.37566 14.847472 380.40269 14.866872 380.42969 14.888672 C 380.45769 14.909772 380.46719 14.973647 380.49219 14.998047 C 380.51719 15.022047 380.54241 15.048819 380.56641 15.074219 C 380.58941 15.099319 380.61372 15.123891 380.63672 15.150391 C 380.64772 15.163191 380.65892 15.177906 380.66992 15.191406 C 380.68092 15.204106 380.69117 15.218522 380.70117 15.232422 C 380.71117 15.246822 380.72142 15.261191 380.73242 15.275391 C 380.74242 15.289691 380.75077 15.303959 380.75977 15.318359 C 380.76977 15.332659 380.77906 15.346428 380.78906 15.361328 C 380.79806 15.376628 380.80741 15.392803 380.81641 15.408203 C 380.82541 15.423503 380.8328 15.437425 380.8418 15.453125 C 380.8498 15.468225 380.85723 15.485753 380.86523 15.501953 C 380.87323 15.518353 380.88167 15.534181 380.88867 15.550781 C 380.89567 15.567081 380.9012 15.584464 380.9082 15.601562 C 380.9142 15.619062 380.92173 15.636697 380.92773 15.654297 C 380.93473 15.671597 380.94031 15.689031 380.94531 15.707031 C 380.95131 15.725731 380.95789 15.743319 380.96289 15.761719 C 380.96789 15.780319 380.97061 15.799359 380.97461 15.818359 C 381.34161 15.447261 381.55859 14.875917 381.55859 14.324219 C 381.55359 14.305519 381.57636 14.195434 381.56836 14.177734 C 381.56136 14.160034 381.55486 14.1421 381.54688 14.125 C 381.53888 14.1073 381.52948 14.092772 381.52148 14.076172 C 381.51348 14.059772 381.50409 14.041491 381.49609 14.025391 C 381.48709 14.008891 381.47875 13.993916 381.46875 13.978516 C 381.45975 13.963316 381.44845 13.948694 381.43945 13.933594 C 381.42945 13.918294 381.42016 13.903272 381.41016 13.888672 C 381.40016 13.874772 381.38891 13.859603 381.37891 13.845703 C 381.36791 13.831703 381.3567 13.818286 381.3457 13.804688 C 381.3347 13.790588 381.3235 13.776872 381.3125 13.763672 C 381.3005 13.750772 381.28934 13.737409 381.27734 13.724609 C 381.26534 13.711709 381.25419 13.6998 381.24219 13.6875 C 381.23019 13.6745 381.21612 13.662391 381.20312 13.650391 C 381.19114 13.639291 381.17902 13.626934 381.16602 13.615234 C 381.14102 13.591834 381.11489 13.568975 381.08789 13.546875 C 381.06089 13.525175 381.03386 13.503222 381.00586 13.482422 C 380.97786 13.461822 380.94986 13.439922 380.92188 13.419922 C 380.89288 13.400622 380.86203 13.382381 380.83203 13.363281 C 380.80303 13.343781 380.77414 13.325141 380.74414 13.306641 C 380.71414 13.288341 380.68334 13.269853 380.65234 13.251953 C 380.62234 13.233653 380.59155 13.216819 380.56055 13.199219 C 380.49855 13.164219 380.43605 13.12825 380.37305 13.09375 C 380.31105 13.05935 380.24755 13.025234 380.18555 12.990234 C 380.15455 12.971734 380.12475 12.953347 380.09375 12.935547 C 380.06375 12.917147 380.03391 12.901412 380.00391 12.882812 C 379.97391 12.864514 379.94306 12.845372 379.91406 12.826172 C 379.88406 12.806772 379.85517 12.787578 379.82617 12.767578 C 379.79717 12.748278 379.75852 12.770953 379.72852 12.751953 C 379.69952 12.733353 379.67058 12.713559 379.64258 12.693359 C 379.61358 12.673559 379.58559 12.652459 379.55859 12.630859 C 379.54459 12.620659 379.53158 12.610709 379.51758 12.599609 C 379.50458 12.589409 379.49152 12.575853 379.47852 12.564453 C 379.46652 12.552253 379.45245 12.541197 379.43945 12.529297 C 379.42745 12.517197 379.41534 12.504386 379.40234 12.492188 C 379.39034 12.480088 379.37919 12.467878 379.36719 12.455078 C 379.35519 12.441878 379.34208 12.429516 379.33008 12.416016 C 379.31908 12.402816 379.30786 12.3888 379.29688 12.375 C 379.28588 12.3619 379.27562 12.346431 379.26562 12.332031 C 379.25464 12.317431 379.24242 12.303862 379.23242 12.289062 C 379.22142 12.274564 379.21117 12.259341 379.20117 12.244141 C 379.19117 12.228241 379.18283 12.211112 379.17383 12.195312 C 379.16383 12.179514 379.15353 12.165036 379.14453 12.148438 C 379.13653 12.131238 379.12619 12.114756 379.11719 12.097656 C 379.10919 12.080456 379.10175 12.062722 379.09375 12.044922 z M 378.70117 13.488281 C 378.46252 13.835205 378.24977 14.101471 378.19141 14.59375 L 380.89062 15.953125 C 380.88912 15.946688 380.88843 15.939913 380.88672 15.933594 C 380.88172 15.915094 380.87609 15.896806 380.87109 15.878906 C 380.86609 15.860306 380.85952 15.843672 380.85352 15.826172 C 380.84752 15.808772 380.83903 15.790536 380.83203 15.773438 C 380.82603 15.755938 380.8195 15.741109 380.8125 15.724609 C 380.8055 15.708309 380.79606 15.690128 380.78906 15.673828 C 380.78106 15.657428 380.77362 15.642753 380.76562 15.626953 C 380.75764 15.611853 380.74823 15.595278 380.74023 15.580078 C 380.73123 15.564778 380.72189 15.550156 380.71289 15.535156 C 380.70389 15.519756 380.69555 15.504834 380.68555 15.490234 C 380.67555 15.475934 380.66625 15.461466 380.65625 15.447266 C 380.64625 15.432966 380.636 15.42005 380.625 15.40625 C 380.615 15.39185 380.60475 15.376881 380.59375 15.363281 C 380.58275 15.350681 380.57155 15.335566 380.56055 15.322266 C 380.53855 15.295666 380.51423 15.271494 380.49023 15.246094 C 380.46623 15.220994 380.44297 15.194222 380.41797 15.169922 C 380.39297 15.145922 380.3668 15.123109 380.3418 15.099609 C 380.3148 15.076709 380.28872 15.052097 380.26172 15.029297 C 380.23572 15.006197 380.20964 14.985291 380.18164 14.962891 C 380.15464 14.940891 380.12566 14.918184 380.09766 14.896484 C 380.06966 14.874284 380.04267 14.853431 380.01367 14.832031 C 379.95767 14.789331 379.8998 14.745525 379.8418 14.703125 C 379.7848 14.660925 379.72016 14.626891 379.66016 14.587891 C 379.63116 14.567491 379.60227 14.549097 379.57227 14.529297 C 379.54327 14.508997 379.51433 14.48925 379.48633 14.46875 C 379.45733 14.44855 379.42839 14.42735 379.40039 14.40625 C 379.37239 14.38495 379.34341 14.363597 379.31641 14.341797 C 379.28841 14.320597 379.26333 14.298191 379.23633 14.275391 C 379.21033 14.252991 379.1842 14.228878 379.1582 14.205078 C 379.1332 14.181578 379.10798 14.157812 379.08398 14.132812 C 379.07198 14.120814 379.05983 14.10655 379.04883 14.09375 C 379.03683 14.08185 379.02467 14.067786 379.01367 14.054688 C 379.00267 14.040888 378.99147 14.027172 378.98047 14.013672 C 378.96947 14.000072 378.96022 13.988409 378.94922 13.974609 C 378.93822 13.961009 378.92797 13.945941 378.91797 13.931641 C 378.90797 13.916941 378.89767 13.903572 378.88867 13.888672 C 378.87867 13.874072 378.86836 13.85895 378.85938 13.84375 C 378.85038 13.82925 378.84003 13.812575 378.83203 13.796875 C 378.82303 13.780975 378.81464 13.764147 378.80664 13.748047 C 378.79764 13.732247 378.7912 13.717572 378.7832 13.701172 C 378.7752 13.684172 378.76677 13.665436 378.75977 13.648438 C 378.75177 13.631538 378.74528 13.615356 378.73828 13.597656 C 378.73228 13.579456 378.72475 13.561069 378.71875 13.542969 C 378.71275 13.524769 378.70717 13.507081 378.70117 13.488281 z " />
  </g>
</svg>
