<?xml version="1.0" encoding="UTF-8" standalone="no"?>
<!-- Created with Inkscape (http://www.inkscape.org/) -->

<svg
   width="448"
   height="64"
   viewBox="0 0 448 64"
   version="1.1"
   id="SVGRoot"
   sodipodi:docname="blocks.svg"
   inkscape:version="1.2.2 (b0a8486541, 2022-12-01)"
   inkscape:export-filename="blocks.png"
   inkscape:export-xdpi="96"
   inkscape:export-ydpi="96"
   xmlns:inkscape="http://www.inkscape.org/namespaces/inkscape"
   xmlns:sodipodi="http://sodipodi.sourceforge.net/DTD/sodipodi-0.dtd"
   xmlns:xlink="http://www.w3.org/1999/xlink"
   xmlns="http://www.w3.org/2000/svg"
   xmlns:svg="http://www.w3.org/2000/svg">
  <sodipodi:namedview
     id="namedview1780"
     pagecolor="#ffffff"
     bordercolor="#666666"
     borderopacity="1.0"
     inkscape:showpageshadow="2"
     inkscape:pageopacity="0.0"
     inkscape:pagecheckerboard="0"
     inkscape:deskcolor="#d1d1d1"
     inkscape:document-units="px"
     showgrid="true"
     inkscape:zoom="5.6568543"
     inkscape:cx="453.60899"
     inkscape:cy="74.246211"
     inkscape:window-width="1920"
     inkscape:window-height="1055"
     inkscape:window-x="0"
     inkscape:window-y="25"
     inkscape:window-maximized="0"
     inkscape:current-layer="layer1">
    <inkscape:grid
       type="xygrid"
       id="grid2270"
       empspacing="8"
       originx="0"
       originy="0" />
  </sodipodi:namedview>
  <defs
     id="defs1775">
    <linearGradient
       inkscape:collect="always"
       id="linearGradient5778">
      <stop
         style="stop-color:#c8c8c8;stop-opacity:1;"
         offset="0"
         id="stop5774" />
      <stop
         style="stop-color:#333333;stop-opacity:1;"
         offset="1"
         id="stop5776" />
    </linearGradient>
    <linearGradient
       inkscape:collect="always"
       id="linearGradient1325">
      <stop
         style="stop-color:#ff8000;stop-opacity:0.44936708;"
         offset="0"
         id="stop1321" />
      <stop
         style="stop-color:#ff8000;stop-opacity:0.89240509;"
         offset="1"
         id="stop1323" />
    </linearGradient>
    <linearGradient
       inkscape:collect="always"
       id="linearGradient1297">
      <stop
         style="stop-color:#ff0000;stop-opacity:0.44936708;"
         offset="0"
         id="stop1293" />
      <stop
         style="stop-color:#ff0000;stop-opacity:0.89240509;"
         offset="1"
         id="stop1295" />
    </linearGradient>
    <linearGradient
       inkscape:collect="always"
       id="linearGradient1269">
      <stop
         style="stop-color:#ffff00;stop-opacity:0.44936708;"
         offset="0"
         id="stop1265" />
      <stop
         style="stop-color:#ffff00;stop-opacity:0.89240509;"
         offset="1"
         id="stop1267" />
    </linearGradient>
    <linearGradient
       inkscape:collect="always"
       id="linearGradient2505">
      <stop
         style="stop-color:#00ff00;stop-opacity:0.44936708;"
         offset="0"
         id="stop2501" />
      <stop
         style="stop-color:#00ff00;stop-opacity:0.89240509;"
         offset="1"
         id="stop2503" />
    </linearGradient>
    <radialGradient
       inkscape:collect="always"
       xlink:href="#linearGradient2505"
       id="radialGradient2507"
       cx="32"
       cy="32"
       fx="32"
       fy="32"
       r="24.188976"
       gradientUnits="userSpaceOnUse"
       gradientTransform="matrix(1.2815755,-5.7877605e-8,6.0864109e-8,1.3229167,-9.0104188,-10.333331)" />
    <radialGradient
       inkscape:collect="always"
       xlink:href="#linearGradient1269"
       id="radialGradient2507-3"
       cx="32"
       cy="32"
       fx="32"
       fy="32"
       r="24.188976"
       gradientUnits="userSpaceOnUse"
       gradientTransform="matrix(1.2815755,-5.7877605e-8,6.0864109e-8,1.3229167,54.989581,-10.333331)" />
    <radialGradient
       inkscape:collect="always"
       xlink:href="#linearGradient1297"
       id="radialGradient2507-35"
       cx="32"
       cy="32"
       fx="32"
       fy="32"
       r="24.188976"
       gradientUnits="userSpaceOnUse"
       gradientTransform="matrix(1.2815755,-5.7877605e-8,6.0864109e-8,1.3229167,118.98958,-10.333331)" />
    <radialGradient
       inkscape:collect="always"
       xlink:href="#linearGradient1325"
       id="radialGradient2507-1"
       cx="32"
       cy="32"
       fx="32"
       fy="32"
       r="24.188976"
       gradientUnits="userSpaceOnUse"
       gradientTransform="matrix(1.2815755,-5.7877605e-8,6.0864109e-8,1.3229167,182.98958,-10.333331)" />
    <linearGradient
       inkscape:collect="always"
       xlink:href="#linearGradient5778"
       id="linearGradient5780"
       x1="358"
       y1="2"
       x2="363"
       y2="5"
       gradientUnits="userSpaceOnUse"
       gradientTransform="translate(-0.3218,-1.763142)" />
  </defs>
  <g
     inkscape:label="Lager 1"
     inkscape:groupmode="layer"
     id="layer1">
    <path
       style="opacity:1;fill:url(#radialGradient2507);fill-opacity:1;fill-rule:evenodd;stroke:#000000;stroke-width:2;stroke-linejoin:bevel;stroke-dasharray:none"
       d="M 1,16 C 1,1 1,1 16,1 h 32 c 14.825244,0.1794229 15,0 15,15 v 32 c 0,15 0,15 -15,15 H 16 C 1,63 1,63 1,48 Z"
       id="path2326"
       sodipodi:nodetypes="ccccccccc" />
    <path
       style="opacity:1;fill:url(#radialGradient2507-3);fill-opacity:1;fill-rule:evenodd;stroke:#000000;stroke-width:2;stroke-linejoin:bevel;stroke-dasharray:none"
       d="M 65,16 C 65,1 65,1 80,1 h 32 c 14.82524,0.179423 15,0 15,15 v 32 c 0,15 0,15 -15,15 H 80 C 65,63 65,63 65,48 Z"
       id="path2326-5"
       sodipodi:nodetypes="ccccccccc" />
    <path
       style="opacity:1;fill:url(#radialGradient2507-35);fill-opacity:1;fill-rule:evenodd;stroke:#000000;stroke-width:2;stroke-linejoin:bevel;stroke-dasharray:none"
       d="M 129,16 C 129,0.9999998 129,0.9999998 144,0.9999998 h 32 c 14.82524,0.1794229 15,0 15,15.0000002 v 32 c 0,15 0,15 -15,15 h -32 c -15,0 -15,0 -15,-15 z"
       id="path2326-9"
       sodipodi:nodetypes="ccccccccc" />
    <path
       style="opacity:1;fill:url(#radialGradient2507-1);fill-opacity:1;fill-rule:evenodd;stroke:#000000;stroke-width:2;stroke-linejoin:bevel;stroke-dasharray:none"
       d="M 193,16 C 193,0.9999998 193,0.9999998 208,0.9999998 h 32 c 14.82524,0.1794229 15,0 15,15.0000002 v 32 c 0,15 0,15 -15,15 h -32 c -15,0 -15,0 -15,-15 z"
       id="path2326-0"
       sodipodi:nodetypes="ccccccccc" />
    <path
       id="path937"
       style="opacity:1;fill:#ff0000;fill-rule:evenodd;stroke:#000000;stroke-width:1.99937;stroke-linecap:butt;stroke-linejoin:miter;stroke-dasharray:none;stroke-opacity:1"
       d="m 287.12109,8.015625 a 24,24 0 0 0 -9.75781,2.470703 24,24 0 0 0 -11.10156,31.685547 L 267.21484,44 a 24,24 0 0 0 32.33594,9.037109 24,24 0 0 0 9.73047,-32.132812 24,24 0 0 0 -22.16016,-12.888672 z m 0.29297,7.994141 A 16,16 0 0 1 302.1875,24.601562 16,16 0 0 1 295.70117,46.025391 16,16 0 0 1 274.14453,40 l -0.63672,-1.21875 a 16,16 0 0 1 7.40039,-21.125 16,16 0 0 1 6.50586,-1.646484 z" />
    <rect
       style="opacity:1;fill:#ff0000;fill-opacity:1;fill-rule:evenodd;stroke:#000000;stroke-width:2;stroke-linejoin:round"
       id="rect1090"
       width="8"
       height="16"
       x="284"
       y="4" />
    <rect
       style="opacity:1;fill:#ff0000;fill-opacity:1;fill-rule:evenodd;stroke:#000000;stroke-width:2;stroke-linejoin:round"
       id="rect1092"
       width="8"
       height="16"
       x="284"
       y="44" />
    <rect
       style="opacity:1;fill:#ff0000;fill-opacity:1;fill-rule:evenodd;stroke:#000000;stroke-width:2;stroke-linejoin:round"
       id="rect1094"
       width="8"
       height="16"
       x="28"
       y="-316"
       transform="rotate(90)" />
    <rect
       style="opacity:1;fill:#ff0000;fill-opacity:1;fill-rule:evenodd;stroke:#000000;stroke-width:2;stroke-linejoin:round"
       id="rect1096"
       width="8"
       height="16"
       x="28"
       y="-276"
       transform="rotate(90)" />
    <circle
       style="fill:#505050;fill-opacity:1;fill-rule:evenodd;stroke:#000000;stroke-width:1.99937;stroke-linecap:butt;stroke-linejoin:miter;stroke-dasharray:none;stroke-opacity:1"
       id="path394"
       cx="352"
       cy="32"
       r="24" />
    <path
       style="fill:#505050;fill-opacity:1;fill-rule:evenodd;stroke:#ffffff;stroke-width:3.33333;stroke-linecap:round;stroke-linejoin:miter;stroke-dasharray:none;stroke-opacity:1"
       id="path394-7"
       sodipodi:type="arc"
       sodipodi:cx="352"
       sodipodi:cy="32"
       sodipodi:rx="18.240231"
       sodipodi:ry="18.240231"
       sodipodi:start="3.403392"
       sodipodi:end="4.1887902"
       sodipodi:arc-type="arc"
       d="m 334.38129,27.279082 a 18.240231,18.240231 0 0 1 8.49859,-11.075585"
       sodipodi:open="true" />
    <path
       id="ellipse1671"
       style="fill:url(#linearGradient5780);fill-opacity:1;fill-rule:evenodd;stroke:#000000;stroke-width:2;stroke-linecap:butt;stroke-linejoin:miter;stroke-dasharray:none;stroke-opacity:1"
       d="m 358.5718,3.2057695 -3.5,6.0621795 C 354.51951,10.224532 357.17365,12.790858 361,15 c 3.82635,2.209138 7.37592,3.224534 7.9282,2.267947 l 3.5,-6.062178 z"
       sodipodi:nodetypes="cssscc" />
    <ellipse
       style="fill:#333333;fill-opacity:1;fill-rule:evenodd;stroke:#000000;stroke-width:2;stroke-linecap:butt;stroke-linejoin:miter;stroke-dasharray:none;stroke-opacity:1"
       id="path3075"
       cx="320.13516"
       cy="-177.50963"
       rx="8"
       ry="2"
       transform="rotate(30)" />
    <path
       style="fill:#505050;fill-opacity:1;fill-rule:evenodd;stroke:#ffffff;stroke-width:3.33333;stroke-linecap:round;stroke-linejoin:miter;stroke-dasharray:none;stroke-opacity:1"
       id="path1728"
       sodipodi:type="arc"
       sodipodi:cx="352"
       sodipodi:cy="32"
       sodipodi:rx="18.240231"
       sodipodi:ry="18.240231"
       sodipodi:start="4.4505896"
       sodipodi:end="4.712389"
       sodipodi:arc-type="arc"
       d="M 347.27908,14.38129 A 18.240231,18.240231 0 0 1 352,13.759769"
       sodipodi:open="true" />
    <path
       id="path2284"
       style="fill:#d19e30;fill-opacity:1;fill-rule:evenodd;stroke:#000000;stroke-width:0.266667;stroke-linecap:round;stroke-linejoin:round;stroke-dasharray:none;stroke-opacity:1"
       d="m 372.77539,1.2734375 c -0.39761,-0.011474 -0.82617,0.066107 -1.12305,0.2421875 -0.013,0.01434 -0.0251,0.028409 -0.0371,0.042969 -0.013,0.01455 -0.0251,0.028229 -0.0371,0.042969 -0.012,0.01489 -0.0222,0.029952 -0.0332,0.044922 -0.011,0.01494 -0.0222,0.031705 -0.0332,0.046875 -0.01,0.01525 -0.0193,0.029602 -0.0293,0.044922 -0.009,0.01529 -0.0183,0.031335 -0.0273,0.046875 -0.009,0.01559 -0.0174,0.031155 -0.0254,0.046875 -0.008,0.01557 -0.0184,0.031025 -0.0254,0.046875 -0.008,0.01585 -0.0145,0.032788 -0.0215,0.048828 -0.008,0.01611 -0.0145,0.030675 -0.0215,0.046875 -0.006,0.0161 -0.0116,0.032508 -0.0176,0.048828 -0.006,0.01635 -0.0126,0.032368 -0.0176,0.048828 -0.006,0.01659 -0.0106,0.034191 -0.0156,0.050781 -0.005,0.01641 -0.0106,0.032088 -0.0156,0.048828 -0.009,0.03346 -0.0174,0.067652 -0.0254,0.1015625 -0.007,0.03386 -0.0135,0.069226 -0.0195,0.1035156 -0.006,0.03427 -0.0106,0.068836 -0.0156,0.1035157 -0.004,0.03455 -0.009,0.068536 -0.0117,0.1035156 -0.004,0.03504 -0.007,0.070219 -0.01,0.1054687 -0.003,0.0352 -0.006,0.070069 -0.008,0.1054688 -0.003,0.03551 -0.004,0.069909 -0.006,0.1054687 -0.003,0.07109 -0.006,0.1435038 -0.008,0.2148438 -0.002,0.07132 -0.005,0.1437439 -0.008,0.2148437 -0.003,0.03573 -0.004,0.070059 -0.006,0.1054688 -0.002,0.03551 -0.005,0.070219 -0.008,0.1054687 -0.002,0.0352 0.0362,0.060533 0.0352,0.095703 -10e-4,0.03525 4e-5,0.070499 -0.002,0.1054687 0,0.03477 -0.003,0.070729 -0.006,0.1054687 -0.003,0.03463 -0.008,0.069066 -0.0117,0.1035157 -0.004,0.03437 -0.01,0.069366 -0.0156,0.1035156 -0.003,0.01693 -0.006,0.033801 -0.01,0.050781 -0.002,0.01672 -0.008,0.033911 -0.0117,0.050781 -0.004,0.01707 -0.009,0.033991 -0.0137,0.050781 -0.004,0.01685 -0.009,0.032158 -0.0137,0.048828 -0.005,0.01661 -0.0106,0.034191 -0.0156,0.050781 -0.006,0.01673 -0.0106,0.034261 -0.0176,0.050781 -0.006,0.01647 -0.0125,0.032458 -0.0195,0.048828 -0.006,0.01621 -0.0135,0.032538 -0.0215,0.048828 -0.008,0.01635 -0.0174,0.032688 -0.0254,0.048828 -0.008,0.01606 -0.0164,0.030895 -0.0254,0.046875 -0.009,0.01615 -0.0173,0.032958 -0.0273,0.048828 -0.009,0.01584 -0.0193,0.033058 -0.0293,0.048828 -0.011,0.01593 -0.0222,0.031265 -0.0332,0.046875 -0.011,0.01563 -0.0212,0.029442 -0.0332,0.044922 0.476,-0.01148 0.80789,0.034929 1.33789,-0.3066406 0.013,-0.01432 0.0251,-0.028399 0.0371,-0.042969 0.013,-0.01455 -0.10089,-0.00784 -0.0879,-0.021484 0.013,-0.0137 0.0251,-0.029049 0.0371,-0.042969 0.012,-0.0139 0.0242,-0.028799 0.0351,-0.042969 0.012,-0.01421 0.0232,-0.028569 0.0332,-0.042969 0.011,-0.01438 0.0222,-0.028309 0.0332,-0.042969 0.01,-0.01469 0.0193,-0.028079 0.0293,-0.042969 0.009,-0.01482 0.0203,-0.029822 0.0293,-0.044922 0.009,-0.0151 0.0164,-0.031555 0.0254,-0.046875 0.009,-0.01536 0.0174,-0.031345 0.0254,-0.046875 0.008,-0.01549 0.0164,-0.029212 0.0234,-0.044922 0.008,-0.01573 0.0145,-0.032938 0.0215,-0.048828 0.008,-0.01596 0.0155,-0.032758 0.0215,-0.048828 0.006,-0.01598 0.0116,-0.030635 0.0176,-0.046875 0.012,-0.03249 0.0242,-0.066509 0.0351,-0.099609 0.01,-0.03307 0.0203,-0.065979 0.0293,-0.099609 0.009,-0.03361 0.0174,-0.067443 0.0254,-0.1015625 0.007,-0.03404 0.0145,-0.069006 0.0215,-0.1035156 0.007,-0.03454 0.0135,-0.068666 0.0195,-0.1035156 0.005,-0.03481 0.0106,-0.070379 0.0156,-0.1054688 0.006,-0.03513 0.0106,-0.068256 0.0156,-0.1035156 0.01,-0.07054 0.0183,-0.1420608 0.0273,-0.2128906 0.008,-0.07082 0.0173,-0.1423408 0.0273,-0.2128906 0.006,-0.03536 0.0106,-0.070389 0.0156,-0.1054688 0.006,-0.03514 0.01,-0.070639 0.0156,-0.1054688 0.005,-0.03482 0.0125,-0.068996 0.0195,-0.1035156 0.007,-0.03454 0.0135,-0.067443 0.0215,-0.1015625 0.007,-0.03404 0.0778,-0.072779 0.0898,-0.1054687 0.012,-0.03267 0.0251,-0.065646 0.0391,-0.097656 0.013,-0.032 0.028,-0.06251 0.043,-0.09375 0.007,-0.01563 0.0164,-0.031455 0.0234,-0.046875 0.007,-0.0154 0.0164,-0.031675 0.0254,-0.046875 0.009,-0.01519 0.0164,-0.029962 0.0254,-0.044922 0.009,-0.01497 0.0183,-0.030192 0.0274,-0.044922 0.009,-0.01472 0.0193,-0.028489 0.0293,-0.042969 0.01,-0.01448 0.0183,-0.028749 0.0293,-0.042969 0.01,-0.0142 0.0222,-0.029029 0.0332,-0.042969 0.011,-0.01394 0.0222,-0.027356 0.0332,-0.041016 0.012,-0.01366 0.0251,-0.027656 0.0371,-0.041016 0.012,-0.01336 0.0241,-0.026012 0.0371,-0.039063 0.014,-0.01306 0.0261,-0.026323 0.0391,-0.039063 0.014,-0.01274 0.027,-0.026652 0.041,-0.039063 0.015,-0.01241 0.0299,-0.025049 0.0449,-0.037109 0.015,-0.01207 0.0299,-0.021493 0.0449,-0.033203 -0.183,-0.068865 -0.40988,-0.1083501 -0.64844,-0.1152344 z m 1.50781,0.017578 c -0.24193,-0.00537 -0.47604,0.023917 -0.66992,0.095703 -0.016,0.01173 -0.0319,0.023096 -0.0469,0.035156 -0.015,0.01207 -0.029,0.024719 -0.043,0.037109 -0.015,0.01241 -0.028,0.024369 -0.041,0.037109 -0.014,0.01274 -0.028,0.026013 -0.041,0.039062 -0.014,0.01306 -0.0251,0.025703 -0.0371,0.039063 -0.012,0.01335 -0.0242,0.027366 -0.0352,0.041016 -0.012,0.01367 -0.0222,0.027076 -0.0332,0.041016 -0.011,0.01393 -0.0222,0.028759 -0.0332,0.042969 -0.01,0.01421 -0.0213,0.028489 -0.0312,0.042969 -0.01,0.01447 -0.0193,0.030192 -0.0293,0.044922 -0.009,0.01472 -0.0164,0.027999 -0.0254,0.042969 -0.009,0.01496 -0.0193,0.029722 -0.0273,0.044922 -0.009,0.01521 -0.0174,0.031465 -0.0254,0.046875 -0.007,0.01541 -0.0154,0.031245 -0.0234,0.046875 -0.015,0.03124 -0.028,0.06175 -0.041,0.09375 -0.013,0.032 -0.0271,0.064986 -0.0391,0.097656 -0.011,0.03269 -0.0242,0.06636 -0.0352,0.099609 -0.011,0.03325 -0.0213,0.065859 -0.0312,0.099609 -0.01,0.03375 -0.0183,0.067413 -0.0273,0.1015625 -0.009,0.03415 -0.0183,0.069066 -0.0273,0.1035156 -0.009,0.03447 -0.0174,0.068826 -0.0254,0.1035157 -0.015,0.06937 -0.0359,0.1381545 -0.0449,0.2089843 -0.009,0.07082 -0.0183,0.1423607 -0.0273,0.2128907 -0.006,0.03536 -0.01,0.070389 -0.0156,0.1054687 -0.005,0.03513 -0.01,0.070629 -0.0156,0.1054687 -0.006,0.03482 -0.0145,0.069006 -0.0215,0.1035157 -0.007,0.03454 -0.0115,0.067453 -0.0195,0.1015625 -0.007,0.03405 -0.0173,0.067923 -0.0273,0.1015625 -0.008,0.03361 -0.0163,0.068463 -0.0274,0.1015625 -0.01,0.03307 -0.0231,0.065166 -0.0351,0.097656 -0.005,0.01619 -0.0125,0.032758 -0.0195,0.048828 -0.005,0.01598 -0.0125,0.032938 -0.0195,0.048828 -0.007,0.01596 -0.0145,0.031165 -0.0215,0.046875 -0.008,0.01573 -0.0164,0.031365 -0.0234,0.046875 -0.008,0.01549 -0.0174,0.029612 -0.0254,0.044922 -0.009,0.01536 -0.0164,0.031755 -0.0254,0.046875 -0.009,0.01509 -0.0193,0.030042 -0.0293,0.044922 -0.009,0.01482 -0.0183,0.030262 -0.0293,0.044922 -0.01,0.01469 -0.0222,0.028559 -0.0332,0.042969 -0.011,0.01438 -0.0203,0.028819 -0.0312,0.042969 -0.012,0.01422 -0.0251,0.029059 -0.0371,0.042969 -0.013,0.01389 -0.0241,0.027366 -0.0371,0.041016 -0.013,0.0137 -0.028,0.027646 -0.041,0.041016 -0.014,0.01338 -0.028,0.025972 -0.043,0.039063 0.471,0.07422 0.78614,0.1678938 1.36914,-0.072266 0.016,-0.01171 0.0319,-0.023086 0.0469,-0.035156 0.015,-0.01207 0.029,-0.024709 0.043,-0.037109 0.015,-0.01241 0.028,-0.024369 0.041,-0.037109 0.014,-0.01273 -0.098,-0.029216 -0.084,-0.041016 0.014,-0.01177 0.028,-0.024929 0.041,-0.037109 0.013,-0.0122 0.0261,-0.024589 0.0391,-0.037109 0.013,-0.0125 0.0261,-0.024249 0.0391,-0.037109 0.011,-0.01291 0.0231,-0.025862 0.0351,-0.039063 0.011,-0.01319 0.0222,-0.027526 0.0332,-0.041016 0.011,-0.01346 0.0222,-0.027226 0.0332,-0.041016 0.01,-0.01383 0.0213,-0.026936 0.0312,-0.041016 0.01,-0.01407 0.0222,-0.028609 0.0312,-0.042969 0.011,-0.0143 0.0193,-0.028359 0.0293,-0.042969 0.008,-0.01469 0.0183,-0.030072 0.0273,-0.044922 0.018,-0.02971 0.0348,-0.059234 0.0508,-0.089844 0.016,-0.03064 0.0319,-0.06233 0.0469,-0.09375 0.014,-0.03144 0.029,-0.063603 0.043,-0.095703 0.014,-0.03216 0.028,-0.063023 0.041,-0.095703 0.013,-0.03265 0.0251,-0.066459 0.0371,-0.099609 0.012,-0.03317 0.0251,-0.066089 0.0371,-0.099609 0.012,-0.0335 0.0222,-0.067763 0.0332,-0.1015625 0.022,-0.06759 0.0444,-0.135115 0.0664,-0.203125 0.021,-0.06802 0.0434,-0.135545 0.0664,-0.203125 0.012,-0.03372 0.0212,-0.068023 0.0332,-0.1015625 0.012,-0.03349 0.0232,-0.066459 0.0352,-0.099609 0.012,-0.03318 0.0261,-0.066939 0.0391,-0.099609 0.014,-0.03266 0.0251,-0.063603 0.0391,-0.095703 0.013,-0.03215 0.0299,-0.064293 0.0449,-0.095703 0.015,-0.03144 0.0309,-0.06312 0.0469,-0.09375 0.016,-0.03064 0.11476,-0.048312 0.13476,-0.076172 0.01,-0.01404 0.0222,-0.027356 0.0332,-0.041016 0.01,-0.01382 0.0222,-0.027666 0.0332,-0.041016 0.012,-0.01324 0.0212,-0.026012 0.0332,-0.039063 0.011,-0.01302 0.0232,-0.026312 0.0352,-0.039063 0.012,-0.01277 0.0251,-0.024719 0.0371,-0.037109 0.013,-0.01228 0.0241,-0.025119 0.0371,-0.037109 0.013,-0.01202 0.0261,-0.023516 0.0391,-0.035156 0.013,-0.01175 0.027,-0.021973 0.041,-0.033203 0.015,-0.0112 0.029,-0.024306 0.043,-0.035156 0.015,-0.0109 0.0299,-0.02084 0.0449,-0.03125 0.016,-0.01033 0.0309,-0.02126 0.0469,-0.03125 0.015,-0.01002 0.0309,-0.019767 0.0469,-0.029297 0.017,-0.00941 0.0338,-0.018274 0.0508,-0.027344 0.017,-0.00907 0.0328,-0.016821 0.0508,-0.025391 -0.27813,-0.169806 -0.70029,-0.2762084 -1.10352,-0.2851563 z m -3.21875,0.2363282 c -0.41568,0.0199 -0.85615,0.1676891 -1.1914,0.4101562 -0.012,0.01547 -0.0222,0.029292 -0.0332,0.044922 -0.011,0.01561 -0.0232,0.031145 -0.0332,0.046875 -0.011,0.01593 -0.13848,0.073144 -0.14648,0.089844 -0.008,0.01663 -0.0164,0.033991 -0.0234,0.050781 -0.008,0.01692 -0.0145,0.034001 -0.0215,0.050781 -0.006,0.0167 -0.0116,0.033871 -0.0176,0.050781 -0.006,0.01699 -0.0126,0.033821 -0.0176,0.050781 -0.005,0.01669 -0.0116,0.033811 -0.0156,0.050781 -0.005,0.01695 -0.008,0.033721 -0.0117,0.050781 -0.005,0.01721 -0.01,0.035614 -0.0137,0.052734 -0.003,0.01697 -0.007,0.031698 -0.01,0.048828 -0.003,0.01719 -0.006,0.035574 -0.008,0.052734 -0.003,0.01742 -0.004,0.035524 -0.006,0.052734 -9.8e-4,0.01689 -0.004,0.033471 -0.006,0.050781 -0.003,0.03457 -0.005,0.068806 -0.006,0.1035156 -10e-4,0.03459 -0.003,0.070679 -0.002,0.1054688 0,0.03472 9.6e-4,0.068546 0.002,0.1035156 0.003,0.03472 0.005,0.070399 0.008,0.1054688 0.003,0.03518 0.005,0.070279 0.008,0.1054687 0.004,0.03509 0.009,0.070269 0.0137,0.1054688 0.004,0.03538 0.009,0.070209 0.0137,0.1054687 0.01,0.07049 0.0183,0.1422808 0.0293,0.2128906 0.01,0.07057 0.0213,0.1404476 0.0312,0.2109376 0.004,0.03559 0.008,0.070269 0.0117,0.1054687 0.004,0.03538 0.01,0.070269 0.0137,0.1054687 0.004,0.03508 0.007,0.070399 0.01,0.1054688 0.002,0.03518 0.004,0.070499 0.006,0.1054688 0.002,0.03472 0.002,0.068646 0.002,0.1035156 10e-4,0.03471 10e-4,0.070759 0,0.1054687 -0.001,0.0346 -0.003,0.068946 -0.006,0.1035157 -10e-4,0.01709 0.0742,2.481e-4 0.0742,0.017578 10e-4,0.01692 -9.5e-4,0.035424 -0.002,0.052734 -0.002,0.01762 -0.002,0.033461 -0.004,0.050781 -0.001,0.01742 -0.004,0.035444 -0.006,0.052734 -0.002,0.0172 -0.006,0.033451 -0.008,0.050781 -0.003,0.01755 -0.005,0.035324 -0.008,0.052734 -0.003,0.01731 -0.007,0.035394 -0.01,0.052734 -0.004,0.01706 -0.008,0.033391 -0.0117,0.050781 -0.005,0.01749 -0.01,0.035384 -0.0156,0.052734 -0.004,0.01721 -0.01,0.035434 -0.0156,0.052734 -0.006,0.01757 -0.0135,0.035414 -0.0195,0.052734 -0.007,0.01728 -0.0125,0.033401 -0.0195,0.050781 -0.008,0.01766 -0.0154,0.035384 -0.0234,0.052734 -0.008,0.01739 -0.0164,0.035344 -0.0254,0.052734 0.466,-0.09734 0.64363,-0.088623 1.14063,-0.4765624 0.012,-0.01545 0.0241,-0.031245 0.0351,-0.046875 0.011,-0.01561 0.0222,-0.031135 0.0332,-0.046875 0.011,-0.01594 0.0173,-0.030945 0.0273,-0.046875 0.01,-0.01584 0.0203,-0.032818 0.0293,-0.048828 0.009,-0.01615 0.0174,-0.032708 0.0254,-0.048828 0.008,-0.01605 0.0154,-0.032538 0.0234,-0.048828 0.008,-0.01635 0.0145,-0.032428 0.0215,-0.048828 0.006,-0.01621 0.0135,-0.032358 0.0195,-0.048828 0.006,-0.01647 0.0116,-0.034161 0.0176,-0.050781 0.006,-0.01672 0.0106,-0.032108 0.0156,-0.048828 0.005,-0.01661 0.01,-0.032038 0.0137,-0.048828 0.005,-0.01685 0.0107,-0.033911 0.0137,-0.050781 0.005,-0.01707 0.009,-0.035754 0.0117,-0.052734 0.003,-0.01672 0.007,-0.033721 0.01,-0.050781 0.006,-0.03416 0.0126,-0.067113 0.0176,-0.1015626 0.004,-0.03436 0.007,-0.070789 0.01,-0.1054687 0.002,-0.03463 0.006,-0.068546 0.008,-0.1035156 0,-0.03477 0.002,-0.070299 0.002,-0.1054688 10e-4,-0.03526 0,-0.070099 0,-0.1054687 -0.001,-0.03528 -9.5e-4,-0.071952 -0.002,-0.1074219 -10e-4,-0.03559 -0.002,-0.069919 -0.004,-0.1054687 -0.003,-0.07111 -0.008,-0.1416207 -0.0117,-0.2128907 -0.004,-0.07123 -0.009,-0.1437039 -0.0117,-0.2148437 -10e-4,-0.03581 -0.003,-0.070019 -0.004,-0.1054688 -10e-4,-0.03559 0.0322,-0.078051 0.0351,-0.1132812 0.002,-0.0352 0.006,-0.070469 0.01,-0.1054688 0.004,-0.03504 0.007,-0.068836 0.0117,-0.1035156 0.004,-0.03455 0.01,-0.069176 0.0156,-0.1035156 0.006,-0.03426 0.0145,-0.069596 0.0215,-0.1035156 0.008,-0.03385 0.0144,-0.068103 0.0234,-0.1015626 0.004,-0.01663 0.0106,-0.032238 0.0156,-0.048828 0.004,-0.01642 0.01,-0.034321 0.0156,-0.050781 0.006,-0.01658 0.0116,-0.032518 0.0176,-0.048828 0.006,-0.01636 0.0135,-0.032678 0.0195,-0.048828 0.007,-0.01612 0.0125,-0.030845 0.0195,-0.046875 0.008,-0.01611 0.0154,-0.032938 0.0234,-0.048828 0.007,-0.01584 0.0144,-0.031175 0.0234,-0.046875 0.007,-0.01558 0.0164,-0.031335 0.0254,-0.046875 0.009,-0.01559 0.0193,-0.031535 0.0293,-0.046875 0.009,-0.01528 0.0173,-0.029752 0.0273,-0.044922 0.011,-0.01525 0.0222,-0.031905 0.0332,-0.046875 0.011,-0.01493 0.0212,-0.030142 0.0332,-0.044922 0.012,-0.01488 0.0241,-0.028429 0.0371,-0.042969 0.012,-0.01457 0.0261,-0.028629 0.0391,-0.042969 -0.12825,-0.023112 -0.26573,-0.030071 -0.4043,-0.023437 z m 4.72266,0.064453 c -0.0746,6.531e-4 -0.14684,0.00616 -0.21484,0.017578 -0.017,0.0086 -0.0338,0.016341 -0.0508,0.025391 -0.017,0.00908 -0.0348,0.017814 -0.0508,0.027344 -0.017,0.00942 -0.0309,0.02126 -0.0469,0.03125 -0.015,0.01002 -0.0309,0.02084 -0.0469,0.03125 -0.015,0.01033 -0.0309,0.02038 -0.0449,0.03125 -0.014,0.0109 -0.029,0.021973 -0.043,0.033203 -0.015,0.0112 -0.028,0.021583 -0.041,0.033203 -0.013,0.01175 -0.0261,0.023126 -0.0391,0.035156 -0.013,0.01202 -0.0241,0.026712 -0.0371,0.039063 -0.013,0.01229 -0.0251,0.024409 -0.0371,0.037109 -0.011,0.01277 -0.0242,0.024059 -0.0352,0.037109 -0.012,0.01302 -0.0242,0.025693 -0.0352,0.039063 -0.011,0.01325 -0.0222,0.027366 -0.0332,0.041016 -0.01,0.01383 -0.0193,0.029039 -0.0293,0.042969 -0.021,0.02787 -0.0415,0.055064 -0.0605,0.083984 -0.019,0.02897 -0.0386,0.058031 -0.0566,0.087891 -0.018,0.0299 -0.0357,0.061177 -0.0527,0.091797 -0.016,0.03075 -0.0328,0.060497 -0.0488,0.091797 -0.016,0.03124 -0.0319,0.063873 -0.0469,0.095703 -0.015,0.03188 -0.0299,0.063423 -0.0449,0.095703 -0.015,0.03219 -0.0515,0.061903 -0.0625,0.095703 -0.022,0.0676 -0.0444,0.1351152 -0.0664,0.203125 -0.021,0.06802 -0.0434,0.1374783 -0.0664,0.2050781 -0.012,0.03372 -0.0212,0.06607 -0.0332,0.099609 -0.012,0.03349 -0.0232,0.066469 -0.0352,0.099609 -0.012,0.03318 -0.0261,0.066929 -0.0391,0.099609 -0.014,0.03266 -0.0251,0.065566 -0.0391,0.097656 -0.014,0.03216 -0.0299,0.06234 -0.0449,0.09375 -0.015,0.03144 -0.0309,0.06313 -0.0469,0.09375 -0.016,0.03064 -0.0338,0.060134 -0.0508,0.089844 -0.009,0.0149 -0.0183,0.030302 -0.0273,0.044922 -0.008,0.01469 -0.0203,0.030562 -0.0293,0.044922 -0.011,0.0143 -0.0203,0.026926 -0.0312,0.041016 -0.01,0.01407 -0.0203,0.027206 -0.0312,0.041016 -0.01,0.01383 -0.0212,0.027516 -0.0332,0.041016 -0.011,0.01346 -0.0212,0.027846 -0.0332,0.041016 -0.011,0.01319 -0.0231,0.026203 -0.0351,0.039063 -0.012,0.01291 -0.0261,0.024599 -0.0391,0.037109 -0.013,0.0125 -0.0261,0.026892 -0.0391,0.039063 -0.013,0.0122 -0.028,0.023346 -0.041,0.035156 -0.015,0.01177 -0.028,0.023726 -0.043,0.035156 -0.014,0.01145 -0.0299,0.022173 -0.0449,0.033203 -0.016,0.01098 -0.0309,0.022563 -0.0469,0.033203 -0.016,0.01063 -0.0328,0.02104 -0.0488,0.03125 0.449,0.1590796 0.73552,0.302621 1.35352,0.1757812 0.018,-0.00859 0.0357,-0.016331 0.0527,-0.025391 0.017,-0.00908 0.0328,-0.019757 0.0488,-0.029297 0.017,-0.00941 0.0309,-0.019327 0.0469,-0.029297 0.016,-0.01002 -0.098,-0.051647 -0.082,-0.060547 0.016,-0.00876 0.0309,-0.017944 0.0469,-0.027344 0.015,-0.00944 0.0319,-0.017544 0.0469,-0.027344 0.015,-0.00974 0.028,-0.02101 0.043,-0.03125 0.014,-0.01044 0.029,-0.02055 0.043,-0.03125 0.014,-0.0107 0.027,-0.022133 0.041,-0.033203 0.014,-0.01095 0.028,-0.021743 0.041,-0.033203 0.013,-0.01157 0.0261,-0.023296 0.0391,-0.035156 0.013,-0.0118 0.0241,-0.022936 0.0371,-0.035156 0.013,-0.01202 0.0251,-0.024559 0.0371,-0.037109 0.011,-0.01279 0.0242,-0.026203 0.0351,-0.039063 0.024,-0.02569 0.0464,-0.051245 0.0684,-0.078125 0.022,-0.02696 0.0435,-0.054071 0.0645,-0.082031 0.02,-0.02801 0.0405,-0.057138 0.0605,-0.085937 0.019,-0.029 0.0396,-0.058331 0.0586,-0.087891 0.019,-0.02948 0.0386,-0.057741 0.0566,-0.087891 0.018,-0.03024 0.0367,-0.061147 0.0547,-0.091797 0.018,-0.03054 0.0357,-0.060787 0.0527,-0.091797 0.035,-0.06201 0.0695,-0.1249402 0.10351,-0.1875 0.034,-0.06259 0.0685,-0.1255102 0.10352,-0.1875 0.018,-0.03075 0.0347,-0.061117 0.0527,-0.091797 0.018,-0.03054 0.0357,-0.061617 0.0547,-0.091797 0.018,-0.03023 0.0376,-0.060314 0.0566,-0.089844 0.019,-0.02948 0.0366,-0.059091 0.0566,-0.087891 0.019,-0.029 0.0415,-0.056075 0.0625,-0.083984 0.021,-0.02801 0.0425,-0.057094 0.0645,-0.083984 0.021,-0.02697 0.12829,-0.021762 0.15429,-0.044922 0.012,-0.01179 0.0261,-0.021953 0.0391,-0.033203 0.013,-0.01159 0.028,-0.022343 0.041,-0.033203 0.014,-0.01062 0.027,-0.022713 0.041,-0.033203 0.014,-0.01041 0.027,-0.019177 0.041,-0.029297 0.014,-0.01019 0.0299,-0.019647 0.0449,-0.029297 0.015,-0.00946 0.028,-0.020157 0.043,-0.029297 0.015,-0.00921 0.0309,-0.018614 0.0469,-0.027344 0.015,-0.00896 0.0309,-0.015247 0.0469,-0.023437 0.016,-0.00813 0.0328,-0.017661 0.0488,-0.025391 0.016,-0.00784 0.0318,-0.014314 0.0488,-0.021484 0.017,-0.00702 0.0357,-0.014834 0.0527,-0.021484 0.017,-0.00672 0.0338,-0.013451 0.0508,-0.019531 0.019,-0.00584 0.0367,-0.012068 0.0547,-0.017578 0.018,-0.00549 0.0376,-0.010745 0.0566,-0.015625 -0.33425,-0.3108781 -0.9856,-0.5553534 -1.50781,-0.5507812 z m -6.21875,0.4472656 c -0.521,0.0013 -1.12581,0.2536145 -1.50781,0.6523437 -0.008,0.01735 -0.0174,0.033391 -0.0254,0.050781 -0.009,0.01735 -0.0164,0.035404 -0.0234,0.052734 -0.008,0.01766 -0.0135,0.035365 -0.0195,0.052734 -0.007,0.01728 -0.0135,0.035344 -0.0195,0.052734 -0.006,0.01757 -0.0106,0.033481 -0.0156,0.050781 -0.005,0.01722 -0.01,0.035335 -0.0137,0.052734 -0.005,0.01749 -0.01,0.035354 -0.0137,0.052734 -0.003,0.01706 -0.007,0.033471 -0.01,0.050781 -0.004,0.01731 -0.0986,0.087939 -0.0996,0.1054687 -0.001,0.01775 -9.5e-4,0.035244 -0.002,0.052734 0,0.01727 -10e-4,0.033411 0,0.050781 0,0.01748 9.5e-4,0.035424 0.002,0.052734 0,0.01769 9.6e-4,0.035454 0.002,0.052734 0.002,0.0168 0.002,0.033471 0.004,0.050781 0.003,0.03455 0.009,0.069166 0.0137,0.1035157 0.006,0.0342 0.0106,0.069376 0.0176,0.1035156 0.007,0.03403 0.0135,0.067452 0.0215,0.1015625 0.008,0.03373 0.0164,0.067563 0.0254,0.1015625 0.009,0.03415 0.0183,0.069546 0.0273,0.1035156 0.011,0.03381 0.0222,0.067753 0.0332,0.1015625 0.01,0.03409 0.0203,0.065809 0.0312,0.099609 0.023,0.06753 0.0454,0.1356052 0.0684,0.203125 0.023,0.06747 0.0473,0.1355952 0.0703,0.203125 0.01,0.03427 0.0202,0.067753 0.0312,0.1015625 0.01,0.03409 0.0222,0.067602 0.0312,0.1015625 0.01,0.03381 0.0183,0.067572 0.0273,0.1015625 0.009,0.03416 0.0193,0.067463 0.0273,0.1015625 0.009,0.03373 0.0145,0.069276 0.0215,0.1035156 0.007,0.03403 0.0116,0.069156 0.0176,0.1035156 0.005,0.03419 0.009,0.067003 0.0117,0.1015626 0.002,0.01698 0.004,0.035444 0.006,0.052734 0.002,0.0168 9.6e-4,0.035424 0.002,0.052734 v 0.052734 0.050781 c 0,0.01728 -0.002,0.035254 -0.002,0.052734 -0.002,0.01775 -0.002,0.035094 -0.004,0.052734 -0.001,0.01752 -0.002,0.035134 -0.004,0.052734 -0.002,0.01729 -0.005,0.035004 -0.008,0.052734 -0.003,0.01785 -0.008,0.034984 -0.0117,0.052734 -0.003,0.01758 0.0958,-0.033675 0.0937,-0.015625 -0.003,0.01842 -0.007,0.038421 -0.01,0.056641 -0.003,0.01815 -0.006,0.036247 -0.01,0.054687 -0.005,0.01881 -0.009,0.036158 -0.0137,0.054687 -0.004,0.0186 -0.0106,0.037911 -0.0156,0.056641 0.44,-0.1813996 0.63569,-0.1652797 1.05469,-0.6367187 0.009,-0.01733 0.0174,-0.033391 0.0254,-0.050781 0.008,-0.01735 0.0174,-0.035394 0.0254,-0.052734 0.008,-0.01765 0.0125,-0.033371 0.0195,-0.050781 0.006,-0.01728 0.0135,-0.037348 0.0195,-0.054687 0.006,-0.01757 0.0106,-0.033481 0.0156,-0.050781 0.004,-0.01721 0.01,-0.035344 0.0137,-0.052734 0.005,-0.01749 0.01,-0.033401 0.0137,-0.050781 0.003,-0.01707 0.007,-0.035414 0.01,-0.052734 0.003,-0.01731 0.006,-0.035364 0.008,-0.052734 0.003,-0.01755 0.004,-0.035354 0.006,-0.052734 0.002,-0.0172 0.006,-0.033451 0.008,-0.050781 0.001,-0.01741 9.6e-4,-0.033481 0.002,-0.050781 0.002,-0.01762 0.003,-0.035414 0.004,-0.052734 -0.001,-0.01692 0,-0.035404 0,-0.052734 0,-0.03471 -0.002,-0.068836 -0.004,-0.1035157 -0.002,-0.03454 -0.005,-0.070859 -0.008,-0.1054687 -0.004,-0.03452 -0.008,-0.068826 -0.0117,-0.1035156 -0.006,-0.03437 -0.0116,-0.068836 -0.0176,-0.1035157 -0.005,-0.03482 -0.0487,-0.052701 -0.0527,-0.087891 -0.003,-0.03509 -0.008,-0.070229 -0.0117,-0.1054687 -0.004,-0.03538 -0.01,-0.070209 -0.0137,-0.1054688 -0.01,-0.07053 -0.0213,-0.1422808 -0.0312,-0.2128906 -0.01,-0.07057 -0.0203,-0.1403677 -0.0293,-0.2109375 -0.004,-0.03559 -0.009,-0.070269 -0.0137,-0.1054688 -0.004,-0.03538 -0.009,-0.070309 -0.0117,-0.1054687 -0.004,-0.03509 -0.008,-0.070359 -0.01,-0.1054687 -0.003,-0.03518 -0.007,-0.070489 -0.008,-0.1054688 -0.002,-0.03471 -0.002,-0.068636 -0.002,-0.1035156 0,-0.03471 -3e-5,-0.070759 0.002,-0.1054688 10e-4,-0.0346 0.003,-0.068946 0.006,-0.1035156 10e-4,-0.01709 0.004,-0.035514 0.006,-0.052734 10e-4,-0.01688 0.004,-0.033591 0.006,-0.050781 0.003,-0.01741 0.007,-0.035604 0.01,-0.052734 0.003,-0.01719 0.006,-0.033731 0.01,-0.050781 0.003,-0.01697 0.008,-0.033751 0.0117,-0.050781 0.005,-0.01721 0.007,-0.033741 0.0117,-0.050781 0.005,-0.01696 0.0106,-0.033861 0.0156,-0.050781 0.005,-0.0167 0.0116,-0.033871 0.0176,-0.050781 0.007,-0.01699 0.0125,-0.033971 0.0195,-0.050781 0.006,-0.01671 0.0125,-0.034001 0.0195,-0.050781 0.008,-0.01693 0.0154,-0.034081 0.0234,-0.050781 0.008,-0.01663 0.0164,-0.034131 0.0254,-0.050781 0.009,-0.01686 0.0173,-0.032288 0.0273,-0.048828 0.009,-0.01658 0.0213,-0.032338 0.0312,-0.048828 z m 7.90234,0.1738281 c -0.019,0.00494 -0.0386,0.010145 -0.0566,0.015625 -0.019,0.00552 -0.0367,0.011478 -0.0547,0.017578 -0.018,0.00584 -0.0357,0.012881 -0.0527,0.019531 -0.017,0.00673 -0.0338,0.014314 -0.0508,0.021484 -0.017,0.00702 -0.0348,0.013724 -0.0508,0.021484 -0.016,0.00784 -0.0328,0.017191 -0.0488,0.025391 -0.016,0.00812 -0.0319,0.014748 -0.0469,0.023437 -0.015,0.00894 -0.0299,0.018134 -0.0449,0.027344 -0.015,0.00921 -0.0299,0.019687 -0.0449,0.029297 -0.015,0.00946 -0.029,0.019257 -0.043,0.029297 -0.014,0.01018 -0.029,0.018817 -0.043,0.029297 -0.014,0.01042 -0.028,0.022303 -0.041,0.033203 -0.014,0.01063 -0.028,0.021953 -0.041,0.033203 -0.013,0.01159 -0.0261,0.021633 -0.0391,0.033203 -0.026,0.02315 -0.0512,0.047786 -0.0762,0.072266 -0.024,0.02459 -0.0493,0.050492 -0.0723,0.076172 -0.024,0.02576 -0.0454,0.051515 -0.0684,0.078125 -0.022,0.02687 -0.0464,0.052638 -0.0684,0.080078 -0.022,0.02734 -0.0424,0.055895 -0.0644,0.083984 -0.021,0.0282 -0.0415,0.057258 -0.0625,0.085937 -0.021,0.0285 -0.065,0.047115 -0.082,0.078125 -0.035,0.06204 -0.0695,0.1249402 -0.10352,0.1875 -0.034,0.06259 -0.0705,0.1254502 -0.10546,0.1875 -0.018,0.03075 -0.0347,0.061117 -0.0527,0.091797 -0.018,0.03054 -0.0347,0.061647 -0.0527,0.091797 -0.018,0.03023 -0.0386,0.060284 -0.0586,0.089844 -0.019,0.02948 -0.0366,0.059091 -0.0566,0.087891 -0.02,0.029 -0.0415,0.056085 -0.0625,0.083984 -0.02,0.02801 -0.0405,0.057104 -0.0625,0.083984 -0.022,0.02697 -0.0444,0.052435 -0.0684,0.078125 -0.011,0.01301 -0.0231,0.024559 -0.0351,0.037109 -0.011,0.01279 -0.0251,0.026842 -0.0371,0.039063 -0.013,0.01203 -0.0251,0.023296 -0.0371,0.035156 -0.013,0.0118 -0.0261,0.023646 -0.0391,0.035156 -0.013,0.01158 -0.027,0.022103 -0.041,0.033203 -0.014,0.01095 -0.027,0.022553 -0.041,0.033203 -0.014,0.0107 -0.028,0.02098 -0.043,0.03125 -0.014,0.01043 -0.028,0.019507 -0.043,0.029297 -0.015,0.00974 -0.0319,0.019937 -0.0469,0.029297 -0.016,0.00945 -0.0309,0.018414 -0.0469,0.027344 -0.016,0.00876 -0.0328,0.018924 -0.0488,0.027344 -0.017,0.00845 -0.0328,0.015567 -0.0508,0.023437 -0.017,0.0077 -0.0347,0.016068 -0.0527,0.023437 -0.018,0.00735 -0.0367,0.014674 -0.0547,0.021484 0.41,0.2426196 0.65126,0.4341538 1.28126,0.4335938 0.019,-0.00492 0.0386,-0.00819 0.0566,-0.013672 0.019,-0.00553 0.0367,-0.011468 0.0547,-0.017578 0.018,-0.00583 -0.10003,-0.077341 -0.082,-0.082031 0.018,-0.00483 0.0347,-0.010275 0.0527,-0.015625 0.018,-0.00512 0.0338,-0.011618 0.0508,-0.017578 0.017,-0.00607 0.0367,-0.011148 0.0527,-0.017578 0.017,-0.00633 0.0318,-0.012561 0.0488,-0.019531 0.016,-0.00729 0.0328,-0.013944 0.0488,-0.021484 0.016,-0.00754 0.0309,-0.017421 0.0469,-0.025391 0.016,-0.00778 0.0319,-0.014998 0.0469,-0.023437 0.015,-0.00863 0.0299,-0.016451 0.0449,-0.025391 0.015,-0.00884 0.029,-0.017964 0.043,-0.027344 0.016,-0.00905 0.0299,-0.019527 0.0449,-0.029297 0.013,-0.0102 0.029,-0.019157 0.043,-0.029297 0.029,-0.02024 0.055,-0.04082 0.082,-0.0625 0.027,-0.02182 0.0541,-0.045349 0.0801,-0.068359 0.026,-0.02309 0.0521,-0.046313 0.0781,-0.070312 0.025,-0.02433 0.0512,-0.047346 0.0762,-0.072266 0.025,-0.02477 0.0492,-0.050562 0.0742,-0.076172 0.024,-0.02576 0.0463,-0.051895 0.0703,-0.078125 0.024,-0.02603 0.0483,-0.053408 0.0723,-0.080078 0.047,-0.05333 0.0946,-0.1061764 0.14063,-0.1601562 0.047,-0.05403 0.0936,-0.1088296 0.14062,-0.1621094 0.025,-0.02623 0.0463,-0.051855 0.0703,-0.078125 0.025,-0.02603 0.0483,-0.052465 0.0723,-0.078125 0.024,-0.02575 0.0492,-0.051302 0.0742,-0.076172 0.025,-0.02477 0.0492,-0.050219 0.0742,-0.074219 0.025,-0.02433 0.11748,-0.00561 0.14648,-0.025391 0.028,-0.02001 0.0589,-0.040114 0.0879,-0.058594 0.029,-0.01864 0.0579,-0.035824 0.0879,-0.052734 0.015,-0.00877 0.0319,-0.017311 0.0469,-0.025391 0.015,-0.0086 0.0319,-0.015827 0.0469,-0.023437 0.016,-0.00726 0.0309,-0.014294 0.0469,-0.021484 0.016,-0.00707 0.0309,-0.012771 0.0469,-0.019531 0.016,-0.00687 0.0318,-0.013321 0.0488,-0.019531 0.017,-0.00591 0.0338,-0.013951 0.0508,-0.019531 0.016,-0.00569 0.0338,-0.010505 0.0508,-0.015625 0.017,-0.00547 0.0328,-0.00919 0.0508,-0.013672 0.017,-0.00437 0.0357,-0.00973 0.0527,-0.013672 0.018,-0.00412 0.0347,-0.00648 0.0527,-0.00977 0.019,-0.00306 0.0377,-0.00709 0.0566,-0.00977 0.018,-0.00279 0.0357,-0.00581 0.0547,-0.00781 0.019,-0.00165 0.0376,-0.00255 0.0566,-0.00391 0.019,-0.00131 0.0386,-0.00331 0.0586,-0.00391 -0.294,-0.4304592 -1.03885,-0.8907163 -1.58985,-0.9101563 z m -9.57812,0.5625 c -0.52,0.0488 -1.20191,0.491136 -1.50391,0.953125 -0.005,0.01869 -0.0106,0.036097 -0.0156,0.054687 -0.004,0.01854 -0.01,0.038261 -0.0137,0.056641 -0.005,0.0188 -0.007,0.036398 -0.01,0.054687 -0.004,0.01816 -0.005,0.036518 -0.008,0.054688 -0.003,0.01842 -0.005,0.036758 -0.006,0.054687 -0.002,0.01781 -0.005,0.036758 -0.006,0.054688 -10e-4,0.01805 -0.003,0.034944 -0.004,0.052734 v 0.052734 c 10e-4,0.01758 0.002,0.035184 0.002,0.052734 0.001,0.0178 9.6e-4,0.035284 0.002,0.052734 0.001,0.01721 0.004,0.033501 0.006,0.050781 0.002,0.0174 0.004,0.035564 0.006,0.052734 0.002,0.01759 0.005,0.035645 0.008,0.052734 0.003,0.01655 0.004,0.033701 0.008,0.050781 0.006,0.0341 0.0154,0.067823 0.0234,0.1015625 0.008,0.03355 0.0154,0.068193 0.0254,0.1015625 0.01,0.03324 0.0202,0.066389 0.0312,0.099609 0.012,0.0328 0.0232,0.064646 0.0352,0.097656 0.012,0.03319 -0.006,0.09345 0.01,0.125 0.016,0.03136 0.0318,0.06251 0.0488,0.09375 0.016,0.03159 0.0338,0.06261 0.0508,0.09375 0.035,0.0622 0.0705,0.1254302 0.10547,0.1875 0.036,0.062 0.0715,0.1233371 0.10547,0.1855469 0.017,0.03175 0.0338,0.06251 0.0508,0.09375 0.016,0.03159 0.0338,0.0622 0.0488,0.09375 0.017,0.03135 0.0319,0.063973 0.0469,0.095703 0.015,0.03194 0.029,0.063663 0.043,0.095703 0.015,0.03157 0.029,0.063263 0.041,0.095703 0.014,0.03216 0.0261,0.066789 0.0371,0.099609 0.011,0.03261 0.0223,0.064306 0.0312,0.097656 0.006,0.01629 0.01,0.034021 0.0137,0.050781 0.005,0.01614 0.008,0.033911 0.0117,0.050781 0.003,0.01734 0.009,0.033751 0.0117,0.050781 0.004,0.01717 0.005,0.033651 0.008,0.050781 0.004,0.01699 0.006,0.035384 0.008,0.052734 0.002,0.01769 0.006,0.035094 0.008,0.052734 0.002,0.01749 0.003,0.035034 0.004,0.052734 0.002,0.01728 0.002,0.034774 0.002,0.052734 v 0.054687 c 0,0.01788 -9.5e-4,0.036487 -0.002,0.054687 -0.001,0.01861 5e-5,0.036247 -0.002,0.054687 -10e-4,0.01837 -0.004,0.037901 -0.006,0.056641 -0.003,0.01914 -0.005,0.037751 -0.008,0.056641 -0.003,0.01896 -0.006,0.037471 -0.01,0.056641 0.422,-0.2217196 0.71992,-0.3404104 1.04492,-0.8808594 0.006,-0.01867 0.0106,-0.038051 0.0156,-0.056641 0.005,-0.01853 0.01,-0.036308 0.0137,-0.054687 0.005,-0.0188 0.008,-0.036348 0.0117,-0.054687 0.003,-0.01816 0.006,-0.038531 0.008,-0.056641 0.003,-0.01841 0.004,-0.034804 0.006,-0.052734 10e-4,-0.01781 0.003,-0.036768 0.004,-0.054687 0.002,-0.01806 0.004,-0.034934 0.004,-0.052734 v -0.052734 c 0,-0.01758 -9.5e-4,-0.035174 -0.002,-0.052734 0,-0.01779 3e-5,-0.035274 -0.002,-0.052734 -0.001,-0.01721 -0.084,0.021286 -0.084,0.00391 0,-0.01748 10e-4,-0.033471 0,-0.050781 0,-0.01768 -0.002,-0.037397 -0.004,-0.054687 -0.002,-0.0168 -0.002,-0.033531 -0.004,-0.050781 -0.003,-0.03455 -0.007,-0.069166 -0.0117,-0.1035156 -0.005,-0.0342 -0.0116,-0.069386 -0.0176,-0.1035156 -0.007,-0.03403 -0.0135,-0.067463 -0.0215,-0.1015625 -0.009,-0.03373 -0.0183,-0.067563 -0.0273,-0.1015625 -0.008,-0.03415 -0.0173,-0.067593 -0.0273,-0.1015625 -0.01,-0.03381 -0.0213,-0.067693 -0.0312,-0.1015625 -0.011,-0.03408 -0.0212,-0.067773 -0.0332,-0.1015625 -0.022,-0.06759 -0.0454,-0.1356052 -0.0684,-0.203125 -0.023,-0.06747 -0.0464,-0.1354852 -0.0684,-0.203125 -0.01,-0.03427 -0.0213,-0.067753 -0.0312,-0.1015625 -0.011,-0.03408 -0.0232,-0.067643 -0.0332,-0.1015625 -0.01,-0.03381 -0.0183,-0.067513 -0.0273,-0.1015625 -0.009,-0.03415 -0.0174,-0.067453 -0.0254,-0.1015625 -0.008,-0.03373 -0.0155,-0.069266 -0.0215,-0.1035156 -0.007,-0.03402 -0.0126,-0.067203 -0.0176,-0.1015626 -0.005,-0.03419 -0.01,-0.068966 -0.0137,-0.1035156 -0.002,-0.01699 -0.003,-0.035444 -0.004,-0.052734 -0.002,-0.0168 -0.003,-0.035374 -0.004,-0.052734 0,-0.01768 10e-4,-0.035364 0,-0.052734 v -0.050781 c 0,-0.01727 9.6e-4,-0.035244 0.002,-0.052734 10e-4,-0.01775 0.003,-0.035104 0.004,-0.052734 0.002,-0.01752 0.004,-0.035124 0.006,-0.052734 10e-4,-0.01728 0.005,-0.034995 0.008,-0.052734 0.003,-0.01785 0.007,-0.034994 0.01,-0.052734 0.003,-0.01759 0.006,-0.034884 0.01,-0.052734 0.005,-0.01807 0.118,-0.097864 0.125,-0.1152344 0.006,-0.01729 0.0145,-0.035344 0.0215,-0.052734 0.008,-0.01765 0.0154,-0.035394 0.0234,-0.052734 0.008,-0.0174 0.0164,-0.033401 0.0254,-0.050781 z m 11.32226,0.4550782 c -0.02,6.698e-4 -0.0396,6.531e-4 -0.0586,0.00195 -0.019,0.00137 -0.0376,0.00382 -0.0566,0.00586 -0.019,0.00165 -0.0367,0.00513 -0.0547,0.00781 -0.018,0.00279 -0.0386,0.00452 -0.0566,0.00781 -0.018,0.00305 -0.0347,0.00772 -0.0527,0.011719 -0.017,0.00411 -0.0338,0.00919 -0.0508,0.013672 -0.018,0.00437 -0.0357,0.00861 -0.0527,0.013672 -0.016,0.00546 -0.0348,0.00992 -0.0508,0.015625 -0.017,0.00569 -0.0328,0.013381 -0.0488,0.019531 -0.017,0.00591 -0.0328,0.010928 -0.0488,0.017578 -0.016,0.00686 -0.0319,0.014294 -0.0469,0.021484 -0.016,0.00707 -0.0328,0.013814 -0.0488,0.021484 -0.016,0.00727 -0.0319,0.015358 -0.0469,0.023437 -0.015,0.0086 -0.0319,0.016961 -0.0469,0.025391 -0.03,0.01691 -0.0589,0.034274 -0.0879,0.052734 -0.029,0.01864 -0.0599,0.036751 -0.0879,0.056641 -0.029,0.02002 -0.0579,0.04155 -0.0859,0.0625 -0.027,0.02136 -0.055,0.042513 -0.082,0.064453 -0.028,0.02176 -0.055,0.043726 -0.082,0.066406 -0.027,0.02285 -0.0531,0.046913 -0.0801,0.070312 -0.027,0.02312 -0.0541,0.044539 -0.0801,0.068359 -0.053,0.0477 -0.10425,0.096191 -0.15625,0.1445313 -0.053,0.0484 -0.0936,0.1087394 -0.14062,0.1621094 -0.025,0.02624 -0.0493,0.051855 -0.0723,0.078125 -0.025,0.02604 -0.0463,0.052515 -0.0703,0.078125 -0.024,0.02576 -0.0492,0.051262 -0.0742,0.076172 -0.025,0.02477 -0.0512,0.050219 -0.0762,0.074219 -0.025,0.02433 -0.0521,0.047413 -0.0781,0.070312 -0.026,0.0231 -0.0531,0.044726 -0.0801,0.066406 -0.027,0.02183 -0.054,0.04226 -0.082,0.0625 -0.013,0.01038 -0.029,0.019527 -0.043,0.029297 -0.014,0.0102 -0.0299,0.019917 -0.0449,0.029297 -0.015,0.00905 -0.028,0.018414 -0.043,0.027344 -0.015,0.00884 -0.0299,0.016861 -0.0449,0.025391 -0.015,0.00863 -0.0319,0.017371 -0.0469,0.025391 -0.016,0.00778 -0.0309,0.015987 -0.0469,0.023437 -0.016,0.00755 -0.0328,0.014474 -0.0488,0.021484 -0.016,0.0073 -0.0328,0.013111 -0.0488,0.019531 -0.017,0.00633 -0.0357,0.013611 -0.0527,0.019531 -0.016,0.00606 -0.0338,0.010225 -0.0508,0.015625 -0.018,0.00512 -0.0347,0.010835 -0.0527,0.015625 -0.018,0.00483 -0.0367,0.00957 -0.0547,0.013672 -0.019,0.00382 -0.0376,0.0082 -0.0566,0.011719 -0.019,0.00347 -0.0376,0.00695 -0.0566,0.00977 0.35,0.3229994 0.52462,0.5572829 1.14062,0.6953125 0.019,-6.6e-4 -0.0991,-0.1084017 -0.0801,-0.1074219 0.019,9.2e-4 0.0406,0.00176 0.0586,0.00195 0.02,6.7e-4 0.0367,4e-4 0.0547,0 0.019,-5.9e-4 0.0386,-0.00273 0.0566,-0.00391 0.019,-8.4e-4 0.0367,-0.00203 0.0547,-0.00391 0.018,-0.00202 0.0347,-0.00543 0.0527,-0.00781 0.018,-0.00224 0.0347,-0.00286 0.0527,-0.00586 0.017,-0.00346 0.0357,-0.00805 0.0527,-0.011719 0.017,-0.00367 0.0357,-0.00757 0.0527,-0.011719 0.017,-0.00386 0.0338,-0.009 0.0508,-0.013672 0.016,-0.00494 0.0318,-0.00841 0.0488,-0.013672 0.017,-0.00512 0.0318,-0.00987 0.0488,-0.015625 0.016,-0.00529 0.0328,-0.011388 0.0488,-0.017578 0.016,-0.0068 0.0348,-0.012911 0.0508,-0.019531 0.032,-0.01318 0.0618,-0.028139 0.0937,-0.042969 0.031,-0.01503 0.0638,-0.030525 0.0937,-0.046875 0.031,-0.01648 0.0618,-0.033311 0.0918,-0.050781 0.03,-0.01793 0.0598,-0.034234 0.0898,-0.052734 0.03,-0.01831 0.0608,-0.037351 0.0898,-0.056641 0.03,-0.01948 0.0589,-0.040557 0.0879,-0.060547 0.03,-0.01973 0.0579,-0.040047 0.0879,-0.060547 0.058,-0.041 0.11583,-0.081307 0.17383,-0.1230468 0.058,-0.04181 0.11583,-0.08407 0.17383,-0.125 0.03,-0.01989 0.0569,-0.040487 0.0859,-0.060547 0.03,-0.01972 0.0862,-0.012927 0.11719,-0.029297 0.031,-0.01652 0.0617,-0.033398 0.0937,-0.048828 0.031,-0.01528 0.0637,-0.030502 0.0957,-0.044922 0.032,-0.01494 0.0627,-0.027876 0.0957,-0.041016 0.032,-0.01342 0.0647,-0.025409 0.0977,-0.037109 0.032,-0.01192 0.0666,-0.023223 0.0996,-0.033203 0.016,-0.00541 0.0318,-0.00908 0.0488,-0.013672 0.016,-0.00525 0.0338,-0.00961 0.0508,-0.013672 0.018,-0.00362 0.0338,-0.00811 0.0508,-0.011719 0.018,-0.00346 0.0357,-0.00662 0.0527,-0.00977 0.017,-0.00329 0.0328,-0.00528 0.0508,-0.00781 0.017,-0.00215 0.0357,-0.00404 0.0527,-0.00586 0.018,-0.00197 0.0357,-0.00452 0.0527,-0.00586 0.018,-0.00178 0.0933,0.065736 0.11133,0.066406 0.018,8.198e-4 0.0347,0.00266 0.0527,0.00391 0.018,0.00102 0.0367,0.00191 0.0547,0.00391 0.018,0.00232 0.0376,0.00514 0.0566,0.00781 0.018,0.00252 0.0357,0.00437 0.0547,0.00781 0.019,0.00391 0.0376,0.00758 0.0566,0.011719 0.019,0.00421 0.0357,0.00867 0.0547,0.013672 -0.159,-0.496709 -0.85177,-1.2056335 -1.38477,-1.3457031 z m -12.97656,0.6113281 c -0.502,0.1434296 -0.99105,0.5841566 -1.24805,1.0722656 -0.003,0.01912 -0.007,0.037681 -0.01,0.056641 -0.003,0.01889 -0.007,0.037981 -0.01,0.056641 -0.002,0.01914 -0.002,0.036178 -0.004,0.054687 -10e-4,0.01837 -0.003,0.038311 -0.004,0.056641 -10e-4,0.01861 0,0.034714 0,0.052734 v 0.054688 c 0,0.01811 9.5e-4,0.036918 0.002,0.054687 0.002,0.01729 0.003,0.035234 0.004,0.052734 0.002,0.01749 0.004,0.035324 0.006,0.052734 0.002,0.01769 0.005,0.033521 0.008,0.050781 0.003,0.01699 0.006,0.033751 0.01,0.050781 0.003,0.01717 0.006,0.033911 0.01,0.050781 0.004,0.01735 0.009,0.035984 0.0137,0.052734 0.005,0.01614 0.009,0.032118 0.0137,0.048828 0.009,0.03335 0.0203,0.06679 0.0312,0.099609 0.012,0.03261 0.0241,0.065366 0.0371,0.097656 0.013,0.03217 0.0251,0.065606 0.0391,0.097656 0.001,0.00261 0.003,0.0052 0.004,0.00781 l 1.84571,1.1542969 c 10e-4,-0.00273 0.003,-0.00506 0.004,-0.00781 0.003,-0.0191 0.009,-0.037681 0.0117,-0.056641 0.003,-0.01889 0.005,-0.037971 0.008,-0.056641 0.002,-0.01915 0.004,-0.038071 0.006,-0.056641 0.001,-0.01837 9.6e-4,-0.036427 0.002,-0.054687 10e-4,-0.01861 0.002,-0.036677 0.002,-0.054687 v -0.054687 c 0,-0.0181 -9.5e-4,-0.034974 -0.002,-0.052734 -0.002,-0.01729 -0.003,-0.035234 -0.004,-0.052734 -0.002,-0.01749 -0.006,-0.035314 -0.008,-0.052734 -0.002,-0.01769 -0.005,-0.035474 -0.008,-0.052734 -0.003,-0.017 -0.006,-0.033741 -0.01,-0.050781 -0.003,-0.01717 -0.006,-0.033911 -0.01,-0.050781 -0.004,-0.01734 -0.007,-0.034031 -0.0117,-0.050781 -0.005,-0.01614 -0.0106,-0.034151 -0.0156,-0.050781 -0.009,-0.03335 -0.0183,-0.066789 -0.0293,-0.099609 -0.012,-0.03261 -0.0241,-0.065366 -0.0371,-0.097656 -0.013,-0.03216 -0.027,-0.063653 -0.041,-0.095703 -0.015,-0.03157 -0.028,-0.063973 -0.043,-0.095703 -0.015,-0.03194 -0.0309,-0.064143 -0.0469,-0.095703 -0.016,-0.03135 -0.0348,-0.06244 -0.0508,-0.09375 -0.017,-0.03158 -0.0338,-0.06261 -0.0508,-0.09375 -0.034,-0.06227 -0.0685,-0.1234769 -0.10351,-0.1855469 -0.035,-0.062 -0.0715,-0.12516 -0.10547,-0.1875 -0.017,-0.03175 -0.0338,-0.06251 -0.0508,-0.09375 -0.016,-0.03159 -0.0328,-0.06226 -0.0488,-0.09375 -0.016,-0.03135 -0.0319,-0.06195 -0.0469,-0.09375 -0.015,-0.03194 -0.0309,-0.063653 -0.0449,-0.095703 -0.015,-0.03157 -0.0261,-0.065226 -0.0391,-0.097656 -0.013,-0.03216 -0.0251,-0.064826 -0.0371,-0.097656 -0.011,-0.03261 -0.0222,-0.066269 -0.0312,-0.099609 -0.005,-0.0163 -0.01,-0.032068 -0.0137,-0.048828 -0.005,-0.01613 0.0625,-0.092155 0.0606,-0.109375 -0.002,-0.01759 -0.004,-0.035454 -0.006,-0.052734 -0.002,-0.0174 -0.003,-0.033441 -0.004,-0.050781 -0.002,-0.01721 -0.003,-0.035234 -0.004,-0.052734 -0.001,-0.01779 -0.002,-0.035024 -0.002,-0.052734 0,-0.01758 9.5e-4,-0.035004 0.002,-0.052734 0,-0.01736 -4e-5,-0.034814 0.002,-0.052734 0.001,-0.01806 0.002,-0.036697 0.004,-0.054687 0.002,-0.01781 0.004,-0.036507 0.006,-0.054687 0.003,-0.01841 0.007,-0.036408 0.01,-0.054687 0.003,-0.01817 0.006,-0.036247 0.01,-0.054687 0.005,-0.01881 0.009,-0.038111 0.0137,-0.056641 0.005,-0.01859 0.01,-0.035957 0.0156,-0.054687 z m 13.6875,0.8261719 c -0.033,0.00998 -0.0657,0.01956 -0.0977,0.03125 -0.033,0.01192 -0.0657,0.025783 -0.0976,0.039062 -0.032,0.01343 -0.0647,0.026596 -0.0957,0.041016 -0.032,0.01494 -0.0647,0.029412 -0.0957,0.044922 -0.032,0.01528 -0.0637,0.030575 -0.0957,0.046875 -0.031,0.01653 -0.0608,0.033671 -0.0918,0.050781 -0.032,0.01675 -0.0627,0.033221 -0.0937,0.050781 -0.062,0.0352 -0.12354,0.071522 -0.18554,0.1074219 -0.061,0.03597 -0.12455,0.072222 -0.18555,0.1074219 -0.032,0.0169 -0.0608,0.033671 -0.0918,0.050781 -0.032,0.01674 -0.0637,0.034481 -0.0957,0.050781 -0.031,0.01653 -0.0286,0.065474 -0.0586,0.083984 -0.03,0.01831 -0.0598,0.037227 -0.0898,0.054687 -0.03,0.01793 -0.0608,0.034561 -0.0918,0.050781 -0.03,0.01648 -0.0627,0.032045 -0.0937,0.046875 -0.032,0.01503 -0.0618,0.029789 -0.0937,0.042969 -0.016,0.00696 -0.0318,0.011378 -0.0488,0.017578 -0.015,0.0068 -0.0328,0.013761 -0.0488,0.019531 -0.017,0.00529 -0.0348,0.010375 -0.0508,0.015625 -0.017,0.00512 -0.0328,0.00887 -0.0488,0.013672 -0.017,0.00494 -0.0338,0.00946 -0.0508,0.013672 -0.018,0.00386 -0.0347,0.00818 -0.0527,0.011719 -0.017,0.00367 -0.0328,0.00671 -0.0508,0.00977 -0.017,0.00346 -0.0367,0.00544 -0.0547,0.00781 -0.018,0.00225 -0.0347,0.006 -0.0527,0.00781 -0.017,0.00201 -0.0357,0.00267 -0.0547,0.00391 -0.018,8.4e-4 -0.0376,0.00141 -0.0566,0.00195 -0.018,6e-4 -0.0357,0.00221 -0.0547,0.00195 -0.019,-6.6e-4 -0.0366,-0.00103 -0.0566,-0.00195 -0.019,-9.798e-4 -0.0396,-0.00413 -0.0586,-0.00586 0.266,0.3950492 0.27769,0.4744831 0.80469,0.8203125 0.019,0.00622 0.0367,0.012058 0.0547,0.017578 0.019,0.00543 0.0367,0.010975 0.0547,0.015625 0.019,0.00524 0.0386,0.00767 0.0566,0.011719 0.018,0.00379 0.0367,0.00852 0.0547,0.011719 0.018,0.00361 0.0347,0.00538 0.0527,0.00781 0.018,0.00227 0.0357,0.00393 0.0527,0.00586 0.018,0.00209 0.0377,0.0046 0.0547,0.00586 0.018,6.8e-4 0.0357,0.00142 0.0527,0.00195 0.018,5.2e-4 -0.007,-0.06373 0.01,-0.0625 0.018,0.00159 0.0347,0.00128 0.0527,0.00195 0.017,3.2e-4 0.0338,0.00193 0.0508,0.00195 0.018,2e-4 0.0357,5.3e-4 0.0527,0 0.018,8e-5 0.0357,-9.531e-4 0.0527,-0.00195 0.017,-0.00178 0.0338,-0.00246 0.0508,-0.00391 0.035,-0.00282 0.0695,-0.00711 0.10352,-0.011719 0.035,-0.00487 0.0695,-0.00936 0.10351,-0.015625 0.034,-0.00644 0.0685,-0.014044 0.10352,-0.021484 0.034,-0.00805 0.0676,-0.014877 0.10156,-0.023437 0.034,-0.00831 0.0695,-0.017954 0.10352,-0.027344 0.034,-0.00964 0.0676,-0.019137 0.10156,-0.029297 0.034,-0.00981 0.0676,-0.02054 0.10156,-0.03125 0.068,-0.02142 0.13217,-0.046763 0.20117,-0.064453 0.069,-0.01778 0.13999,-0.035924 0.20899,-0.052734 0.035,-0.00763 0.0676,-0.015458 0.10156,-0.023437 0.035,-0.00753 0.0685,-0.016237 0.10352,-0.023437 0.035,-0.00738 0.0705,-0.013321 0.10547,-0.019531 0.035,-0.00602 0.0676,-0.012408 0.10156,-0.017578 0.035,-0.00579 0.0715,-0.00986 0.10547,-0.013672 0.035,-0.00418 0.0685,-0.00744 0.10351,-0.00977 0.034,-0.0026 0.0695,-0.00338 0.10352,-0.00391 0.017,-7.7e-4 0.0357,-0.00209 0.0527,-0.00195 0.017,-6.598e-4 0.0357,0.00125 0.0527,0.00195 0.018,0.00124 0.0621,0.062193 0.0801,0.064453 0.017,0.00245 0.0338,0.00508 0.0508,0.00781 0.017,0.00255 0.0357,0.00442 0.0527,0.00781 0.017,0.00387 0.0338,0.00757 0.0508,0.011719 0.017,0.00397 0.0347,0.00904 0.0527,0.013672 0.016,0.00408 0.0338,0.00827 0.0508,0.013672 0.018,0.00559 0.0338,0.011588 0.0508,0.017578 0.017,0.0057 0.0338,0.012771 0.0508,0.019531 0.017,0.00714 0.0357,0.014034 0.0527,0.021484 0.017,0.00726 0.0338,0.013244 0.0508,0.021484 0.017,0.00879 0.0338,0.018414 0.0508,0.027344 0.017,0.00903 0.0817,0.1410437 0.0977,0.1523437 0.024,-0.520899 -0.46211,-1.3803293 -0.91211,-1.6992187 -0.019,-0.00621 -0.0367,-0.012058 -0.0547,-0.017578 -0.019,-0.00544 -0.0982,-0.092333 -0.11719,-0.095703 -0.019,-0.00392 -0.0367,-0.00514 -0.0547,-0.00781 -0.018,-0.00252 -0.0386,-0.0058 -0.0566,-0.00781 -0.018,-0.00231 -0.0347,-0.00274 -0.0527,-0.00391 -0.018,-0.00102 -0.0367,-0.00128 -0.0547,-0.00195 -0.018,-8.198e-4 -0.0357,-0.00194 -0.0527,-0.00195 -0.018,5.3e-4 -0.0367,0.00124 -0.0547,0.00195 -0.017,7.1e-4 -0.0347,7.532e-4 -0.0527,0.00195 -0.017,8.8e-4 -0.0338,0.00216 -0.0508,0.00391 -0.017,0.00207 -0.0357,0.00543 -0.0527,0.00781 -0.017,0.00222 -0.0338,0.00293 -0.0508,0.00586 -0.017,0.00237 -0.0357,0.00639 -0.0527,0.00977 -0.016,0.00408 -0.0767,-0.042069 -0.0937,-0.037109 z m 0.74219,1.65625 c -0.034,0.0058 -0.0695,0.011288 -0.10352,0.017578 -0.035,0.00603 -0.0695,0.014365 -0.10351,0.021484 -0.035,0.00738 -0.0705,0.013504 -0.10547,0.021484 -0.035,0.00753 -0.0676,0.016941 -0.10156,0.025391 -0.069,0.01698 -0.13999,0.035044 -0.20899,0.052734 -0.069,0.01778 -0.13803,0.033801 -0.20703,0.050781 -0.035,0.00763 -0.0695,0.017411 -0.10351,0.025391 -0.035,0.00753 -0.0695,0.016328 -0.10352,0.023437 -0.035,0.00739 -0.0705,0.013241 -0.10547,0.019531 -0.035,0.00603 -0.0685,0.012418 -0.10351,0.017578 -0.034,0.0058 -0.0695,0.00986 -0.10352,0.013672 -0.035,0.00418 -0.0441,0.052031 -0.0781,0.056641 -0.034,0.00487 -0.0695,0.00696 -0.10351,0.00977 -0.017,0.00189 -0.0338,0.00291 -0.0508,0.00391 -0.017,0.00178 -0.0377,0.00142 -0.0547,0.00195 -0.018,-8e-5 -0.0338,2e-5 -0.0508,0 -0.018,-1.9e-4 -0.0347,4.9e-4 -0.0527,0 -0.017,-3.2e-4 -0.0338,-0.00276 -0.0508,-0.00391 -0.018,-0.00159 -0.0367,-0.00202 -0.0547,-0.00391 -0.018,-0.00172 -0.0347,-0.00348 -0.0527,-0.00586 -0.017,-0.00187 -0.0338,-0.00466 -0.0508,-0.00781 -0.018,-0.00331 -0.0367,-0.00799 -0.0547,-0.011719 -0.017,-0.00347 -0.0347,-0.00739 -0.0527,-0.011719 -0.018,-0.00485 -0.0367,-0.00856 -0.0547,-0.013672 -0.018,-0.00502 0.0161,0.071136 -0.002,0.066406 -0.019,-0.00524 -0.0386,-0.010195 -0.0566,-0.015625 -0.019,-0.00552 -0.0367,-0.011268 -0.0547,-0.017578 0.164,0.4471292 0.0764,0.4797984 0.48437,0.9609376 0.016,0.0112 0.0328,0.022693 0.0488,0.033203 0.016,0.01041 0.0309,0.02163 0.0469,0.03125 0.016,0.01031 0.0318,0.018304 0.0488,0.027344 0.016,0.00875 0.0328,0.017221 0.0488,0.025391 0.017,0.00865 0.0348,0.016048 0.0508,0.023438 0.017,0.00721 0.0328,0.014574 0.0488,0.021484 0.017,0.00711 0.0338,0.013281 0.0508,0.019531 0.016,0.00558 0.0318,0.012088 0.0488,0.017578 0.016,0.00548 0.0338,0.010605 0.0508,0.015625 0.017,0.0054 0.0338,0.00921 0.0508,0.013672 0.017,0.00407 0.0338,0.00987 0.0508,0.013672 0.017,0.00399 0.0338,0.00653 0.0508,0.00977 0.017,0.00392 0.0338,0.00698 0.0508,0.00977 0.017,0.00193 0.0347,0.00547 0.0527,0.00781 0.034,0.00477 0.0685,0.00873 0.10352,0.011719 0.034,0.00271 0.0685,0.00647 0.10351,0.00781 0.035,0.00114 0.0705,0.00177 0.10547,0.00195 0.035,-4.9e-4 0.0529,-0.059591 0.0879,-0.056641 0.035,0.00325 0.0695,0.00564 0.10547,0.00781 0.035,0.00187 0.0705,0.00444 0.10547,0.00586 0.036,0.0018 0.0714,0.00108 0.10742,0.00195 0.071,0.00173 0.14189,0.00294 0.21289,0.00391 0.072,8.6e-4 0.14285,0.00208 0.21485,0.00391 0.035,0.00177 0.0714,0.0026 0.10742,0.00391 0.035,0.00181 0.0705,0.00183 0.10547,0.00391 0.035,0.00187 0.0705,0.00476 0.10547,0.00781 0.035,0.00325 0.0685,0.00767 0.10351,0.011719 0.034,0.00335 0.0695,0.00831 0.10352,0.013672 0.035,0.00497 0.0695,0.010788 0.10351,0.017578 0.034,0.0065 0.0676,0.014898 0.10157,0.023437 0.017,0.00372 0.0338,0.00901 0.0508,0.013672 0.017,0.00377 0.0338,0.00846 0.0508,0.013672 0.016,0.0058 0.0328,0.011938 0.0488,0.017578 0.017,0.00585 0.0309,0.011478 0.0469,0.017578 0.017,0.0059 0.0348,0.012781 0.0508,0.019531 0.016,0.00724 0.0328,0.013994 0.0488,0.021484 0.016,0.0073 0.0309,0.015488 0.0469,0.023437 0.016,0.00735 0.0309,0.014728 0.0469,0.023437 0.016,0.0089 0.0309,0.018074 0.0469,0.027344 0.015,0.00896 0.0319,0.019277 0.0469,0.029297 0.015,0.01043 0.0319,0.02056 0.0469,0.03125 0.015,0.01049 0.0299,0.021753 0.0449,0.033203 0.015,0.01205 0.0505,0.1641945 0.0644,0.1777343 0.013,0.01364 0.027,0.028589 0.041,0.042969 0.133,-0.504289 -0.0965,-1.3303227 -0.4375,-1.7636719 -0.016,-0.01119 -0.0328,-0.022693 -0.0488,-0.033203 -0.016,-0.01041 -0.0309,-0.02162 -0.0469,-0.03125 -0.016,-0.01031 -0.0328,-0.018404 -0.0488,-0.027344 -0.016,-0.00875 -0.0338,-0.017131 -0.0508,-0.025391 -0.016,-0.00865 -0.0728,-0.1249694 -0.0898,-0.1308594 -0.017,-0.00571 -0.0347,-0.012178 -0.0527,-0.017578 -0.017,-0.00559 -0.0338,-0.010895 -0.0508,-0.015625 -0.017,-0.00408 -0.0338,-0.0097 -0.0508,-0.013672 -0.017,-0.00397 -0.0357,-0.00629 -0.0527,-0.00977 -0.017,-0.00387 -0.0347,-0.00685 -0.0527,-0.00977 -0.017,-0.00255 -0.0328,-0.00555 -0.0508,-0.00781 -0.017,-0.00245 -0.0338,-0.00416 -0.0508,-0.00586 -0.018,-0.00235 -0.0357,-0.00461 -0.0527,-0.00586 -0.017,-4.1e-4 -0.0357,-0.00107 -0.0527,-0.00195 -0.035,-0.00168 -0.0685,-0.00404 -0.10351,-0.00391 -0.034,4e-4 -0.0705,0.00212 -0.10547,0.00391 -0.034,0.00198 -0.0841,-0.034457 -0.11914,-0.029297 z m -1.68164,1.4765624 c 0.031,0.4752292 -0.0324,0.6061806 0.26562,1.1621094 0.013,0.01428 0.027,0.027376 0.041,0.041016 0.013,0.01354 0.0261,0.028226 0.0391,0.041016 0.014,0.0135 0.027,0.024859 0.041,0.037109 0.014,0.01195 0.0299,0.023746 0.0449,0.035156 0.014,0.01192 0.028,0.022533 0.043,0.033203 0.014,0.01047 0.0299,0.02102 0.0449,0.03125 0.015,0.01044 0.028,0.019697 0.043,0.029297 0.015,0.0089 0.0299,0.018484 0.0449,0.027344 0.016,0.00886 0.0309,0.018914 0.0469,0.027344 0.015,0.00883 0.0319,0.015538 0.0469,0.023437 0.016,0.0075 0.0309,0.016167 0.0469,0.023437 0.015,0.00746 0.0309,0.014754 0.0469,0.021484 0.016,0.00745 0.0328,0.013221 0.0488,0.019531 0.016,0.0054 0.0318,0.011698 0.0488,0.017578 0.032,0.01187 0.0646,0.023033 0.0976,0.033203 0.033,0.00987 0.0676,0.020717 0.10156,0.029297 0.034,0.00838 0.0647,-0.04183 0.0977,-0.03125 0.033,0.00987 0.0656,0.019737 0.0996,0.029297 0.033,0.00987 0.0685,0.018504 0.10352,0.027344 0.034,0.00854 0.0676,0.017271 0.10156,0.025391 0.035,0.00853 0.0705,0.015818 0.10547,0.023437 0.069,0.01523 0.13898,0.030412 0.20898,0.044922 0.07,0.01441 0.13899,0.027629 0.20899,0.042969 0.035,0.00852 0.0695,0.017361 0.10351,0.025391 0.035,0.00853 0.0685,0.014698 0.10352,0.023437 0.034,0.00854 0.0676,0.017674 0.10156,0.027344 0.034,0.00986 0.0666,0.02067 0.0996,0.03125 0.034,0.00987 0.0686,0.021383 0.10156,0.033203 0.032,0.0114 0.0637,0.023969 0.0957,0.037109 0.033,0.01284 0.0637,0.026236 0.0957,0.041016 0.015,0.00683 0.0319,0.015688 0.0469,0.023437 0.016,0.00683 0.0319,0.017131 0.0469,0.025391 0.015,0.00887 0.0319,0.016711 0.0469,0.025391 0.015,0.00887 0.028,0.016311 0.043,0.025391 0.014,0.00888 0.0299,0.019607 0.0449,0.029297 0.014,0.0102 0.028,0.018887 0.043,0.029297 0.014,0.01021 0.029,0.02045 0.043,0.03125 0.014,0.0102 0.027,0.02366 0.041,0.03516 0.013,0.0118 0.027,0.02316 0.041,0.03516 0.013,0.0118 0.027,0.02431 0.041,0.03711 0.013,0.0132 0.0271,0.02566 0.0391,0.03906 0.013,0.0132 0.0261,0.02691 0.0391,0.04101 0.012,0.0147 0.0222,0.148363 0.0332,0.164063 0.011,0.0158 0.0193,0.03038 0.0293,0.04687 0.219,-0.4736688 0.16488,-1.2664892 -0.0781,-1.7617182 -0.013,-0.01428 -0.027,-0.029329 -0.041,-0.042969 -0.013,-0.01354 -0.027,-0.026263 -0.041,-0.039062 -0.013,-0.0135 -0.027,-0.024959 -0.041,-0.037109 -0.015,-0.01196 -0.028,-0.023646 -0.043,-0.035156 -0.014,-0.01192 -0.028,-0.022533 -0.043,-0.033203 -0.014,-0.01047 -0.0299,-0.02101 -0.0449,-0.03125 -0.015,-0.01043 -0.0485,-0.1423406 -0.0644,-0.1503906 -0.016,-0.00736 -0.0309,-0.016148 -0.0469,-0.023437 -0.016,-0.0073 -0.0348,-0.012681 -0.0508,-0.019531 -0.016,-0.00724 -0.0318,-0.015194 -0.0488,-0.021484 -0.016,-0.0059 -0.0299,-0.011928 -0.0469,-0.017578 -0.016,-0.00585 -0.0328,-0.010515 -0.0488,-0.015625 -0.017,-0.0058 -0.0338,-0.010965 -0.0508,-0.015625 -0.016,-0.00377 -0.0338,-0.00935 -0.0508,-0.013672 -0.034,-0.00854 -0.0676,-0.016638 -0.10156,-0.023437 -0.034,-0.00649 -0.0685,-0.012418 -0.10352,-0.017578 -0.034,-0.00496 -0.0695,-0.00962 -0.10351,-0.013672 -0.035,-0.00335 -0.0685,-0.00682 -0.10352,-0.00977 -0.035,-0.00325 -0.0705,-0.00563 -0.10547,-0.00781 -0.035,-0.00187 -0.0705,-0.00455 -0.10547,-0.00586 -0.036,-0.00181 -0.0724,-0.00304 -0.10742,-0.00391 -0.072,-0.00163 -0.14284,-9.931e-4 -0.21484,-0.00195 -0.071,-8.7e-4 -0.14189,-0.00228 -0.21289,-0.00391 -0.036,-0.00176 -0.0724,-0.00259 -0.10743,-0.00391 -0.036,-0.0018 -0.0705,-0.00369 -0.10546,-0.00586 -0.036,-0.00188 -0.0705,-0.00486 -0.10547,-0.00781 -0.035,-0.00325 -0.0685,-0.00573 -0.10352,-0.00977 -0.035,-0.00336 -0.0705,-0.00831 -0.10547,-0.013672 -0.034,-0.00497 -0.0676,-0.010788 -0.10156,-0.017578 -0.034,-0.0065 -0.0686,-0.014898 -0.10156,-0.023437 -0.017,-0.00372 -0.0338,-0.00901 -0.0508,-0.013672 -0.016,-0.00377 -0.0348,-0.010525 -0.0508,-0.015625 -0.017,-0.0058 -0.004,0.099503 -0.0215,0.095703 -0.017,-0.00399 -0.0338,-0.00746 -0.0508,-0.011719 -0.017,-0.00407 -0.0318,-0.00875 -0.0488,-0.013672 -0.017,-0.0054 -0.0338,-0.00995 -0.0508,-0.015625 -0.017,-0.00549 -0.0348,-0.011418 -0.0508,-0.017578 -0.017,-0.00557 -0.0338,-0.012621 -0.0508,-0.019531 -0.016,-0.00711 -0.0318,-0.013994 -0.0488,-0.021484 -0.016,-0.00721 -0.0328,-0.015368 -0.0488,-0.023437 -0.017,-0.00865 -0.0328,-0.018494 -0.0488,-0.027344 -0.016,-0.00875 -0.0348,-0.017624 -0.0508,-0.027344 -0.016,-0.0103 -0.0309,-0.018887 -0.0469,-0.029297 -0.016,-0.0105 -0.0328,-0.021913 -0.0488,-0.033203 z m 0.28515,1.3496094 c -0.069,0.4712492 -0.16184,0.6468454 0.0352,1.2460936 0.011,0.0164 0.0222,0.03303 0.0332,0.04883 0.011,0.0156 0.0203,0.02992 0.0312,0.04492 0.012,0.0157 0.0242,0.03042 0.0352,0.04492 0.012,0.0142 0.0251,0.02927 0.0371,0.04297 0.012,0.0142 0.0251,0.02596 0.0371,0.03906 0.013,0.0128 0.0261,0.02636 0.0391,0.03906 0.012,0.0128 0.0241,0.02501 0.0371,0.03711 0.013,0.0113 0.027,0.02376 0.041,0.03516 0.013,0.0113 0.027,0.0222 0.041,0.0332 0.014,0.0114 0.027,0.02085 0.041,0.03125 0.014,0.0101 0.027,0.02135 0.041,0.03125 0.015,0.0101 0.029,0.0199 0.043,0.0293 0.015,0.0102 0.0299,0.0203 0.0449,0.0293 0.015,0.0081 0.0299,0.01669 0.0449,0.02539 0.03,0.0173 0.0608,0.03303 0.0918,0.04883 0.031,0.0155 0.0627,0.03257 0.0937,0.04687 0.032,0.0141 0.0647,0.02772 0.0977,0.04102 0.032,0.0126 0.0627,0.02471 0.0957,0.03711 0.033,0.0126 0.0696,-0.0083 0.10156,0.0059 0.033,0.0139 0.0666,0.02751 0.0996,0.04101 0.032,0.0139 0.0647,0.02606 0.0977,0.03906 0.066,0.0262 0.13222,0.05273 0.19922,0.07813 0.067,0.0254 0.13517,0.04997 0.20117,0.07617 0.033,0.014 0.0647,0.02761 0.0977,0.04101 0.033,0.0139 0.0657,0.02496 0.0977,0.03906 0.033,0.0139 0.0657,0.03002 0.0977,0.04492 0.032,0.0151 0.0627,0.02912 0.0937,0.04492 0.032,0.015 0.0608,0.03193 0.0918,0.04883 0.03,0.0165 0.0618,0.03463 0.0918,0.05273 0.029,0.0178 0.0589,0.03704 0.0879,0.05664 0.014,0.0093 0.027,0.0192 0.041,0.0293 0.015,0.0093 0.029,0.02065 0.043,0.03125 0.013,0.0111 0.028,0.0222 0.041,0.0332 0.014,0.0111 0.0251,0.0219 0.0391,0.0332 0.013,0.0111 0.0261,0.02326 0.0391,0.03516 0.012,0.0124 0.0251,0.02461 0.0371,0.03711 0.013,0.0124 0.0251,0.02411 0.0371,0.03711 0.013,0.0123 0.0251,0.02742 0.0371,0.04101 0.011,0.0138 0.0232,0.02702 0.0352,0.04102 0.011,0.0138 0.0222,0.02827 0.0332,0.04297 0.011,0.0151 0.0232,0.02972 0.0332,0.04492 0.011,0.0151 0.0213,0.03097 0.0312,0.04687 0.01,0.0165 0.0203,0.03233 0.0293,0.04883 0.01,0.0165 0.0183,0.03358 0.0273,0.05078 0.255,-0.4554 0.33073,-1.08143 0.17773,-1.611328 -0.011,-0.0164 -0.0202,-0.03303 -0.0312,-0.04883 -0.011,-0.0157 -0.0222,-0.03197 -0.0332,-0.04687 -0.011,-0.0157 -0.0232,-0.02857 -0.0351,-0.04297 -0.012,-0.0142 -0.0232,-0.02917 -0.0352,-0.04297 -0.013,-0.0143 -0.0251,-0.02801 -0.0371,-0.04101 -0.013,-0.0128 -0.0261,-0.02451 -0.0391,-0.03711 -0.013,-0.0129 -0.0231,-0.127772 -0.0371,-0.138672 -0.014,-0.0102 -0.029,-0.02105 -0.043,-0.03125 -0.014,-0.0102 -0.0309,-0.02145 -0.0449,-0.03125 -0.015,-0.0102 -0.028,-0.01804 -0.043,-0.02734 -0.015,-0.0089 -0.0299,-0.01874 -0.0449,-0.02734 -0.015,-0.0089 -0.0289,-0.01729 -0.0449,-0.02539 -0.015,-0.0089 -0.0319,-0.01769 -0.0469,-0.02539 -0.016,-0.0068 -0.0309,-0.01409 -0.0469,-0.02149 -0.032,-0.014829 -0.0637,-0.029819 -0.0957,-0.042969 -0.032,-0.01283 -0.0647,-0.025499 -0.0977,-0.037109 -0.033,-0.01141 -0.0647,-0.022613 -0.0976,-0.033203 -0.034,-0.00987 -0.0676,-0.019737 -0.10156,-0.029297 -0.034,-0.00987 -0.0676,-0.018504 -0.10157,-0.027344 -0.034,-0.00854 -0.0695,-0.017361 -0.10351,-0.025391 -0.035,-0.00853 -0.0685,-0.015828 -0.10352,-0.023438 -0.069,-0.01513 -0.14095,-0.030402 -0.21093,-0.044922 -0.069,-0.01441 -0.13999,-0.029792 -0.20899,-0.044922 -0.035,-0.00853 -0.0685,-0.015408 -0.10351,-0.023437 -0.034,-0.00853 -0.0695,-0.016541 -0.10352,-0.025391 -0.034,-0.00853 -0.0676,-0.017774 -0.10156,-0.027344 -0.034,-0.00986 -0.0676,-0.018707 -0.10157,-0.029297 -0.033,-0.00987 -0.0666,-0.021393 -0.0996,-0.033203 -0.033,-0.01141 -0.0657,-0.023969 -0.0976,-0.037109 -0.032,-0.01284 -0.0618,-0.028189 -0.0937,-0.042969 -0.016,-0.00683 -0.0309,-0.013734 -0.0469,-0.021484 -0.015,-0.00683 -0.0309,-0.017231 -0.0469,-0.025391 -0.015,-0.00887 -0.0319,-0.016721 -0.0469,-0.025391 -0.015,-0.00888 -0.0241,0.079966 -0.0391,0.072266 -0.016,-0.00749 -0.0309,-0.017061 -0.0469,-0.025391 -0.015,-0.00883 -0.0299,-0.016321 -0.0449,-0.025391 -0.015,-0.00886 -0.0319,-0.017854 -0.0469,-0.027344 -0.015,-0.0089 -0.028,-0.019067 -0.043,-0.029297 -0.014,-0.01044 -0.0299,-0.02048 -0.0449,-0.03125 -0.014,-0.01047 -0.029,-0.021893 -0.043,-0.033203 -0.014,-0.01191 -0.029,-0.023096 -0.043,-0.035156 -0.014,-0.01195 -0.027,-0.024219 -0.041,-0.037109 -0.014,-0.01351 -0.028,-0.027486 -0.041,-0.041016 -0.014,-0.01364 -0.027,-0.026626 -0.041,-0.041016 z m 0.0234,1.4335936 c -0.15,0.4522 -0.26615,0.653593 -0.16015,1.275391 0.008,0.0178 0.0154,0.03543 0.0234,0.05273 0.009,0.0171 0.0183,0.03428 0.0273,0.05078 0.008,0.0172 0.0173,0.03283 0.0273,0.04883 0.009,0.0158 0.0193,0.03343 0.0293,0.04883 0.01,0.0158 0.0203,0.02827 0.0312,0.04297 0.01,0.0145 0.0203,0.03052 0.0312,0.04492 0.01,0.0146 0.0222,0.02917 0.0332,0.04297 0.011,0.0132 0.0222,0.02586 0.0332,0.03906 0.012,0.0132 0.0232,0.02616 0.0352,0.03906 0.012,0.0133 0.0251,0.02666 0.0371,0.03906 0.013,0.0121 0.0251,0.02326 0.0371,0.03516 0.013,0.0121 0.0241,0.02571 0.0371,0.03711 0.013,0.0122 0.028,0.02211 0.041,0.0332 0.014,0.0102 0.027,0.0225 0.041,0.0332 0.027,0.0216 0.053,0.0423 0.082,0.0625 0.028,0.0199 0.0569,0.03969 0.0859,0.05859 0.03,0.0186 0.0598,0.03864 0.0898,0.05664 0.03,0.0173 0.0598,0.03368 0.0899,0.05078 0.031,0.0174 0.0627,0.03428 0.0937,0.05078 0.032,0.0162 0.0647,0.03293 0.0957,0.04883 0.032,0.0162 0.0617,0.03147 0.0937,0.04687 0.065,0.0308 0.13131,0.0616 0.19531,0.0918 0.065,0.0301 0.1255,0.06832 0.1875,0.103516 0.031,0.0184 0.0608,0.03494 0.0918,0.05273 0.03,0.0184 0.0618,0.03619 0.0918,0.05469 0.031,0.0183 0.0598,0.03734 0.0898,0.05664 0.029,0.0194 0.0569,0.03859 0.0859,0.05859 0.029,0.0193 0.0579,0.03965 0.0859,0.06055 0.028,0.0206 0.0561,0.04235 0.082,0.06445 0.027,0.0217 0.0521,0.04496 0.0781,0.06836 0.013,0.0112 0.0261,0.02326 0.0391,0.03516 0.013,0.0112 0.0251,0.02461 0.0371,0.03711 0.012,0.013 0.0232,0.02636 0.0352,0.03906 0.012,0.013 0.0222,0.02596 0.0332,0.03906 0.012,0.0129 0.0242,0.02546 0.0352,0.03906 0.011,0.0141 0.0232,0.02682 0.0332,0.04101 0.011,0.014 0.0202,0.02847 0.0312,0.04297 0.01,0.0139 0.0193,0.02982 0.0293,0.04492 0.01,0.0153 0.0203,0.03137 0.0293,0.04687 0.009,0.0152 0.0183,0.03078 0.0274,0.04687 0.009,0.0165 0.0164,0.03223 0.0254,0.04883 0.008,0.0164 0.0174,0.03358 0.0254,0.05078 0.008,0.0177 0.0135,0.03504 0.0215,0.05274 0.007,0.0177 0.0155,0.03443 0.0215,0.05273 0.316,-0.415498 0.46853,-1.011795 0.39453,-1.558593 -0.008,-0.0178 -0.0144,-0.03543 -0.0234,-0.05274 -0.008,-0.0171 -0.0183,-0.03428 -0.0273,-0.05078 -0.009,-0.0172 -0.0183,-0.03283 -0.0274,-0.04883 -0.009,-0.0158 -0.003,-0.127878 -0.0137,-0.142578 -0.01,-0.0151 -0.0222,-0.02712 -0.0332,-0.04102 -0.011,-0.0138 -0.0232,-0.02937 -0.0352,-0.04297 -0.012,-0.0138 -0.0232,-0.02606 -0.0352,-0.03906 -0.013,-0.0123 -0.0251,-0.02676 -0.0371,-0.03906 -0.013,-0.0124 -0.0261,-0.02316 -0.0391,-0.03516 -0.013,-0.0124 -0.0261,-0.02366 -0.0391,-0.03516 -0.013,-0.0111 -0.0261,-0.0223 -0.0391,-0.0332 -0.014,-0.0112 -0.027,-0.02271 -0.041,-0.0332 -0.014,-0.0112 -0.027,-0.02115 -0.041,-0.03125 -0.015,-0.0093 -0.029,-0.02145 -0.043,-0.03125 -0.029,-0.0196 -0.0589,-0.03864 -0.0879,-0.05664 -0.03,-0.0178 -0.0588,-0.03418 -0.0898,-0.05078 -0.03,-0.0165 -0.0608,-0.03508 -0.0918,-0.05078 -0.032,-0.0151 -0.0637,-0.03012 -0.0957,-0.04492 -0.032,-0.0151 -0.0637,-0.02887 -0.0957,-0.04297 -0.033,-0.0139 -0.0666,-0.02762 -0.0996,-0.04102 -0.032,-0.0139 -0.0647,-0.02596 -0.0977,-0.03906 -0.066,-0.026 -0.13418,-0.05273 -0.20118,-0.07813 -0.067,-0.0254 -0.13321,-0.05213 -0.19921,-0.07813 -0.033,-0.014 -0.0647,-0.02566 -0.0977,-0.03906 -0.033,-0.0139 -0.0657,-0.02692 -0.0977,-0.04101 -0.033,-0.0139 -0.0657,-0.02817 -0.0976,-0.04297 -0.031,-0.0151 -0.0627,-0.03107 -0.0937,-0.04687 -0.032,-0.015 -0.0627,-0.03193 -0.0937,-0.04883 -0.03,-0.0164 -0.0609,-0.03464 -0.0899,-0.05274 -0.03,-0.0178 -0.0589,-0.03509 -0.0879,-0.05469 -0.014,-0.0093 -0.027,-0.02115 -0.041,-0.03125 -0.014,-0.0093 -0.0377,0.05432 -0.0527,0.04492 -0.014,-0.0101 -0.029,-0.0194 -0.043,-0.0293 -0.014,-0.0101 -0.027,-0.0191 -0.041,-0.0293 -0.014,-0.0101 -0.027,-0.0223 -0.041,-0.0332 -0.014,-0.0113 -0.029,-0.0217 -0.043,-0.0332 -0.013,-0.0114 -0.0261,-0.02316 -0.0391,-0.03516 -0.014,-0.0113 -0.0261,-0.02451 -0.0391,-0.03711 -0.013,-0.0128 -0.0241,-0.02596 -0.0371,-0.03906 -0.012,-0.0129 -0.0241,-0.02546 -0.0371,-0.03906 -0.012,-0.0142 -0.0251,-0.02867 -0.0371,-0.04297 -0.012,-0.0142 -0.0242,-0.02787 -0.0351,-0.04297 -0.011,-0.0157 -0.0222,-0.03118 -0.0332,-0.04688 -0.011,-0.0158 -0.0202,-0.03233 -0.0312,-0.04883 z m -0.20117,1.460938 c -0.215,0.424898 -0.34917,0.635127 -0.32617,1.265625 0.005,0.0186 0.009,0.03844 0.0156,0.05664 0.006,0.0181 0.0125,0.03513 0.0195,0.05273 0.006,0.0182 0.0145,0.03553 0.0215,0.05273 0.007,0.0169 0.0154,0.03418 0.0234,0.05078 0.008,0.017 0.0154,0.03293 0.0234,0.04883 0.009,0.0158 0.0164,0.03117 0.0254,0.04687 0.009,0.0159 0.0183,0.03167 0.0274,0.04687 0.01,0.0145 0.0173,0.03022 0.0273,0.04492 0.01,0.0146 0.0213,0.02857 0.0312,0.04297 0.01,0.0147 0.0213,0.02897 0.0312,0.04297 0.011,0.0136 0.0203,0.02752 0.0312,0.04102 0.011,0.0137 0.0222,0.02596 0.0332,0.03906 0.011,0.0137 0.0232,0.02822 0.0352,0.04102 0.012,0.0119 0.0232,0.02471 0.0352,0.03711 0.024,0.0251 0.0492,0.05042 0.0742,0.07422 0.026,0.0235 0.0521,0.04576 0.0781,0.06836 0.027,0.0224 0.0531,0.04656 0.0801,0.06836 0.028,0.0212 0.056,0.0414 0.084,0.0625 0.029,0.0213 0.0569,0.042 0.0859,0.0625 0.029,0.0202 0.0579,0.04065 0.0879,0.06055 0.029,0.0204 0.0579,0.03909 0.0879,0.05859 0.059,0.0391 0.11969,0.07859 0.17969,0.117188 0.06,0.0384 0.11969,0.07799 0.17969,0.117187 0.029,0.0204 0.0579,0.03869 0.0879,0.05859 0.029,0.0203 0.0599,0.04015 0.0879,0.06055 0.029,0.0203 0.0579,0.0413 0.0859,0.0625 0.028,0.0213 0.055,0.0407 0.082,0.0625 0.028,0.0211 0.0375,0.08498 0.0625,0.109375 0.025,0.024 0.0502,0.05077 0.0742,0.07617 0.023,0.0251 0.0473,0.04967 0.0703,0.07617 0.011,0.0128 0.0222,0.02751 0.0332,0.04101 0.011,0.0127 0.0213,0.02712 0.0312,0.04102 0.01,0.0144 0.0203,0.02877 0.0312,0.04297 0.01,0.0143 0.0183,0.02857 0.0274,0.04297 0.01,0.0143 0.0193,0.02807 0.0293,0.04297 0.009,0.0153 0.0183,0.03148 0.0274,0.04687 0.009,0.0153 0.0164,0.02922 0.0254,0.04492 0.008,0.0151 0.0154,0.03263 0.0234,0.04883 0.008,0.0164 0.0164,0.03223 0.0234,0.04883 0.007,0.0163 0.0125,0.03368 0.0195,0.05078 0.006,0.0175 0.0135,0.03514 0.0195,0.05274 0.007,0.0173 0.0126,0.03473 0.0176,0.05273 0.006,0.0187 0.0126,0.03629 0.0176,0.05469 0.005,0.0186 0.008,0.03764 0.0117,0.05664 0.367,-0.371098 0.58398,-0.942442 0.58398,-1.49414 -0.005,-0.0187 0.0178,-0.128785 0.01,-0.146485 -0.007,-0.0177 -0.0135,-0.03563 -0.0215,-0.05273 -0.008,-0.0177 -0.0174,-0.03223 -0.0254,-0.04883 -0.008,-0.0164 -0.0174,-0.03468 -0.0254,-0.05078 -0.009,-0.0165 -0.0173,-0.03148 -0.0273,-0.04687 -0.009,-0.0152 -0.0203,-0.02982 -0.0293,-0.04492 -0.01,-0.0153 -0.0193,-0.03032 -0.0293,-0.04492 -0.01,-0.0139 -0.0213,-0.02907 -0.0312,-0.04297 -0.011,-0.014 -0.0222,-0.02742 -0.0332,-0.04101 -0.011,-0.0141 -0.0222,-0.02782 -0.0332,-0.04102 -0.012,-0.0129 -0.0232,-0.02626 -0.0352,-0.03906 -0.012,-0.0129 -0.0231,-0.02481 -0.0351,-0.03711 -0.012,-0.013 -0.0261,-0.02511 -0.0391,-0.03711 -0.012,-0.0111 -0.0241,-0.02346 -0.0371,-0.03516 -0.025,-0.0234 -0.0511,-0.04626 -0.0781,-0.06836 -0.027,-0.0217 -0.054,-0.04365 -0.082,-0.06445 -0.028,-0.0206 -0.056,-0.0425 -0.084,-0.0625 -0.029,-0.0193 -0.0598,-0.03754 -0.0899,-0.05664 -0.029,-0.0195 -0.0579,-0.03814 -0.0879,-0.05664 -0.03,-0.0183 -0.0608,-0.03679 -0.0918,-0.05469 -0.03,-0.0183 -0.0608,-0.03513 -0.0918,-0.05273 -0.062,-0.035 -0.1245,-0.07097 -0.1875,-0.105469 -0.062,-0.0344 -0.1255,-0.06852 -0.1875,-0.103516 -0.031,-0.0185 -0.0608,-0.03689 -0.0918,-0.05469 -0.03,-0.0184 -0.0598,-0.03413 -0.0898,-0.05274 -0.03,-0.0183 -0.0609,-0.03744 -0.0899,-0.05664 -0.03,-0.0194 -0.0589,-0.03859 -0.0879,-0.05859 -0.029,-0.0193 -0.0677,0.0034 -0.0976,-0.01563 -0.029,-0.0186 -0.0579,-0.03839 -0.0859,-0.05859 -0.029,-0.0198 -0.057,-0.0409 -0.084,-0.0625 -0.014,-0.0102 -0.027,-0.02015 -0.041,-0.03125 -0.013,-0.0102 -0.0261,-0.02376 -0.0391,-0.03516 -0.012,-0.0122 -0.0261,-0.02326 -0.0391,-0.03516 -0.012,-0.0121 -0.0241,-0.02491 -0.0371,-0.03711 -0.012,-0.0121 -0.0231,-0.02431 -0.0351,-0.03711 -0.012,-0.0132 -0.0251,-0.02556 -0.0371,-0.03906 -0.011,-0.0132 -0.0222,-0.02722 -0.0332,-0.04102 -0.011,-0.0131 -0.0213,-0.02857 -0.0313,-0.04297 -0.011,-0.0146 -0.0232,-0.02817 -0.0332,-0.04297 -0.011,-0.0145 -0.0213,-0.02972 -0.0312,-0.04492 -0.01,-0.0159 -0.0183,-0.03303 -0.0273,-0.04883 -0.01,-0.0158 -0.0203,-0.03028 -0.0293,-0.04687 -0.008,-0.0172 -0.0183,-0.03368 -0.0273,-0.05078 -0.008,-0.0172 -0.0154,-0.03493 -0.0234,-0.05273 z m -0.39258,1.443359 c -0.23865,0.346924 -0.4514,0.61319 -0.50976,1.105469 l 2.69921,1.359375 c -0.002,-0.0064 -0.002,-0.01321 -0.004,-0.01953 -0.005,-0.0185 -0.0106,-0.03679 -0.0156,-0.05469 -0.005,-0.0186 -0.0116,-0.03523 -0.0176,-0.05273 -0.006,-0.0174 -0.0145,-0.03564 -0.0215,-0.05273 -0.006,-0.0175 -0.0125,-0.03233 -0.0195,-0.04883 -0.007,-0.0163 -0.0164,-0.03448 -0.0234,-0.05078 -0.008,-0.0164 -0.0154,-0.03107 -0.0234,-0.04687 -0.008,-0.0151 -0.0174,-0.03167 -0.0254,-0.04687 -0.009,-0.0153 -0.0183,-0.02992 -0.0273,-0.04492 -0.009,-0.0154 -0.0173,-0.03032 -0.0273,-0.04492 -0.01,-0.0143 -0.0193,-0.02877 -0.0293,-0.04297 -0.01,-0.0143 -0.0202,-0.02722 -0.0312,-0.04102 -0.01,-0.0144 -0.0202,-0.02937 -0.0312,-0.04297 -0.011,-0.0126 -0.0222,-0.02772 -0.0332,-0.04101 -0.022,-0.0266 -0.0463,-0.05077 -0.0703,-0.07617 -0.024,-0.0251 -0.0473,-0.05187 -0.0723,-0.07617 -0.025,-0.024 -0.0512,-0.04681 -0.0762,-0.07031 -0.027,-0.0229 -0.0531,-0.04751 -0.0801,-0.07031 -0.026,-0.0231 -0.0521,-0.04401 -0.0801,-0.06641 -0.027,-0.022 -0.056,-0.04471 -0.084,-0.06641 -0.028,-0.0222 -0.055,-0.04305 -0.084,-0.06445 -0.056,-0.0427 -0.11387,-0.08651 -0.17187,-0.128906 -0.057,-0.0422 -0.12164,-0.07623 -0.18164,-0.115234 -0.029,-0.0204 -0.0579,-0.03879 -0.0879,-0.05859 -0.029,-0.0203 -0.0579,-0.04005 -0.0859,-0.06055 -0.029,-0.0202 -0.0579,-0.0414 -0.0859,-0.0625 -0.028,-0.0213 -0.057,-0.04265 -0.084,-0.06445 -0.028,-0.0212 -0.0531,-0.04361 -0.0801,-0.06641 -0.026,-0.0224 -0.0521,-0.04651 -0.0781,-0.07031 -0.025,-0.0235 -0.0502,-0.04727 -0.0742,-0.07227 -0.012,-0.012 -0.0242,-0.02626 -0.0351,-0.03906 -0.012,-0.0119 -0.0242,-0.02596 -0.0352,-0.03906 -0.011,-0.0138 -0.0222,-0.02752 -0.0332,-0.04102 -0.011,-0.0136 -0.0203,-0.02526 -0.0312,-0.03906 -0.011,-0.0136 -0.0213,-0.02867 -0.0312,-0.04297 -0.01,-0.0147 -0.0203,-0.02807 -0.0293,-0.04297 -0.01,-0.0146 -0.0203,-0.02972 -0.0293,-0.04492 -0.009,-0.0145 -0.0193,-0.03117 -0.0274,-0.04687 -0.009,-0.0159 -0.0174,-0.03273 -0.0254,-0.04883 -0.009,-0.0158 -0.0154,-0.03047 -0.0234,-0.04687 -0.008,-0.017 -0.0164,-0.03574 -0.0234,-0.05273 -0.008,-0.0169 -0.0145,-0.03308 -0.0215,-0.05078 -0.006,-0.0182 -0.0135,-0.03659 -0.0195,-0.05469 -0.006,-0.0182 -0.0116,-0.03589 -0.0176,-0.05469 z" />
    <path
       style="fill:#ff0000;fill-opacity:0.90303022;fill-rule:evenodd;stroke:#000000;stroke-width:0.266667;stroke-linejoin:bevel"
       d="m 388,60 15,-19 -13,3 8,-10 h -13 l 14,-6 -9,-9 h 11 l -12,-16 19,14 2,-13 7,14 7,-17 -1,19 9,-8 -2,6 15,-10 -14,20 15,2 -14,9 15,17 L 430.088,47.20576 431,57 421,46 417,63 412,45 Z"
       id="path440"
       sodipodi:nodetypes="ccccccccccccccccccccccccccc" />
    <path
       style="fill:#ffff00;fill-opacity:0.5;fill-rule:evenodd;stroke:#000000;stroke-width:0.211449;stroke-linejoin:bevel"
       d="m 393.80276,54.200591 11.89401,-15.065746 -10.30814,2.378802 6.34347,-7.92934 h -10.30814 l 11.10107,-4.757604 -7.1364,-7.136407 h 8.72227 l -9.51521,-12.6869441 15.06575,11.1010761 1.58587,-10.3081421 5.55054,11.1010761 5.55054,-13.4798782 -0.79294,15.0657462 7.13641,-6.343472 -1.58587,4.757604 11.89401,-7.92934 -11.10108,15.858681 11.89401,1.585868 -11.10107,7.136406 11.89401,13.479878 -13.4101,-6.973252 0.72315,7.766186 -7.92934,-8.722274 -3.17173,13.479878 -3.96467,-14.272812 z"
       id="path1181"
       sodipodi:nodetypes="ccccccccccccccccccccccccccc" />
    <path
       style="fill:#ffff00;fill-opacity:1;fill-rule:evenodd;stroke:#000000;stroke-width:0.155521;stroke-linejoin:bevel"
       d="m 399.68022,48.326523 8.74804,-11.080844 -7.58163,1.749607 4.66562,-5.832024 h -7.58163 l 8.16483,-3.499214 -5.24882,-5.248822 h 6.41522 l -6.99843,-9.331238 11.08085,8.164833 1.16641,-7.581631 4.08241,8.164834 4.08242,-9.914441 -0.5832,11.080845 5.24882,-4.665619 -1.16641,3.499215 L 432.92276,18 l -8.16484,11.664048 8.74804,1.166405 -8.16483,5.248821 8.74804,9.91444 -9.86312,-5.128822 0.53187,5.712024 -5.83202,-6.415226 -2.33281,9.914441 -2.91601,-10.497643 z"
       id="path1183"
       sodipodi:nodetypes="ccccccccccccccccccccccccccc" />
    <path
       style="fill:#ffffff;fill-opacity:1;fill-rule:evenodd;stroke:#000000;stroke-width:0.0858372;stroke-linejoin:bevel"
       d="m 407.00321,41.007766 4.82833,-6.115882 -4.18455,0.965665 2.57511,-3.218885 h -4.18455 l 4.50644,-1.931331 -2.897,-2.896998 h 3.54077 l -3.86266,-5.150217 6.11588,4.50644 0.64378,-4.184551 2.25322,4.50644 2.25322,-5.472106 -0.32189,6.115883 2.897,-2.575109 -0.64378,1.931332 4.82833,-3.218886 -4.50644,6.437772 4.82833,0.643777 -4.50644,2.896997 4.82833,5.472105 -5.44378,-2.830766 0.29356,3.152654 -3.21889,-3.540774 -1.28755,5.472106 -1.60944,-5.793994 z"
       id="path1185"
       sodipodi:nodetypes="ccccccccccccccccccccccccccc" />
  </g>
</svg>
